<svg width="60" height="60" viewBox="0 0 60 60" fill="none" xmlns="http://www.w3.org/2000/svg">
<circle cx="30" cy="30" r="30" fill="white"/>
<path d="M53.9926 24.2322V25.9829C53.9926 29.0019 54.0151 32.0226 53.9837 35.0389C53.9675 36.5795 53.5701 38.0137 52.4192 39.1288C51.4539 40.0654 50.2761 40.527 48.9609 40.6496C48.4536 40.6907 47.9439 40.6952 47.4359 40.6631C47.3256 40.6577 47.1381 40.4666 47.1345 40.3566C47.1094 39.4858 47.1246 38.6141 47.1175 37.7424C47.1175 37.5098 47.2072 37.4142 47.4359 37.4233C47.6153 37.4305 47.7947 37.4233 47.9742 37.4233C49.3969 37.3746 50.1899 36.6814 50.3774 35.2598C50.4393 34.7973 50.3873 34.3204 50.3873 33.8661C49.8401 34.1933 49.3566 34.5873 48.8013 34.7955C46.5586 35.624 43.4 35.0587 42.3244 31.7901C41.6964 29.8862 41.7521 28.0093 42.7128 26.21C43.9921 23.8131 48.0361 22.8747 50.1271 24.985C50.1783 25.0363 50.2375 25.0751 50.372 25.1923C50.4061 24.8317 50.4321 24.5496 50.4617 24.2313L53.9926 24.2322ZM50.5631 29.623C50.5713 28.9714 50.322 28.3432 49.87 27.8759C49.418 27.4087 48.8001 27.1406 48.1518 27.1304C47.4956 27.1278 46.8652 27.3867 46.3988 27.8504C45.9323 28.3141 45.6678 28.9447 45.6633 29.604C45.6637 29.9265 45.7273 30.2457 45.8506 30.5434C45.9739 30.8411 46.1544 31.1114 46.3818 31.3389C46.6092 31.5665 46.879 31.7467 47.1758 31.8692C47.4726 31.9918 47.7905 32.0543 48.1114 32.0533C49.4893 32.056 50.5559 30.9986 50.5631 29.623Z" fill="#70695F"/>
<path d="M9.66185 25.1158C10.3705 24.7245 10.9797 24.3044 11.6462 24.034C13.5229 23.2678 15.8947 24.1296 16.9712 25.8081C18.0351 27.465 18.4236 29.2679 17.9786 31.188C17.4404 33.5318 15.8256 34.7767 13.5534 35.2328C12.1342 35.5177 10.9321 35.0877 9.97403 33.9915C9.92649 33.9383 9.86818 33.8941 9.69504 33.7355C9.69504 34.1132 9.71657 34.371 9.68428 34.6225C9.66993 34.7361 9.54882 34.9263 9.47347 34.9281C8.32701 34.947 7.17965 34.9416 6 34.9416V19.2878H9.66185V25.1158ZM12.0624 32.057C12.3871 32.062 12.7094 32.0013 13.0103 31.8786C13.3112 31.756 13.5844 31.5737 13.8138 31.3428C14.0432 31.1119 14.224 30.837 14.3456 30.5344C14.4671 30.2318 14.5269 29.9078 14.5213 29.5816C14.5149 28.9299 14.2527 28.3072 13.7917 27.8488C13.3307 27.3905 12.7082 27.1336 12.0597 27.1341C10.733 27.1404 9.60444 28.2781 9.60534 29.6077C9.61078 30.2587 9.87214 30.8811 10.3324 31.3393C10.7927 31.7974 11.4146 32.0541 12.0624 32.0534V32.057Z" fill="#70695F"/>
<path d="M33.7951 23.7861C35.0734 23.8321 36.2988 24.0566 37.4013 24.7309C38.8662 25.6323 39.644 27.0088 39.8656 28.6729C40.1553 30.8364 39.6476 32.7358 37.7601 34.0591C36.8631 34.6902 35.8404 35.0192 34.772 35.2049C33.229 35.4753 31.7175 35.3392 30.3225 34.6126C28.2359 33.5255 27.442 31.6567 27.4653 29.3968C27.4985 26.1344 29.6641 24.4388 32.4638 23.9394C32.9034 23.8592 33.351 23.8357 33.7951 23.7861ZM33.6399 32.0534C34.2882 32.0541 34.9102 31.7963 35.3695 31.3366C35.8289 30.8769 36.0879 30.2529 36.0898 29.6014C36.0822 28.9497 35.8216 28.3268 35.3637 27.8653C34.9057 27.4038 34.2866 27.1401 33.6381 27.1305C32.2925 27.1305 31.1406 28.2844 31.1613 29.6267C31.171 30.2784 31.4372 30.8996 31.9018 31.3545C32.3664 31.8093 32.9913 32.0606 33.6399 32.0534Z" fill="#70695F"/>
<path d="M24.7327 29.6103C24.7327 31.2167 24.7184 32.8231 24.7417 34.4295C24.748 34.8568 24.6035 34.9704 24.2034 34.9559C23.3961 34.9289 22.5887 34.9487 21.7813 34.9478C21.1866 34.9478 21.1848 34.9478 21.1848 34.3646C21.1848 31.452 21.1902 28.5394 21.1848 25.6268C21.1848 24.8272 21.1265 24.0141 20.6663 23.3344C20.4465 23.0089 20.0545 22.8025 19.7531 22.5231C19.6373 22.4185 19.4794 22.2743 19.4768 22.1453C19.4534 21.17 19.4669 20.1937 19.4624 19.2183C19.4624 18.9479 19.5943 18.8992 19.832 18.9082C21.863 18.9857 23.5351 20.1135 24.181 22.0236C24.4872 22.9619 24.6661 23.9373 24.713 24.9236C24.7955 26.4841 24.7327 28.049 24.7327 29.6103Z" fill="#70695F"/>
</svg>
