<svg width="635" height="156" viewBox="0 0 635 156" fill="none" xmlns="http://www.w3.org/2000/svg">
<path d="M714 75H630.455C630.455 60.5591 624.675 46.7096 614.386 36.4983C604.098 26.287 590.143 20.5504 575.593 20.5504C568.611 20.5372 561.691 21.8469 555.204 24.4091C550.151 17.1817 543.409 11.277 535.555 7.20019C527.701 3.12342 518.968 0.995985 510.105 1.00001C500.577 1.00214 491.214 3.47105 482.941 8.16284C474.668 12.8546 467.772 19.607 462.932 27.7532C454.666 22.9974 445.273 20.5113 435.718 20.5504C421.167 20.5504 407.213 26.287 396.925 36.4983C386.636 46.7096 380.856 60.5591 380.856 75H305" stroke="white" stroke-width="2" stroke-linecap="round" stroke-linejoin="round"/>
<path d="M238 155H189.589C189.589 146.414 186.239 138.179 180.278 132.107C174.316 126.036 166.23 122.625 157.799 122.625C153.753 122.617 149.743 123.395 145.984 124.919C143.056 120.622 139.149 117.111 134.598 114.687C130.047 112.263 124.986 110.998 119.85 111C114.329 111.001 108.904 112.469 104.11 115.259C99.3164 118.049 95.32 122.064 92.5158 126.907C87.7256 124.08 82.2827 122.601 76.7459 122.625C68.3146 122.625 60.2286 126.036 54.2668 132.107C48.305 138.179 44.9556 146.414 44.9556 155H1" stroke="white" stroke-width="2" stroke-linecap="round" stroke-linejoin="round"/>
</svg>
