<svg width="60" height="60" viewBox="0 0 60 60" fill="none" xmlns="http://www.w3.org/2000/svg">
<circle cx="30" cy="30" r="30" fill="white"/>
<path d="M24.7288 59.6025C24.7288 52.4962 24.7288 45.3909 24.7288 38.2864C24.7288 37.8767 24.7784 37.9195 24.3602 37.9192C22.0353 37.9192 19.7103 37.9192 17.3851 37.9192C17.3188 37.9192 17.2519 37.9145 17.1858 37.9192C17.0546 37.9305 16.9885 37.881 17.0016 37.7386C17.007 37.6804 17.0016 37.6221 17.0016 37.5639C17.0016 34.8068 17.0016 32.0498 17.0016 29.2927C17.0016 28.9109 16.9572 28.9333 17.3547 28.9333C19.6983 28.9333 22.0423 28.9333 24.3866 28.9333C24.7852 28.9333 24.7283 28.9295 24.7283 28.5897C24.7308 26.2015 24.7115 23.8133 24.7402 21.4252C24.7616 19.6443 25.0876 17.914 25.7854 16.2732C26.97 13.4878 28.995 11.6361 31.8018 10.6721C33.348 10.1412 34.9449 9.97836 36.5685 10.0022C38.6303 10.0314 40.6749 10.2489 42.7125 10.5541C42.9972 10.597 42.9995 10.5964 42.9995 10.8969C42.9995 13.2463 42.9995 15.5956 42.9995 17.9449C42.9995 17.9935 42.9966 18.0422 42.9995 18.0905C43.0055 18.2 42.9599 18.2533 42.8497 18.2475C42.7834 18.244 42.7168 18.2475 42.6504 18.2475C41.4263 18.2498 40.2021 18.2455 38.9779 18.2571C38.408 18.2588 37.841 18.3398 37.2925 18.4977C35.707 18.9636 34.7439 20.0357 34.3658 21.6693C34.2608 22.1429 34.2095 22.6273 34.2129 23.1129C34.2078 24.9477 34.2109 26.7825 34.2109 28.6173C34.2109 28.6756 34.2126 28.7338 34.2109 28.7921C34.2109 28.8888 34.2585 28.9333 34.351 28.933C34.427 28.933 34.5027 28.933 34.5787 28.933H42.1801C42.2465 28.933 42.3128 28.933 42.3794 28.933C42.6325 28.9371 42.6402 28.9447 42.6023 29.1951C42.3072 31.1497 42.0118 33.1042 41.7161 35.0586C41.586 35.9207 41.4598 36.7839 41.3297 37.646C41.2885 37.9163 41.2819 37.9166 41.0126 37.9166C38.8679 37.9166 36.7232 37.9166 34.5785 37.9166C34.177 37.9166 34.2101 37.8604 34.2101 38.2856C34.2101 45.3141 34.2101 52.3417 34.2101 59.3683C34.2101 59.4461 34.2101 59.5235 34.2101 59.6013C34.185 59.6139 34.1587 59.6237 34.1315 59.6304C33.6108 59.7047 33.0909 59.7862 32.5657 59.8299C32.2943 59.8526 32.0231 59.8782 31.7523 59.9065C31.7104 59.9109 31.6199 59.9033 31.6837 60H27.2424C27.2003 59.9048 27.2006 59.8989 27.0893 59.8943C26.654 59.8754 26.2218 59.8206 25.7899 59.7664C25.4352 59.7251 25.0767 59.6992 24.7288 59.6025Z" fill="#70695F"/>
</svg>
