<svg width="1906" height="528" viewBox="0 0 1906 528" fill="none" xmlns="http://www.w3.org/2000/svg">
<path d="M46.6823 388.613H36.9506C36.4542 388.613 35.9782 388.81 35.6272 389.161C35.2763 389.512 35.0791 389.988 35.0791 390.485V404.461C35.0791 404.957 35.2763 405.433 35.6272 405.784C35.9782 406.135 36.4542 406.332 36.9506 406.332H46.6823C47.1787 406.332 47.6547 406.135 48.0057 405.784C48.3567 405.433 48.5538 404.957 48.5538 404.461V390.485C48.5538 389.988 48.3567 389.512 48.0057 389.161C47.6547 388.81 47.1787 388.613 46.6823 388.613ZM44.8109 402.589H38.8221V392.356H44.8109V402.589Z" fill="#70695F"/>
<path d="M66.1985 388.613H56.4667C55.9704 388.613 55.4943 388.81 55.1434 389.161C54.7924 389.512 54.5952 389.988 54.5952 390.485V404.461C54.5952 404.957 54.7924 405.433 55.1434 405.784C55.4943 406.135 55.9704 406.332 56.4667 406.332H66.1985C66.6948 406.332 67.1708 406.135 67.5218 405.784C67.8728 405.433 68.07 404.957 68.07 404.461V390.485C68.07 389.988 67.8728 389.512 67.5218 389.161C67.1708 388.81 66.6948 388.613 66.1985 388.613ZM64.327 402.589H58.3382V392.356H64.327V402.589Z" fill="#70695F"/>
<path d="M85.7146 388.613H75.9828C75.4865 388.613 75.0105 388.81 74.6595 389.161C74.3085 389.512 74.1113 389.988 74.1113 390.485V404.461C74.1113 404.957 74.3085 405.433 74.6595 405.784C75.0105 406.135 75.4865 406.332 75.9828 406.332H85.7146C86.2109 406.332 86.6869 406.135 87.0379 405.784C87.3889 405.433 87.5861 404.957 87.5861 404.461V390.485C87.5861 389.988 87.3889 389.512 87.0379 389.161C86.6869 388.81 86.2109 388.613 85.7146 388.613ZM83.8431 402.589H77.8543V392.356H83.8431V402.589Z" fill="#70695F"/>
<path d="M105.238 388.613H95.5058C95.0094 388.613 94.5334 388.81 94.1824 389.161C93.8314 389.512 93.6343 389.988 93.6343 390.485V404.461C93.6343 404.957 93.8314 405.433 94.1824 405.784C94.5334 406.135 95.0094 406.332 95.5058 406.332H105.238C105.734 406.332 106.21 406.135 106.561 405.784C106.912 405.433 107.109 404.957 107.109 404.461V390.485C107.109 389.988 106.912 389.512 106.561 389.161C106.21 388.81 105.734 388.613 105.238 388.613ZM103.366 402.589H97.3773V392.356H103.366V402.589Z" fill="#70695F"/>
<path d="M124.754 388.613H115.022C114.526 388.613 114.05 388.81 113.699 389.161C113.348 389.512 113.15 389.988 113.15 390.485V404.461C113.15 404.957 113.348 405.433 113.699 405.784C114.05 406.135 114.526 406.332 115.022 406.332H124.754C125.25 406.332 125.726 406.135 126.077 405.784C126.428 405.433 126.625 404.957 126.625 404.461V390.485C126.625 389.988 126.428 389.512 126.077 389.161C125.726 388.81 125.25 388.613 124.754 388.613ZM122.897 402.589H116.908V392.356H122.897V402.589Z" fill="#70695F"/>
<path d="M46.6823 413.204H36.9506C36.4542 413.204 35.9782 413.401 35.6272 413.752C35.2763 414.103 35.0791 414.579 35.0791 415.076V429.052C35.0791 429.548 35.2763 430.024 35.6272 430.375C35.9782 430.726 36.4542 430.923 36.9506 430.923H46.6823C47.1787 430.923 47.6547 430.726 48.0057 430.375C48.3567 430.024 48.5538 429.548 48.5538 429.052V415.076C48.5538 414.579 48.3567 414.103 48.0057 413.752C47.6547 413.401 47.1787 413.204 46.6823 413.204ZM44.8109 427.18H38.8221V416.947H44.8109V427.18Z" fill="#70695F"/>
<path d="M66.1985 413.204H56.4667C55.9704 413.204 55.4943 413.401 55.1434 413.752C54.7924 414.103 54.5952 414.579 54.5952 415.076V429.052C54.5952 429.548 54.7924 430.024 55.1434 430.375C55.4943 430.726 55.9704 430.923 56.4667 430.923H66.1985C66.6948 430.923 67.1708 430.726 67.5218 430.375C67.8728 430.024 68.07 429.548 68.07 429.052V415.076C68.07 414.579 67.8728 414.103 67.5218 413.752C67.1708 413.401 66.6948 413.204 66.1985 413.204ZM64.327 427.18H58.3382V416.947H64.327V427.18Z" fill="#70695F"/>
<path d="M85.7146 413.204H75.9828C75.4865 413.204 75.0105 413.401 74.6595 413.752C74.3085 414.103 74.1113 414.579 74.1113 415.076V429.052C74.1113 429.548 74.3085 430.024 74.6595 430.375C75.0105 430.726 75.4865 430.923 75.9828 430.923H85.7146C86.2109 430.923 86.6869 430.726 87.0379 430.375C87.3889 430.024 87.5861 429.548 87.5861 429.052V415.076C87.5861 414.579 87.3889 414.103 87.0379 413.752C86.6869 413.401 86.2109 413.204 85.7146 413.204ZM83.8431 427.18H77.8543V416.947H83.8431V427.18Z" fill="#70695F"/>
<path d="M105.238 413.204H95.5058C95.0094 413.204 94.5334 413.401 94.1824 413.752C93.8314 414.103 93.6343 414.579 93.6343 415.076V429.052C93.6343 429.548 93.8314 430.024 94.1824 430.375C94.5334 430.726 95.0094 430.923 95.5058 430.923H105.238C105.734 430.923 106.21 430.726 106.561 430.375C106.912 430.024 107.109 429.548 107.109 429.052V415.076C107.109 414.579 106.912 414.103 106.561 413.752C106.21 413.401 105.734 413.204 105.238 413.204ZM103.366 427.18H97.3773V416.947H103.366V427.18Z" fill="#70695F"/>
<path d="M124.754 413.204H115.022C114.526 413.204 114.05 413.401 113.699 413.752C113.348 414.103 113.15 414.579 113.15 415.076V429.052C113.15 429.548 113.348 430.024 113.699 430.375C114.05 430.726 114.526 430.923 115.022 430.923H124.754C125.25 430.923 125.726 430.726 126.077 430.375C126.428 430.024 126.625 429.548 126.625 429.052V415.076C126.625 414.579 126.428 414.103 126.077 413.752C125.726 413.401 125.25 413.204 124.754 413.204ZM122.897 427.18H116.908V416.947H122.897V427.18Z" fill="#70695F"/>
<path d="M46.6823 437.803H36.9506C36.4542 437.803 35.9782 438 35.6272 438.351C35.2763 438.702 35.0791 439.178 35.0791 439.675V453.673C35.0791 454.17 35.2763 454.646 35.6272 454.997C35.9782 455.348 36.4542 455.545 36.9506 455.545H46.6823C47.1787 455.545 47.6547 455.348 48.0057 454.997C48.3567 454.646 48.5538 454.17 48.5538 453.673V439.675C48.5538 439.178 48.3567 438.702 48.0057 438.351C47.6547 438 47.1787 437.803 46.6823 437.803ZM44.8109 451.772H38.8221V441.546H44.8109V451.772Z" fill="#70695F"/>
<path d="M66.1985 437.803H56.4667C55.9704 437.803 55.4943 438 55.1434 438.351C54.7924 438.702 54.5952 439.178 54.5952 439.675V453.673C54.5952 454.17 54.7924 454.646 55.1434 454.997C55.4943 455.348 55.9704 455.545 56.4667 455.545H66.1985C66.6948 455.545 67.1708 455.348 67.5218 454.997C67.8728 454.646 68.07 454.17 68.07 453.673V439.675C68.07 439.178 67.8728 438.702 67.5218 438.351C67.1708 438 66.6948 437.803 66.1985 437.803ZM64.327 451.772H58.3382V441.546H64.327V451.772Z" fill="#70695F"/>
<path d="M85.7146 437.803H75.9828C75.4865 437.803 75.0105 438 74.6595 438.351C74.3085 438.702 74.1113 439.178 74.1113 439.675V453.673C74.1113 454.17 74.3085 454.646 74.6595 454.997C75.0105 455.348 75.4865 455.545 75.9828 455.545H85.7146C86.2109 455.545 86.6869 455.348 87.0379 454.997C87.3889 454.646 87.5861 454.17 87.5861 453.673V439.675C87.5861 439.178 87.3889 438.702 87.0379 438.351C86.6869 438 86.2109 437.803 85.7146 437.803ZM83.8431 451.772H77.8543V441.546H83.8431V451.772Z" fill="#70695F"/>
<path d="M105.238 437.803H95.5058C95.0094 437.803 94.5334 438 94.1824 438.351C93.8314 438.702 93.6343 439.178 93.6343 439.675V453.673C93.6343 454.17 93.8314 454.646 94.1824 454.997C94.5334 455.348 95.0094 455.545 95.5058 455.545H105.238C105.734 455.545 106.21 455.348 106.561 454.997C106.912 454.646 107.109 454.17 107.109 453.673V439.675C107.109 439.178 106.912 438.702 106.561 438.351C106.21 438 105.734 437.803 105.238 437.803ZM103.366 451.772H97.3773V441.546H103.366V451.772Z" fill="#70695F"/>
<path d="M124.754 437.803H115.022C114.526 437.803 114.05 438 113.699 438.351C113.348 438.702 113.15 439.178 113.15 439.675V453.674C113.15 454.17 113.348 454.646 113.699 454.997C114.05 455.348 114.526 455.545 115.022 455.545H124.754C125.001 455.547 125.246 455.5 125.474 455.407C125.703 455.314 125.911 455.176 126.087 455.002C126.262 454.828 126.401 454.621 126.496 454.393C126.591 454.165 126.64 453.921 126.64 453.674V439.675C126.64 439.428 126.591 439.183 126.496 438.955C126.401 438.727 126.262 438.52 126.087 438.346C125.911 438.172 125.703 438.035 125.474 437.941C125.246 437.848 125.001 437.801 124.754 437.803ZM122.897 451.772H116.908V441.546H122.897V451.772Z" fill="#70695F"/>
<path d="M232.11 360.975H176.092V270.35C176.092 269.853 175.895 269.377 175.544 269.026C175.193 268.675 174.717 268.478 174.221 268.478H143.611C143.176 268.477 142.755 268.628 142.421 268.905L126.004 282.439C125.79 282.614 125.618 282.835 125.5 283.085C125.382 283.335 125.321 283.608 125.323 283.884V313.079H65.5322C65.0358 313.079 64.5598 313.277 64.2088 313.628C63.8578 313.979 63.6607 314.455 63.6607 314.951V375.625H25.3849C24.8886 375.625 24.4126 375.822 24.0616 376.173C23.7106 376.524 23.5134 377 23.5134 377.496V392.595H19.3812V388.478C19.3812 387.982 19.184 387.506 18.833 387.155C18.4821 386.804 18.006 386.607 17.5097 386.607H1.87151C1.37516 386.607 0.899135 386.804 0.548162 387.155C0.19719 387.506 1.50942e-05 387.982 1.50942e-05 388.478V442.04C-0.000975039 442.286 0.0467564 442.53 0.140457 442.758C0.234157 442.985 0.371973 443.192 0.545955 443.366C0.719936 443.54 0.926641 443.678 1.15415 443.771C1.38165 443.865 1.62546 443.913 1.87151 443.912H17.5097C17.7557 443.913 17.9995 443.865 18.227 443.771C18.4546 443.678 18.6613 443.54 18.8352 443.366C19.0092 443.192 19.147 442.985 19.2407 442.758C19.3344 442.53 19.3822 442.286 19.3812 442.04V437.706H23.5134V508.583C23.5134 509.079 23.7106 509.555 24.0616 509.906C24.4126 510.257 24.8886 510.454 25.3849 510.454C25.8813 510.454 26.3573 510.257 26.7083 509.906C27.0592 509.555 27.2564 509.079 27.2564 508.583V379.353H134.418V508.568C134.418 509.064 134.615 509.54 134.966 509.891C135.317 510.242 135.793 510.439 136.29 510.439C136.786 510.439 137.262 510.242 137.613 509.891C137.964 509.54 138.161 509.064 138.161 508.568V377.481C138.161 376.985 137.964 376.509 137.613 376.158C137.262 375.807 136.786 375.61 136.29 375.61H67.4186V316.807H127.209C127.705 316.807 128.181 316.61 128.532 316.259C128.883 315.908 129.081 315.432 129.081 314.936V284.76L144.292 272.221H172.364V360.975H159.578C159.082 360.975 158.606 361.172 158.255 361.523C157.904 361.874 157.707 362.35 157.707 362.846V503.582C157.707 504.079 157.904 504.555 158.255 504.906C158.606 505.257 159.082 505.454 159.578 505.454C160.075 505.454 160.551 505.257 160.902 504.906C161.253 504.555 161.45 504.079 161.45 503.582V364.718H230.238V503.582C230.238 504.079 230.436 504.555 230.787 504.906C231.137 505.257 231.614 505.454 232.11 505.454C232.606 505.454 233.082 505.257 233.433 504.906C233.784 504.555 233.981 504.079 233.981 503.582V362.846C233.981 362.35 233.784 361.874 233.433 361.523C233.082 361.172 232.606 360.975 232.11 360.975ZM15.6382 440.154H3.743V390.335H15.6382V440.154ZM19.3812 433.948V396.323H23.5134V433.948H19.3812Z" fill="#70695F"/>
<path d="M220.498 419.931H223.252C224.511 419.931 225.719 419.417 226.609 418.502C227.5 417.587 228 416.347 228 415.053C228 413.759 227.5 412.518 226.609 411.603C225.719 410.688 224.511 410.174 223.252 410.174H220.498C220.129 410.173 219.76 410.218 219.402 410.309V403.876C219.402 403.379 219.21 402.902 218.867 402.55C218.525 402.198 218.06 402 217.576 402H210.432C209.947 402 209.483 402.198 209.14 402.55C208.798 402.902 208.605 403.379 208.605 403.876V410.309C208.247 410.218 207.879 410.173 207.51 410.174H204.748C203.489 410.174 202.281 410.688 201.391 411.603C200.5 412.518 200 413.759 200 415.053C200 416.347 200.5 417.587 201.391 418.502C202.281 419.417 203.489 419.931 204.748 419.931H207.51C207.879 419.929 208.246 419.884 208.605 419.796V424.487C208.247 424.396 207.879 424.351 207.51 424.352H204.748C203.489 424.352 202.281 424.866 201.391 425.781C200.5 426.696 200 427.937 200 429.231C200 430.525 200.5 431.766 201.391 432.681C202.281 433.596 203.489 434.11 204.748 434.11H207.51C207.873 434.109 208.236 434.066 208.591 433.982V500.124C208.591 500.621 208.783 501.098 209.126 501.45C209.468 501.802 209.933 502 210.417 502H217.561C218.046 502 218.51 501.802 218.853 501.45C219.195 501.098 219.387 500.621 219.387 500.124V433.982C219.747 434.07 220.114 434.115 220.483 434.117H223.237C224.496 434.117 225.704 433.603 226.595 432.688C227.485 431.773 227.985 430.533 227.985 429.239C227.985 427.945 227.485 426.704 226.595 425.789C225.704 424.874 224.496 424.36 223.237 424.36H220.498C220.129 424.358 219.76 424.404 219.402 424.495V419.796C219.761 419.884 220.129 419.929 220.498 419.931ZM220.498 413.927H223.252C223.542 413.927 223.821 414.045 224.027 414.257C224.232 414.468 224.348 414.754 224.348 415.053C224.348 415.351 224.232 415.638 224.027 415.849C223.821 416.06 223.542 416.179 223.252 416.179H220.498C220.207 416.179 219.928 416.06 219.723 415.849C219.517 415.638 219.402 415.351 219.402 415.053C219.402 414.754 219.517 414.468 219.723 414.257C219.928 414.045 220.207 413.927 220.498 413.927ZM212.243 405.753H215.735V464.711H212.243V405.753ZM215.735 477.809H212.243V468.464H215.735V477.809ZM207.495 416.148H204.734C204.443 416.148 204.164 416.03 203.959 415.819C203.753 415.608 203.638 415.321 203.638 415.023C203.638 414.724 203.753 414.438 203.959 414.226C204.164 414.015 204.443 413.897 204.734 413.897H207.495C207.786 413.897 208.064 414.015 208.27 414.226C208.475 414.438 208.591 414.724 208.591 415.023C208.591 415.321 208.475 415.608 208.27 415.819C208.064 416.03 207.786 416.148 207.495 416.148ZM207.495 430.327H204.734C204.443 430.327 204.164 430.208 203.959 429.997C203.753 429.786 203.638 429.5 203.638 429.201C203.638 428.902 203.753 428.616 203.959 428.405C204.164 428.194 204.443 428.075 204.734 428.075H207.495C207.786 428.075 208.064 428.194 208.27 428.405C208.475 428.616 208.591 428.902 208.591 429.201C208.591 429.5 208.475 429.786 208.27 429.997C208.064 430.208 207.786 430.327 207.495 430.327ZM212.243 498.21V481.592H215.735V498.24L212.243 498.21ZM220.483 428.075H223.237C223.528 428.075 223.806 428.194 224.012 428.405C224.217 428.616 224.333 428.902 224.333 429.201C224.333 429.5 224.217 429.786 224.012 429.997C223.806 430.208 223.528 430.327 223.237 430.327H220.498C220.207 430.327 219.928 430.208 219.723 429.997C219.517 429.786 219.402 429.5 219.402 429.201C219.402 428.902 219.517 428.616 219.723 428.405C219.928 428.194 220.207 428.075 220.498 428.075H220.483Z" fill="#70695F"/>
<path d="M1267.68 388.613H1257.95C1257.45 388.613 1256.98 388.81 1256.63 389.161C1256.28 389.512 1256.08 389.988 1256.08 390.485V404.461C1256.08 404.957 1256.28 405.433 1256.63 405.784C1256.98 406.135 1257.45 406.332 1257.95 406.332H1267.68C1268.18 406.332 1268.65 406.135 1269.01 405.784C1269.36 405.433 1269.55 404.957 1269.55 404.461V390.485C1269.55 389.988 1269.36 389.512 1269.01 389.161C1268.65 388.81 1268.18 388.613 1267.68 388.613ZM1265.81 402.589H1259.82V392.356H1265.81V402.589Z" fill="#70695F"/>
<path d="M1287.2 388.613H1277.47C1276.97 388.613 1276.49 388.81 1276.14 389.161C1275.79 389.512 1275.6 389.988 1275.6 390.485V404.461C1275.6 404.957 1275.79 405.433 1276.14 405.784C1276.49 406.135 1276.97 406.332 1277.47 406.332H1287.2C1287.69 406.332 1288.17 406.135 1288.52 405.784C1288.87 405.433 1289.07 404.957 1289.07 404.461V390.485C1289.07 389.988 1288.87 389.512 1288.52 389.161C1288.17 388.81 1287.69 388.613 1287.2 388.613ZM1285.33 402.589H1279.34V392.356H1285.33V402.589Z" fill="#70695F"/>
<path d="M1306.71 388.613H1296.98C1296.49 388.613 1296.01 388.81 1295.66 389.161C1295.31 389.512 1295.11 389.988 1295.11 390.485V404.461C1295.11 404.957 1295.31 405.433 1295.66 405.784C1296.01 406.135 1296.49 406.332 1296.98 406.332H1306.71C1307.21 406.332 1307.69 406.135 1308.04 405.784C1308.39 405.433 1308.59 404.957 1308.59 404.461V390.485C1308.59 389.988 1308.39 389.512 1308.04 389.161C1307.69 388.81 1307.21 388.613 1306.71 388.613ZM1304.84 402.589H1298.85V392.356H1304.84V402.589Z" fill="#70695F"/>
<path d="M1326.24 388.613H1316.51C1316.01 388.613 1315.53 388.81 1315.18 389.161C1314.83 389.512 1314.63 389.988 1314.63 390.485V404.461C1314.63 404.957 1314.83 405.433 1315.18 405.784C1315.53 406.135 1316.01 406.332 1316.51 406.332H1326.24C1326.73 406.332 1327.21 406.135 1327.56 405.784C1327.91 405.433 1328.11 404.957 1328.11 404.461V390.485C1328.11 389.988 1327.91 389.512 1327.56 389.161C1327.21 388.81 1326.73 388.613 1326.24 388.613ZM1324.37 402.589H1318.38V392.356H1324.37V402.589Z" fill="#70695F"/>
<path d="M1345.75 388.613H1336.02C1335.53 388.613 1335.05 388.81 1334.7 389.161C1334.35 389.512 1334.15 389.988 1334.15 390.485V404.461C1334.15 404.957 1334.35 405.433 1334.7 405.784C1335.05 406.135 1335.53 406.332 1336.02 406.332H1345.75C1346.25 406.332 1346.73 406.135 1347.08 405.784C1347.43 405.433 1347.63 404.957 1347.63 404.461V390.485C1347.63 389.988 1347.43 389.512 1347.08 389.161C1346.73 388.81 1346.25 388.613 1345.75 388.613ZM1343.9 402.589H1337.91V392.356H1343.9V402.589Z" fill="#70695F"/>
<path d="M1267.68 413.204H1257.95C1257.45 413.204 1256.98 413.401 1256.63 413.752C1256.28 414.103 1256.08 414.579 1256.08 415.076V429.052C1256.08 429.548 1256.28 430.024 1256.63 430.375C1256.98 430.726 1257.45 430.923 1257.95 430.923H1267.68C1268.18 430.923 1268.65 430.726 1269.01 430.375C1269.36 430.024 1269.55 429.548 1269.55 429.052V415.076C1269.55 414.579 1269.36 414.103 1269.01 413.752C1268.65 413.401 1268.18 413.204 1267.68 413.204ZM1265.81 427.18H1259.82V416.947H1265.81V427.18Z" fill="#70695F"/>
<path d="M1287.2 413.204H1277.47C1276.97 413.204 1276.49 413.401 1276.14 413.752C1275.79 414.103 1275.6 414.579 1275.6 415.076V429.052C1275.6 429.548 1275.79 430.024 1276.14 430.375C1276.49 430.726 1276.97 430.923 1277.47 430.923H1287.2C1287.69 430.923 1288.17 430.726 1288.52 430.375C1288.87 430.024 1289.07 429.548 1289.07 429.052V415.076C1289.07 414.579 1288.87 414.103 1288.52 413.752C1288.17 413.401 1287.69 413.204 1287.2 413.204ZM1285.33 427.18H1279.34V416.947H1285.33V427.18Z" fill="#70695F"/>
<path d="M1306.71 413.204H1296.98C1296.49 413.204 1296.01 413.401 1295.66 413.752C1295.31 414.103 1295.11 414.579 1295.11 415.076V429.052C1295.11 429.548 1295.31 430.024 1295.66 430.375C1296.01 430.726 1296.49 430.923 1296.98 430.923H1306.71C1307.21 430.923 1307.69 430.726 1308.04 430.375C1308.39 430.024 1308.59 429.548 1308.59 429.052V415.076C1308.59 414.579 1308.39 414.103 1308.04 413.752C1307.69 413.401 1307.21 413.204 1306.71 413.204ZM1304.84 427.18H1298.85V416.947H1304.84V427.18Z" fill="#70695F"/>
<path d="M1326.24 413.204H1316.51C1316.01 413.204 1315.53 413.401 1315.18 413.752C1314.83 414.103 1314.63 414.579 1314.63 415.076V429.052C1314.63 429.548 1314.83 430.024 1315.18 430.375C1315.53 430.726 1316.01 430.923 1316.51 430.923H1326.24C1326.73 430.923 1327.21 430.726 1327.56 430.375C1327.91 430.024 1328.11 429.548 1328.11 429.052V415.076C1328.11 414.579 1327.91 414.103 1327.56 413.752C1327.21 413.401 1326.73 413.204 1326.24 413.204ZM1324.37 427.18H1318.38V416.947H1324.37V427.18Z" fill="#70695F"/>
<path d="M1345.75 413.204H1336.02C1335.53 413.204 1335.05 413.401 1334.7 413.752C1334.35 414.103 1334.15 414.579 1334.15 415.076V429.052C1334.15 429.548 1334.35 430.024 1334.7 430.375C1335.05 430.726 1335.53 430.923 1336.02 430.923H1345.75C1346.25 430.923 1346.73 430.726 1347.08 430.375C1347.43 430.024 1347.63 429.548 1347.63 429.052V415.076C1347.63 414.579 1347.43 414.103 1347.08 413.752C1346.73 413.401 1346.25 413.204 1345.75 413.204ZM1343.9 427.18H1337.91V416.947H1343.9V427.18Z" fill="#70695F"/>
<path d="M1267.68 437.803H1257.95C1257.45 437.803 1256.98 438 1256.63 438.351C1256.28 438.702 1256.08 439.178 1256.08 439.675V453.673C1256.08 454.17 1256.28 454.646 1256.63 454.997C1256.98 455.348 1257.45 455.545 1257.95 455.545H1267.68C1268.18 455.545 1268.65 455.348 1269.01 454.997C1269.36 454.646 1269.55 454.17 1269.55 453.673V439.675C1269.55 439.178 1269.36 438.702 1269.01 438.351C1268.65 438 1268.18 437.803 1267.68 437.803ZM1265.81 451.772H1259.82V441.546H1265.81V451.772Z" fill="#70695F"/>
<path d="M1287.2 437.803H1277.47C1276.97 437.803 1276.49 438 1276.14 438.351C1275.79 438.702 1275.6 439.178 1275.6 439.675V453.673C1275.6 454.17 1275.79 454.646 1276.14 454.997C1276.49 455.348 1276.97 455.545 1277.47 455.545H1287.2C1287.69 455.545 1288.17 455.348 1288.52 454.997C1288.87 454.646 1289.07 454.17 1289.07 453.673V439.675C1289.07 439.178 1288.87 438.702 1288.52 438.351C1288.17 438 1287.69 437.803 1287.2 437.803ZM1285.33 451.772H1279.34V441.546H1285.33V451.772Z" fill="#70695F"/>
<path d="M1306.71 437.803H1296.98C1296.49 437.803 1296.01 438 1295.66 438.351C1295.31 438.702 1295.11 439.178 1295.11 439.675V453.673C1295.11 454.17 1295.31 454.646 1295.66 454.997C1296.01 455.348 1296.49 455.545 1296.98 455.545H1306.71C1307.21 455.545 1307.69 455.348 1308.04 454.997C1308.39 454.646 1308.59 454.17 1308.59 453.673V439.675C1308.59 439.178 1308.39 438.702 1308.04 438.351C1307.69 438 1307.21 437.803 1306.71 437.803ZM1304.84 451.772H1298.85V441.546H1304.84V451.772Z" fill="#70695F"/>
<path d="M1326.24 437.803H1316.51C1316.01 437.803 1315.53 438 1315.18 438.351C1314.83 438.702 1314.63 439.178 1314.63 439.675V453.673C1314.63 454.17 1314.83 454.646 1315.18 454.997C1315.53 455.348 1316.01 455.545 1316.51 455.545H1326.24C1326.73 455.545 1327.21 455.348 1327.56 454.997C1327.91 454.646 1328.11 454.17 1328.11 453.673V439.675C1328.11 439.178 1327.91 438.702 1327.56 438.351C1327.21 438 1326.73 437.803 1326.24 437.803ZM1324.37 451.772H1318.38V441.546H1324.37V451.772Z" fill="#70695F"/>
<path d="M1345.75 437.803H1336.02C1335.53 437.803 1335.05 438 1334.7 438.351C1334.35 438.702 1334.15 439.178 1334.15 439.675V453.674C1334.15 454.17 1334.35 454.646 1334.7 454.997C1335.05 455.348 1335.53 455.545 1336.02 455.545H1345.75C1346 455.547 1346.25 455.5 1346.47 455.407C1346.7 455.314 1346.91 455.176 1347.09 455.002C1347.26 454.828 1347.4 454.621 1347.5 454.393C1347.59 454.165 1347.64 453.921 1347.64 453.674V439.675C1347.64 439.428 1347.59 439.183 1347.5 438.955C1347.4 438.727 1347.26 438.52 1347.09 438.346C1346.91 438.172 1346.7 438.035 1346.47 437.941C1346.25 437.848 1346 437.801 1345.75 437.803ZM1343.9 451.772H1337.91V441.546H1343.9V451.772Z" fill="#70695F"/>
<path d="M1453.11 360.975H1397.09V270.35C1397.09 269.853 1396.9 269.377 1396.54 269.026C1396.19 268.675 1395.72 268.478 1395.22 268.478H1364.61C1364.18 268.477 1363.76 268.628 1363.42 268.905L1347 282.439C1346.79 282.614 1346.62 282.835 1346.5 283.085C1346.38 283.335 1346.32 283.608 1346.32 283.884V313.079H1286.53C1286.04 313.079 1285.56 313.277 1285.21 313.628C1284.86 313.979 1284.66 314.455 1284.66 314.951V375.625H1246.38C1245.89 375.625 1245.41 375.822 1245.06 376.173C1244.71 376.524 1244.51 377 1244.51 377.496V392.595H1240.38V388.478C1240.38 387.982 1240.18 387.506 1239.83 387.155C1239.48 386.804 1239.01 386.607 1238.51 386.607H1222.87C1222.38 386.607 1221.9 386.804 1221.55 387.155C1221.2 387.506 1221 387.982 1221 388.478V442.04C1221 442.286 1221.05 442.53 1221.14 442.758C1221.23 442.985 1221.37 443.192 1221.55 443.366C1221.72 443.54 1221.93 443.678 1222.15 443.771C1222.38 443.865 1222.63 443.913 1222.87 443.912H1238.51C1238.76 443.913 1239 443.865 1239.23 443.771C1239.45 443.678 1239.66 443.54 1239.84 443.366C1240.01 443.192 1240.15 442.985 1240.24 442.758C1240.33 442.53 1240.38 442.286 1240.38 442.04V437.706H1244.51V508.583C1244.51 509.079 1244.71 509.555 1245.06 509.906C1245.41 510.257 1245.89 510.454 1246.38 510.454C1246.88 510.454 1247.36 510.257 1247.71 509.906C1248.06 509.555 1248.26 509.079 1248.26 508.583V379.353H1355.42V508.568C1355.42 509.064 1355.62 509.54 1355.97 509.891C1356.32 510.242 1356.79 510.439 1357.29 510.439C1357.79 510.439 1358.26 510.242 1358.61 509.891C1358.96 509.54 1359.16 509.064 1359.16 508.568V377.481C1359.16 376.985 1358.96 376.509 1358.61 376.158C1358.26 375.807 1357.79 375.61 1357.29 375.61H1288.42V316.807H1348.21C1348.71 316.807 1349.18 316.61 1349.53 316.259C1349.88 315.908 1350.08 315.432 1350.08 314.936V284.76L1365.29 272.221H1393.36V360.975H1380.58C1380.08 360.975 1379.61 361.172 1379.26 361.523C1378.9 361.874 1378.71 362.35 1378.71 362.846V503.582C1378.71 504.079 1378.9 504.555 1379.26 504.906C1379.61 505.257 1380.08 505.454 1380.58 505.454C1381.07 505.454 1381.55 505.257 1381.9 504.906C1382.25 504.555 1382.45 504.079 1382.45 503.582V364.718H1451.24V503.582C1451.24 504.079 1451.44 504.555 1451.79 504.906C1452.14 505.257 1452.61 505.454 1453.11 505.454C1453.61 505.454 1454.08 505.257 1454.43 504.906C1454.78 504.555 1454.98 504.079 1454.98 503.582V362.846C1454.98 362.35 1454.78 361.874 1454.43 361.523C1454.08 361.172 1453.61 360.975 1453.11 360.975ZM1236.64 440.154H1224.74V390.335H1236.64V440.154ZM1240.38 433.948V396.323H1244.51V433.948H1240.38Z" fill="#70695F"/>
<path d="M716.23 419.931H719.082C720.386 419.931 721.637 419.417 722.56 418.502C723.482 417.587 724 416.347 724 415.053C724 413.759 723.482 412.518 722.56 411.603C721.637 410.688 720.386 410.174 719.082 410.174H716.23C715.847 410.173 715.466 410.218 715.095 410.309V403.876C715.095 403.379 714.896 402.902 714.541 402.55C714.186 402.198 713.705 402 713.203 402H705.804C705.302 402 704.821 402.198 704.467 402.55C704.112 402.902 703.913 403.379 703.913 403.876V410.309C703.541 410.218 703.16 410.173 702.778 410.174H699.918C698.614 410.174 697.363 410.688 696.44 411.603C695.518 412.518 695 413.759 695 415.053C695 416.347 695.518 417.587 696.44 418.502C697.363 419.417 698.614 419.931 699.918 419.931H702.778C703.16 419.929 703.541 419.884 703.913 419.796V424.487C703.541 424.396 703.16 424.351 702.778 424.352H699.918C698.614 424.352 697.363 424.866 696.44 425.781C695.518 426.696 695 427.937 695 429.231C695 430.525 695.518 431.766 696.44 432.681C697.363 433.596 698.614 434.11 699.918 434.11H702.778C703.155 434.109 703.53 434.066 703.897 433.982V500.124C703.897 500.621 704.097 501.098 704.451 501.45C704.806 501.802 705.287 502 705.789 502H713.188C713.69 502 714.171 501.802 714.526 501.45C714.881 501.098 715.08 500.621 715.08 500.124V433.982C715.452 434.07 715.832 434.115 716.215 434.117H719.067C720.371 434.117 721.622 433.603 722.544 432.688C723.467 431.773 723.985 430.533 723.985 429.239C723.985 427.945 723.467 426.704 722.544 425.789C721.622 424.874 720.371 424.36 719.067 424.36H716.23C715.847 424.358 715.466 424.404 715.095 424.495V419.796C715.467 419.884 715.848 419.929 716.23 419.931ZM716.23 413.927H719.082C719.383 413.927 719.672 414.045 719.885 414.257C720.097 414.468 720.217 414.754 720.217 415.053C720.217 415.351 720.097 415.638 719.885 415.849C719.672 416.06 719.383 416.179 719.082 416.179H716.23C715.929 416.179 715.64 416.06 715.427 415.849C715.215 415.638 715.095 415.351 715.095 415.053C715.095 414.754 715.215 414.468 715.427 414.257C715.64 414.045 715.929 413.927 716.23 413.927ZM707.68 405.753H711.297V464.711H707.68V405.753ZM711.297 477.809H707.68V468.464H711.297V477.809ZM702.763 416.148H699.903C699.602 416.148 699.313 416.03 699.1 415.819C698.887 415.608 698.768 415.321 698.768 415.023C698.768 414.724 698.887 414.438 699.1 414.226C699.313 414.015 699.602 413.897 699.903 413.897H702.763C703.064 413.897 703.352 414.015 703.565 414.226C703.778 414.438 703.897 414.724 703.897 415.023C703.897 415.321 703.778 415.608 703.565 415.819C703.352 416.03 703.064 416.148 702.763 416.148ZM702.763 430.327H699.903C699.602 430.327 699.313 430.208 699.1 429.997C698.887 429.786 698.768 429.5 698.768 429.201C698.768 428.902 698.887 428.616 699.1 428.405C699.313 428.194 699.602 428.075 699.903 428.075H702.763C703.064 428.075 703.352 428.194 703.565 428.405C703.778 428.616 703.897 428.902 703.897 429.201C703.897 429.5 703.778 429.786 703.565 429.997C703.352 430.208 703.064 430.327 702.763 430.327ZM707.68 498.21V481.592H711.297V498.24L707.68 498.21ZM716.215 428.075H719.067C719.368 428.075 719.657 428.194 719.87 428.405C720.082 428.616 720.202 428.902 720.202 429.201C720.202 429.5 720.082 429.786 719.87 429.997C719.657 430.208 719.368 430.327 719.067 430.327H716.23C715.929 430.327 715.64 430.208 715.427 429.997C715.215 429.786 715.095 429.5 715.095 429.201C715.095 428.902 715.215 428.616 715.427 428.405C715.64 428.194 715.929 428.075 716.23 428.075H716.215Z" fill="#70695F"/>
<path d="M1437.23 419.931H1440.08C1441.39 419.931 1442.64 419.417 1443.56 418.502C1444.48 417.587 1445 416.347 1445 415.053C1445 413.759 1444.48 412.518 1443.56 411.603C1442.64 410.688 1441.39 410.174 1440.08 410.174H1437.23C1436.85 410.173 1436.47 410.218 1436.09 410.309V403.876C1436.09 403.379 1435.9 402.902 1435.54 402.55C1435.19 402.198 1434.71 402 1434.2 402H1426.8C1426.3 402 1425.82 402.198 1425.47 402.55C1425.11 402.902 1424.91 403.379 1424.91 403.876V410.309C1424.54 410.218 1424.16 410.173 1423.78 410.174H1420.92C1419.61 410.174 1418.36 410.688 1417.44 411.603C1416.52 412.518 1416 413.759 1416 415.053C1416 416.347 1416.52 417.587 1417.44 418.502C1418.36 419.417 1419.61 419.931 1420.92 419.931H1423.78C1424.16 419.929 1424.54 419.884 1424.91 419.796V424.487C1424.54 424.396 1424.16 424.351 1423.78 424.352H1420.92C1419.61 424.352 1418.36 424.866 1417.44 425.781C1416.52 426.696 1416 427.937 1416 429.231C1416 430.525 1416.52 431.766 1417.44 432.681C1418.36 433.596 1419.61 434.11 1420.92 434.11H1423.78C1424.15 434.109 1424.53 434.066 1424.9 433.982V500.124C1424.9 500.621 1425.1 501.098 1425.45 501.45C1425.81 501.802 1426.29 502 1426.79 502H1434.19C1434.69 502 1435.17 501.802 1435.53 501.45C1435.88 501.098 1436.08 500.621 1436.08 500.124V433.982C1436.45 434.07 1436.83 434.115 1437.21 434.117H1440.07C1441.37 434.117 1442.62 433.603 1443.54 432.688C1444.47 431.773 1444.98 430.533 1444.98 429.239C1444.98 427.945 1444.47 426.704 1443.54 425.789C1442.62 424.874 1441.37 424.36 1440.07 424.36H1437.23C1436.85 424.358 1436.47 424.404 1436.09 424.495V419.796C1436.47 419.884 1436.85 419.929 1437.23 419.931ZM1437.23 413.927H1440.08C1440.38 413.927 1440.67 414.045 1440.88 414.257C1441.1 414.468 1441.22 414.754 1441.22 415.053C1441.22 415.351 1441.1 415.638 1440.88 415.849C1440.67 416.06 1440.38 416.179 1440.08 416.179H1437.23C1436.93 416.179 1436.64 416.06 1436.43 415.849C1436.21 415.638 1436.09 415.351 1436.09 415.053C1436.09 414.754 1436.21 414.468 1436.43 414.257C1436.64 414.045 1436.93 413.927 1437.23 413.927ZM1428.68 405.753H1432.3V464.711H1428.68V405.753ZM1432.3 477.809H1428.68V468.464H1432.3V477.809ZM1423.76 416.148H1420.9C1420.6 416.148 1420.31 416.03 1420.1 415.819C1419.89 415.608 1419.77 415.321 1419.77 415.023C1419.77 414.724 1419.89 414.438 1420.1 414.226C1420.31 414.015 1420.6 413.897 1420.9 413.897H1423.76C1424.06 413.897 1424.35 414.015 1424.57 414.226C1424.78 414.438 1424.9 414.724 1424.9 415.023C1424.9 415.321 1424.78 415.608 1424.57 415.819C1424.35 416.03 1424.06 416.148 1423.76 416.148ZM1423.76 430.327H1420.9C1420.6 430.327 1420.31 430.208 1420.1 429.997C1419.89 429.786 1419.77 429.5 1419.77 429.201C1419.77 428.902 1419.89 428.616 1420.1 428.405C1420.31 428.194 1420.6 428.075 1420.9 428.075H1423.76C1424.06 428.075 1424.35 428.194 1424.57 428.405C1424.78 428.616 1424.9 428.902 1424.9 429.201C1424.9 429.5 1424.78 429.786 1424.57 429.997C1424.35 430.208 1424.06 430.327 1423.76 430.327ZM1428.68 498.21V481.592H1432.3V498.24L1428.68 498.21ZM1437.21 428.075H1440.07C1440.37 428.075 1440.66 428.194 1440.87 428.405C1441.08 428.616 1441.2 428.902 1441.2 429.201C1441.2 429.5 1441.08 429.786 1440.87 429.997C1440.66 430.208 1440.37 430.327 1440.07 430.327H1437.23C1436.93 430.327 1436.64 430.208 1436.43 429.997C1436.21 429.786 1436.09 429.5 1436.09 429.201C1436.09 428.902 1436.21 428.616 1436.43 428.405C1436.64 428.194 1436.93 428.075 1437.23 428.075H1437.21Z" fill="#70695F"/>
<path d="M1993.48 512.991C1993.27 512.992 1993.05 512.929 1992.85 512.808C1992.65 512.687 1992.47 512.51 1992.33 512.288C1991.03 510.338 1864.81 317.128 1848.97 293.205C1844.42 286.335 1839.65 282.952 1834.75 283.146C1826.82 283.453 1821.11 293.012 1821.04 293.108C1820.98 293.205 1820.97 293.223 1820.94 293.275C1820.06 294.479 1732.77 414.049 1718.49 431.901C1714.96 436.294 1711.34 438.253 1707.75 437.682C1702.46 436.856 1699.2 430.847 1698.81 430.091C1697.78 428.334 1669.26 378.969 1649.11 351.171C1630.22 325.123 1609.38 350.17 1608.51 351.251L1608.46 351.312L1465.53 512.517C1465.22 512.87 1464.81 513.04 1464.4 512.99C1464 512.941 1463.62 512.676 1463.36 512.253C1463.09 511.827 1462.97 511.277 1463.01 510.725C1463.04 510.173 1463.24 509.664 1463.56 509.31L1606.43 348.141C1607.47 346.893 1630.67 319.834 1651.28 348.264C1671.89 376.693 1700.94 427.078 1701.23 427.588L1701.3 427.702C1701.3 427.702 1703.98 432.929 1708.09 433.553C1710.76 433.966 1713.54 432.384 1716.36 428.853C1730.46 411.282 1816.08 293.969 1818.67 290.429C1819.36 289.278 1825.63 279.341 1834.63 279.008C1840.47 278.806 1846.06 282.636 1851.24 290.429C1867.09 314.36 1993.33 507.588 1994.61 509.539C1994.81 509.839 1994.94 510.21 1994.98 510.607C1995.03 511.004 1994.99 511.409 1994.86 511.775C1994.74 512.141 1994.54 512.451 1994.29 512.668C1994.05 512.886 1993.75 513.001 1993.46 513L1993.48 512.991Z" fill="#70695F"/>
<path d="M349.46 229.552H284.467C283.971 229.552 283.495 229.749 283.144 230.1C282.793 230.451 282.595 230.927 282.595 231.423V250.183H249.657C249.161 250.183 248.685 250.38 248.334 250.731C247.983 251.082 247.786 251.558 247.786 252.055V500.035C247.786 500.531 247.983 501.007 248.334 501.358C248.685 501.709 249.161 501.906 249.657 501.906H349.46C349.956 501.906 350.432 501.709 350.783 501.358C351.134 501.007 351.332 500.531 351.332 500.035V231.423C351.332 230.927 351.134 230.451 350.783 230.1C350.432 229.749 349.956 229.552 349.46 229.552ZM347.589 428.738H289.46V423.176H347.604L347.589 428.738ZM347.589 409.215H289.46V403.645H347.604L347.589 409.215ZM347.589 389.699H289.46V384.122H347.604L347.589 389.699ZM347.589 370.176H289.46V364.606H347.604L347.589 370.176ZM347.589 350.66H289.46V345.09H347.604L347.589 350.66ZM347.589 331.144H289.46V325.567H347.604L347.589 331.144ZM347.589 311.62H289.46V306.051H347.604L347.589 311.62ZM347.589 292.104H289.46V286.527H347.604L347.589 292.104ZM347.589 272.581H289.46V267.012H347.604L347.589 272.581ZM286.338 233.295H347.589V250.183H286.338V233.295ZM251.514 498.163V253.926H347.589V263.269H287.574C287.077 263.269 286.601 263.466 286.25 263.817C285.899 264.168 285.702 264.644 285.702 265.14V274.453C285.702 274.949 285.899 275.425 286.25 275.776C286.601 276.127 287.077 276.324 287.574 276.324H347.589V282.784H287.574C287.327 282.786 287.082 282.837 286.855 282.934C286.628 283.031 286.422 283.172 286.249 283.348C286.077 283.525 285.941 283.734 285.849 283.964C285.758 284.194 285.713 284.439 285.717 284.686V294.006C285.717 294.502 285.914 294.978 286.265 295.329C286.616 295.68 287.092 295.877 287.589 295.877H347.604V302.338H287.574C287.09 302.341 286.627 302.532 286.281 302.87C285.934 303.208 285.733 303.666 285.717 304.149V313.462C285.717 313.958 285.914 314.434 286.265 314.785C286.616 315.136 287.092 315.333 287.589 315.333H347.604V321.794H287.574C287.077 321.794 286.601 321.991 286.25 322.342C285.899 322.693 285.702 323.169 285.702 323.665V332.985C285.702 333.482 285.899 333.958 286.25 334.309C286.601 334.66 287.077 334.857 287.574 334.857H347.589V341.317H287.574C287.328 341.316 287.084 341.364 286.856 341.458C286.629 341.551 286.422 341.689 286.248 341.863C286.074 342.037 285.936 342.244 285.843 342.471C285.749 342.699 285.701 342.943 285.702 343.189V352.501C285.702 352.998 285.899 353.474 286.25 353.825C286.601 354.176 287.077 354.373 287.574 354.373H347.589V360.833H287.574C287.077 360.833 286.601 361.03 286.25 361.381C285.899 361.732 285.702 362.208 285.702 362.705V372.047C285.702 372.543 285.899 373.02 286.25 373.37C286.601 373.721 287.077 373.919 287.574 373.919H347.589V380.379H287.574C287.077 380.379 286.601 380.576 286.25 380.927C285.899 381.278 285.702 381.754 285.702 382.251V391.571C285.702 392.067 285.899 392.543 286.25 392.894C286.601 393.245 287.077 393.442 287.574 393.442H347.589V399.902H287.574C287.077 399.902 286.601 400.1 286.25 400.451C285.899 400.801 285.702 401.278 285.702 401.774V411.086C285.702 411.583 285.899 412.059 286.25 412.41C286.601 412.761 287.077 412.958 287.574 412.958H347.589V419.433H287.574C287.077 419.433 286.601 419.63 286.25 419.981C285.899 420.332 285.702 420.808 285.702 421.305V430.625C285.702 431.121 285.899 431.597 286.25 431.948C286.601 432.299 287.077 432.496 287.574 432.496H347.589V438.957H287.574C287.328 438.956 287.084 439.003 286.856 439.097C286.629 439.191 286.422 439.329 286.248 439.503C286.074 439.677 285.936 439.883 285.843 440.111C285.749 440.338 285.701 440.582 285.702 440.828V450.126C285.702 450.622 285.899 451.098 286.25 451.449C286.601 451.8 287.077 451.997 287.574 451.997H347.589V498.163H251.514ZM347.589 448.254H289.46V442.685H347.604L347.589 448.254Z" fill="#70695F"/>
<path d="M272.714 263.269H258.767C258.271 263.269 257.795 263.466 257.444 263.817C257.093 264.168 256.896 264.644 256.896 265.14V274.453C256.896 274.949 257.093 275.425 257.444 275.776C257.795 276.127 258.271 276.324 258.767 276.324H272.744C273.24 276.324 273.716 276.127 274.067 275.776C274.418 275.425 274.615 274.949 274.615 274.453V265.14C274.615 264.892 274.566 264.646 274.47 264.417C274.374 264.188 274.234 263.98 274.057 263.806C273.88 263.632 273.67 263.495 273.439 263.402C273.209 263.31 272.962 263.265 272.714 263.269ZM270.842 272.581H260.609V267.012H270.842V272.581Z" fill="#70695F"/>
<path d="M272.714 282.784H258.767C258.271 282.784 257.795 282.982 257.444 283.333C257.093 283.684 256.896 284.16 256.896 284.656V293.976C256.896 294.472 257.093 294.948 257.444 295.299C257.795 295.65 258.271 295.847 258.767 295.847H272.744C273.24 295.847 273.716 295.65 274.067 295.299C274.418 294.948 274.615 294.472 274.615 293.976V284.686C274.619 284.435 274.573 284.186 274.479 283.953C274.385 283.721 274.245 283.51 274.067 283.332C273.89 283.155 273.679 283.015 273.446 282.921C273.214 282.827 272.965 282.78 272.714 282.784ZM270.842 292.104H260.609V286.527H270.842V292.104Z" fill="#70695F"/>
<path d="M272.714 302.308H258.768C258.271 302.308 257.795 302.505 257.444 302.856C257.093 303.207 256.896 303.683 256.896 304.179V313.492C256.894 313.739 256.941 313.984 257.034 314.213C257.127 314.441 257.265 314.65 257.439 314.825C257.613 315 257.82 315.139 258.048 315.234C258.276 315.329 258.521 315.378 258.768 315.378H272.744C273.24 315.378 273.716 315.181 274.067 314.83C274.418 314.479 274.615 314.003 274.615 313.507V304.149C274.611 303.904 274.559 303.661 274.461 303.435C274.364 303.21 274.223 303.006 274.046 302.835C273.87 302.664 273.661 302.529 273.432 302.439C273.204 302.348 272.96 302.304 272.714 302.308ZM270.842 311.635H260.609V306.066H270.842V311.635Z" fill="#70695F"/>
<path d="M272.714 321.824H258.767C258.271 321.824 257.795 322.021 257.444 322.372C257.093 322.723 256.896 323.199 256.896 323.695V333.015C256.896 333.512 257.093 333.988 257.444 334.339C257.795 334.69 258.271 334.887 258.767 334.887H272.744C273.24 334.887 273.716 334.69 274.067 334.339C274.418 333.988 274.615 333.512 274.615 333.015V323.695C274.615 323.447 274.566 323.201 274.47 322.972C274.374 322.743 274.234 322.535 274.057 322.361C273.88 322.187 273.67 322.05 273.439 321.958C273.209 321.865 272.962 321.82 272.714 321.824ZM270.842 331.144H260.609V325.567H270.842V331.144Z" fill="#70695F"/>
<path d="M272.714 341.347H258.768C258.521 341.346 258.278 341.394 258.05 341.488C257.823 341.581 257.616 341.719 257.442 341.893C257.268 342.067 257.13 342.274 257.036 342.501C256.943 342.729 256.895 342.973 256.896 343.219V352.531C256.896 353.028 257.093 353.504 257.444 353.855C257.795 354.206 258.271 354.403 258.768 354.403H272.744C273.24 354.403 273.716 354.206 274.067 353.855C274.418 353.504 274.615 353.028 274.615 352.531V343.219C274.616 342.97 274.568 342.724 274.472 342.494C274.377 342.265 274.236 342.057 274.059 341.882C273.882 341.708 273.671 341.571 273.44 341.479C273.209 341.387 272.962 341.342 272.714 341.347ZM270.842 350.66H260.609V345.09H270.842V350.66Z" fill="#70695F"/>
<path d="M272.714 360.863H258.767C258.271 360.863 257.795 361.06 257.444 361.411C257.093 361.762 256.896 362.238 256.896 362.735V372.047C256.896 372.543 257.093 373.019 257.444 373.37C257.795 373.721 258.271 373.919 258.767 373.919H272.744C273.24 373.919 273.716 373.721 274.067 373.37C274.418 373.019 274.615 372.543 274.615 372.047V362.735C274.615 362.486 274.566 362.24 274.47 362.011C274.374 361.782 274.234 361.575 274.057 361.4C273.88 361.226 273.67 361.089 273.439 360.997C273.209 360.905 272.962 360.859 272.714 360.863ZM270.842 370.176H260.609V364.606H270.842V370.176Z" fill="#70695F"/>
<path d="M272.714 380.379H258.767C258.271 380.379 257.795 380.576 257.444 380.927C257.093 381.278 256.896 381.754 256.896 382.251V391.571C256.896 392.067 257.093 392.543 257.444 392.894C257.795 393.245 258.271 393.442 258.767 393.442H272.744C273.24 393.442 273.716 393.245 274.067 392.894C274.418 392.543 274.615 392.067 274.615 391.571V382.251C274.615 382.002 274.566 381.756 274.47 381.527C274.374 381.298 274.234 381.091 274.057 380.917C273.88 380.742 273.67 380.605 273.439 380.513C273.209 380.421 272.962 380.375 272.714 380.379ZM270.842 389.699H260.609V384.122H270.842V389.699Z" fill="#70695F"/>
<path d="M272.714 399.902H258.767C258.271 399.902 257.795 400.1 257.444 400.451C257.093 400.802 256.896 401.278 256.896 401.774V411.086C256.896 411.583 257.093 412.059 257.444 412.41C257.795 412.761 258.271 412.958 258.767 412.958H272.744C273.24 412.958 273.716 412.761 274.067 412.41C274.418 412.059 274.615 411.583 274.615 411.086V401.774C274.615 401.526 274.566 401.28 274.47 401.051C274.374 400.822 274.234 400.614 274.057 400.44C273.88 400.266 273.67 400.129 273.439 400.036C273.209 399.944 272.962 399.898 272.714 399.902ZM270.842 409.215H260.609V403.645H270.842V409.215Z" fill="#70695F"/>
<path d="M272.714 419.433H258.767C258.271 419.433 257.795 419.631 257.444 419.981C257.093 420.332 256.896 420.808 256.896 421.305V430.625C256.896 431.121 257.093 431.597 257.444 431.948C257.795 432.299 258.271 432.496 258.767 432.496H272.744C273.24 432.496 273.716 432.299 274.067 431.948C274.418 431.597 274.615 431.121 274.615 430.625V421.29C274.613 421.043 274.562 420.799 274.466 420.571C274.369 420.344 274.228 420.138 274.051 419.966C273.875 419.793 273.665 419.657 273.436 419.566C273.206 419.474 272.961 419.429 272.714 419.433ZM270.842 428.753H260.609V423.176H270.842V428.753Z" fill="#70695F"/>
<path d="M272.714 438.942H258.768C258.521 438.941 258.278 438.988 258.05 439.082C257.823 439.176 257.616 439.314 257.442 439.488C257.268 439.662 257.13 439.868 257.036 440.096C256.943 440.323 256.895 440.567 256.896 440.813V450.126C256.896 450.622 257.093 451.098 257.444 451.449C257.795 451.8 258.271 451.997 258.768 451.997H272.744C273.24 451.997 273.716 451.8 274.067 451.449C274.418 451.098 274.615 450.622 274.615 450.126V440.813C274.616 440.565 274.568 440.318 274.472 440.089C274.377 439.859 274.236 439.651 274.059 439.477C273.882 439.302 273.671 439.165 273.44 439.073C273.209 438.981 272.962 438.937 272.714 438.942ZM270.842 448.254H260.609V442.685H270.842V448.254Z" fill="#70695F"/>
<path d="M843.745 401.524L801.428 387.096C801.148 387.001 800.85 386.976 800.558 387.023C800.266 387.07 799.99 387.187 799.752 387.365C799.514 387.544 799.321 387.778 799.191 388.047C799.06 388.317 798.995 388.615 799 388.916V526.128C799.002 526.625 799.198 527.101 799.543 527.452C799.889 527.803 800.357 528 800.845 528H843.155C843.644 528 844.114 527.802 844.46 527.45C844.806 527.097 845 526.619 845 526.12V403.305C844.999 402.912 844.878 402.529 844.653 402.21C844.428 401.89 844.111 401.65 843.745 401.524ZM841.31 489.365H802.69V482.598H841.31V489.365ZM802.69 416.943H841.31V423.709H802.69V416.943ZM841.31 427.468V435.069H802.69V427.468H841.31ZM841.31 467.48H802.69V460.713H841.31V467.48ZM802.69 456.954V449.354H841.31V456.954H802.69ZM841.31 445.595H802.69V438.828H841.31V445.595ZM802.69 478.839V471.239H841.31V478.839H802.69ZM841.31 404.659V413.184H802.69V391.494L841.31 404.659ZM802.69 524.241V493.116H841.31V524.241H802.69Z" fill="#70695F"/>
<path d="M368.898 390.056C368.609 390.062 368.325 389.985 368.079 389.834C367.834 389.682 367.637 389.463 367.513 389.203C361.457 376.813 363.321 367.344 363.403 366.947C363.486 366.55 363.722 366.202 364.061 365.979C364.4 365.757 364.814 365.678 365.211 365.76C365.608 365.843 365.956 366.079 366.179 366.419C366.401 366.758 366.48 367.171 366.398 367.568C366.398 367.688 364.698 376.491 370.253 387.863C370.374 388.093 370.433 388.351 370.424 388.611C370.415 388.871 370.338 389.125 370.201 389.346C370.064 389.567 369.872 389.749 369.644 389.874C369.415 389.998 369.158 390.061 368.898 390.056Z" fill="#70695F"/>
<path d="M441.969 404.302C452.449 400.985 459.658 395.79 461.335 389.712C461.507 389.576 461.648 389.405 461.746 389.21C467.735 376.768 465.774 367.321 465.684 366.924C465.684 366.864 465.647 366.812 465.632 366.752C465.168 356.436 450.248 347.992 429.362 345.245L416.344 284.234V284.174L416.299 284.047C416.283 283.973 416.26 283.901 416.232 283.83C416.232 283.77 416.172 283.718 416.149 283.665L416.06 283.508L415.94 283.358L415.828 283.224L415.685 283.104L415.536 282.992C415.488 282.957 415.438 282.927 415.386 282.902L415.214 282.819C415.149 282.79 415.081 282.768 415.012 282.752L414.877 282.707H414.652H414.495H414.33C414.261 282.7 414.19 282.7 414.121 282.707L413.964 282.76L413.784 282.812L413.589 282.917L413.462 282.984L413.29 283.126L413.178 283.224C413.131 283.27 413.089 283.32 413.05 283.373L412.945 283.508C412.909 283.563 412.876 283.621 412.848 283.68C412.816 283.728 412.789 283.778 412.766 283.83C412.736 283.903 412.714 283.978 412.698 284.055L412.653 284.174V284.212L399.635 345.23C378.435 348.03 363.381 356.691 363.381 367.224C363.439 370.018 364.433 372.712 366.203 374.874C366.203 374.8 366.203 374.725 366.203 374.65C366.323 370.675 365.709 366.288 367.82 363.099C372.551 354.37 392.015 347.603 414.473 347.603C438.989 347.603 459.905 355.643 462.121 365.517C462.543 367.159 462.822 368.835 462.952 370.525C463.018 374.806 462.331 379.066 460.923 383.109C457 373.138 438.016 365.771 414.473 365.771C387.995 365.771 367.251 375.077 367.251 386.957C367.251 394.188 374.962 400.431 386.962 404.264L365.148 506.612C365.096 506.856 365.093 507.107 365.138 507.351C365.184 507.596 365.277 507.829 365.412 508.038C365.548 508.246 365.723 508.426 365.928 508.567C366.133 508.708 366.364 508.807 366.607 508.858C366.74 508.888 366.876 508.903 367.012 508.903C367.445 508.901 367.865 508.752 368.202 508.48C368.54 508.208 368.775 507.829 368.868 507.406L398.153 370.188C408.96 368.406 419.985 368.406 430.792 370.188L460.077 507.406C460.171 507.829 460.405 508.208 460.743 508.48C461.08 508.752 461.5 508.901 461.934 508.903C462.07 508.903 462.205 508.888 462.338 508.858C462.581 508.807 462.812 508.708 463.017 508.567C463.222 508.426 463.397 508.246 463.533 508.038C463.668 507.829 463.762 507.596 463.807 507.351C463.852 507.107 463.849 506.856 463.798 506.612L441.969 404.302ZM403.566 344.811L414.473 293.704L425.38 344.811C421.876 344.481 418.238 344.309 414.495 344.309C410.752 344.309 407.076 344.474 403.566 344.811ZM370.305 386.979C370.305 384.838 371.271 382.772 373.015 380.848C377.582 383.67 383.556 385.984 390.517 387.586L387.613 401.218C377.185 397.894 370.305 392.721 370.305 386.979ZM391.266 384.329C385.799 383.135 380.529 381.171 375.613 378.498C379.828 375.309 386.303 372.659 394.088 370.944L391.266 384.329ZM441.34 401.255L438.428 387.616C445.412 385.999 451.401 383.678 455.975 380.878C457.616 382.508 458.581 384.698 458.677 387.009C458.64 392.721 451.783 397.901 441.317 401.255H441.34ZM453.4 378.498C448.462 381.176 443.169 383.14 437.679 384.329L434.827 370.967C442.657 372.681 449.155 375.331 453.4 378.498Z" fill="#70695F"/>
<path d="M414.473 346.675C413.976 346.675 413.5 346.478 413.149 346.127C412.798 345.776 412.601 345.3 412.601 344.803V318.026C412.601 317.53 412.798 317.054 413.149 316.703C413.5 316.352 413.976 316.154 414.473 316.154C414.969 316.154 415.445 316.352 415.796 316.703C416.147 317.054 416.344 317.53 416.344 318.026V344.811C416.342 345.306 416.144 345.78 415.793 346.129C415.443 346.479 414.968 346.675 414.473 346.675Z" fill="#70695F"/>
<path d="M414.473 418.465C414.048 418.465 413.628 418.381 413.236 418.219C412.844 418.056 412.488 417.818 412.188 417.518C411.889 417.217 411.651 416.861 411.49 416.468C411.328 416.076 411.245 415.656 411.246 415.231V369.02C411.246 368.165 411.586 367.344 412.191 366.739C412.796 366.134 413.617 365.794 414.473 365.794C415.328 365.794 416.149 366.134 416.754 366.739C417.359 367.344 417.699 368.165 417.699 369.02V415.231C417.7 415.656 417.617 416.076 417.456 416.468C417.294 416.861 417.056 417.217 416.757 417.518C416.457 417.818 416.101 418.056 415.709 418.219C415.317 418.381 414.897 418.465 414.473 418.465Z" fill="#70695F"/>
<path d="M632.433 247.218H574.761V499.188H632.433V247.218Z" stroke="#70695F" stroke-width="4.25" stroke-linecap="round" stroke-linejoin="round"/>
<path d="M574.761 259.637H545.925V499.188H574.761V259.637Z" stroke="#70695F" stroke-width="4.25" stroke-linecap="round" stroke-linejoin="round"/>
<path d="M661.269 259.637H632.433V499.188H661.269V259.637Z" stroke="#70695F" stroke-width="4.25" stroke-linecap="round" stroke-linejoin="round"/>
<path d="M625.889 234.792H579.978V247.211H625.889V234.792Z" stroke="#70695F" stroke-width="4.25" stroke-linecap="round" stroke-linejoin="round"/>
<path d="M632.433 267.071H574.761V276.383H632.433V267.071Z" stroke="#70695F" stroke-width="4.25" stroke-linecap="round" stroke-linejoin="round"/>
<path d="M661.269 280.269H632.433V289.581H661.269V280.269Z" stroke="#70695F" stroke-width="4.25" stroke-linecap="round" stroke-linejoin="round"/>
<path d="M574.761 280.269H545.925V289.581H574.761V280.269Z" stroke="#70695F" stroke-width="4.25" stroke-linecap="round" stroke-linejoin="round"/>
<path d="M661.269 306.657H632.433V315.969H661.269V306.657Z" stroke="#70695F" stroke-width="4.25" stroke-linecap="round" stroke-linejoin="round"/>
<path d="M574.761 306.657H545.925V315.969H574.761V306.657Z" stroke="#70695F" stroke-width="4.25" stroke-linecap="round" stroke-linejoin="round"/>
<path d="M661.269 333.052H632.433V342.365H661.269V333.052Z" stroke="#70695F" stroke-width="4.25" stroke-linecap="round" stroke-linejoin="round"/>
<path d="M574.761 333.052H545.925V342.365H574.761V333.052Z" stroke="#70695F" stroke-width="4.25" stroke-linecap="round" stroke-linejoin="round"/>
<path d="M661.269 359.448H632.433V368.76H661.269V359.448Z" stroke="#70695F" stroke-width="4.25" stroke-linecap="round" stroke-linejoin="round"/>
<path d="M574.761 359.448H545.925V368.76H574.761V359.448Z" stroke="#70695F" stroke-width="4.25" stroke-linecap="round" stroke-linejoin="round"/>
<path d="M661.269 385.843H632.433V395.156H661.269V385.843Z" stroke="#70695F" stroke-width="4.25" stroke-linecap="round" stroke-linejoin="round"/>
<path d="M574.761 385.843H545.925V395.156H574.761V385.843Z" stroke="#70695F" stroke-width="4.25" stroke-linecap="round" stroke-linejoin="round"/>
<path d="M661.269 412.239H632.433V421.551H661.269V412.239Z" stroke="#70695F" stroke-width="4.25" stroke-linecap="round" stroke-linejoin="round"/>
<path d="M574.761 412.239H545.925V421.551H574.761V412.239Z" stroke="#70695F" stroke-width="4.25" stroke-linecap="round" stroke-linejoin="round"/>
<path d="M661.269 438.634H632.433V447.947H661.269V438.634Z" stroke="#70695F" stroke-width="4.25" stroke-linecap="round" stroke-linejoin="round"/>
<path d="M574.761 438.634H545.925V447.947H574.761V438.634Z" stroke="#70695F" stroke-width="4.25" stroke-linecap="round" stroke-linejoin="round"/>
<path d="M632.433 293.459H574.761V302.772H632.433V293.459Z" stroke="#70695F" stroke-width="4.25" stroke-linecap="round" stroke-linejoin="round"/>
<path d="M632.433 319.855H574.761V329.167H632.433V319.855Z" stroke="#70695F" stroke-width="4.25" stroke-linecap="round" stroke-linejoin="round"/>
<path d="M632.433 346.25H574.761V355.563H632.433V346.25Z" stroke="#70695F" stroke-width="4.25" stroke-linecap="round" stroke-linejoin="round"/>
<path d="M632.433 372.646H574.761V381.958H632.433V372.646Z" stroke="#70695F" stroke-width="4.25" stroke-linecap="round" stroke-linejoin="round"/>
<path d="M632.433 399.041H574.761V408.354H632.433V399.041Z" stroke="#70695F" stroke-width="4.25" stroke-linecap="round" stroke-linejoin="round"/>
<path d="M632.433 425.437H574.761V434.749H632.433V425.437Z" stroke="#70695F" stroke-width="4.25" stroke-linecap="round" stroke-linejoin="round"/>
<path d="M620.897 477.007H586.296V499.188H620.897V477.007Z" stroke="#70695F" stroke-width="5" stroke-linecap="round" stroke-linejoin="round"/>
<path d="M658.868 159.003C662.884 154.987 665.14 149.54 665.14 143.861C665.14 138.182 662.884 132.735 658.868 128.719C662.882 132.733 668.326 134.989 674.003 134.991C679.68 134.993 685.125 132.741 689.142 128.729C685.131 132.746 682.878 138.191 682.88 143.868C682.882 149.545 685.138 154.989 689.152 159.003C687.164 157.015 684.803 155.437 682.205 154.361C679.607 153.285 676.822 152.731 674.01 152.731C671.198 152.731 668.413 153.285 665.815 154.361C663.217 155.437 660.857 157.015 658.868 159.003Z" stroke="#70695F" stroke-width="3" stroke-linecap="round" stroke-linejoin="round"/>
<path d="M160.866 51.4365C163.66 48.6422 165.23 44.8524 165.23 40.9006C165.23 36.9489 163.66 33.159 160.866 30.3648C163.659 33.1578 167.447 34.7275 171.397 34.7289C175.347 34.7302 179.136 33.163 181.931 30.3718C179.14 33.1668 177.573 36.9556 177.574 40.9056C177.575 44.8556 179.145 48.6435 181.938 51.4365C180.554 50.0529 178.912 48.9554 177.104 48.2066C175.296 47.4578 173.359 47.0724 171.402 47.0724C169.445 47.0724 167.508 47.4578 165.7 48.2066C163.892 48.9554 162.25 50.0529 160.866 51.4365Z" stroke="#70695F" stroke-width="3" stroke-linecap="round" stroke-linejoin="round"/>
<path d="M1356.08 174.436C1359.77 170.742 1361.85 165.731 1361.85 160.505C1361.85 155.28 1359.77 150.269 1356.08 146.575C1359.77 150.268 1364.78 152.343 1370 152.345C1375.23 152.347 1380.24 150.275 1383.93 146.584C1380.24 150.28 1378.17 155.289 1378.17 160.512C1378.17 165.735 1380.25 170.743 1383.94 174.436C1382.11 172.607 1379.94 171.156 1377.55 170.166C1375.16 169.175 1372.6 168.666 1370.01 168.666C1367.42 168.666 1364.86 169.176 1362.47 170.166C1360.08 171.156 1357.91 172.607 1356.08 174.436Z" stroke="#70695F" stroke-width="3" stroke-linecap="round" stroke-linejoin="round"/>
<path d="M789 502.115V383.329H752.747V298H722.903V318.173H702.565L685.099 332.579V398.842H661V504" stroke="#70695F" stroke-width="4.25" stroke-linecap="round" stroke-linejoin="round"/>
<path d="M626.4 191.151C626.4 187.2 624.83 183.41 622.036 180.615C619.242 177.821 615.452 176.251 611.5 176.251C615.45 176.251 619.238 174.683 622.032 171.891C624.826 169.099 626.397 165.311 626.4 161.361C626.403 165.311 627.974 169.099 630.768 171.891C633.562 174.683 637.35 176.251 641.3 176.251C639.343 176.251 637.406 176.637 635.598 177.386C633.79 178.134 632.148 179.232 630.764 180.615C629.381 181.999 628.283 183.642 627.534 185.449C626.785 187.257 626.4 189.195 626.4 191.151Z" stroke="#70695F" stroke-width="3" stroke-linecap="round" stroke-linejoin="round"/>
<path d="M77.0067 104.2C77.0067 98.9754 74.9311 93.9643 71.2364 90.2697C67.5418 86.575 62.5307 84.4994 57.3057 84.4994C62.5284 84.4994 67.5374 82.4255 71.2317 78.7337C74.926 75.0419 77.0032 70.0343 77.0067 64.8115C77.0102 70.0343 79.0874 75.0419 82.7817 78.7337C86.476 82.4255 91.485 84.4994 96.7078 84.4994C94.1206 84.4994 91.5588 85.0089 89.1685 85.999C86.7783 86.9891 84.6064 88.4403 82.777 90.2697C80.9476 92.0991 79.4965 94.2709 78.5064 96.6611C77.5163 99.0514 77.0067 101.613 77.0067 104.2Z" stroke="#70695F" stroke-width="3" stroke-linecap="round" stroke-linejoin="round"/>
<path d="M1823.88 70.5165C1823.87 60.6955 1826.13 50.9918 1830.5 42.0852C1834.88 33.1785 1841.26 25.2845 1849.19 18.9561C1838.8 10.6451 1826.12 5.3178 1812.64 3.60225C1799.15 1.88671 1785.43 3.85438 1773.09 9.27336C1760.75 14.6923 1750.31 23.3367 1742.99 34.1875C1735.67 45.0384 1731.78 57.6433 1731.78 70.5165C1731.78 83.3897 1735.67 95.9947 1742.99 106.845C1750.31 117.696 1760.75 126.341 1773.09 131.76C1785.43 137.179 1799.15 139.146 1812.64 137.431C1826.12 135.715 1838.8 130.388 1849.19 122.077C1841.26 115.749 1834.88 107.855 1830.5 98.9479C1826.13 90.0413 1823.87 80.3375 1823.88 70.5165Z" stroke="#70695F" stroke-width="5" stroke-linecap="round" stroke-linejoin="round"/>
<path d="M1577.01 164.332C1577.01 156.154 1573.76 148.31 1567.98 142.527C1562.2 136.744 1554.35 133.495 1546.17 133.495C1554.35 133.495 1562.19 130.249 1567.97 124.471C1573.75 118.692 1577 110.854 1577.01 102.68C1577.02 110.854 1580.27 118.692 1586.05 124.471C1591.83 130.249 1599.67 133.495 1607.85 133.495C1603.8 133.495 1599.79 134.293 1596.05 135.843C1592.3 137.392 1588.91 139.664 1586.04 142.527C1583.18 145.391 1580.91 148.79 1579.36 152.531C1577.81 156.273 1577.01 160.282 1577.01 164.332Z" stroke="#70695F" stroke-width="3" stroke-linecap="round" stroke-linejoin="round"/>
<path d="M1711.4 201.796C1711.4 197.844 1709.83 194.054 1707.04 191.26C1704.24 188.466 1700.45 186.896 1696.5 186.896C1700.45 186.896 1704.24 185.327 1707.03 182.535C1709.83 179.743 1711.4 175.956 1711.4 172.006C1711.4 175.956 1712.97 179.743 1715.77 182.535C1718.56 185.327 1722.35 186.896 1726.3 186.896C1724.34 186.896 1722.41 187.281 1720.6 188.03C1718.79 188.779 1717.15 189.876 1715.76 191.26C1714.38 192.644 1713.28 194.286 1712.53 196.094C1711.79 197.902 1711.4 199.839 1711.4 201.796Z" stroke="#70695F" stroke-width="3" stroke-linecap="round" stroke-linejoin="round"/>
<path d="M477.683 456.691C477.571 456.384 477.367 456.119 477.099 455.932C476.831 455.745 476.513 455.645 476.186 455.645C475.859 455.645 475.541 455.745 475.273 455.932C475.005 456.119 474.801 456.384 474.689 456.691L464.208 488.566C464.131 488.804 464.11 489.056 464.149 489.304C464.187 489.551 464.283 489.786 464.428 489.989C464.574 490.192 464.766 490.358 464.988 490.474C465.209 490.59 465.455 490.651 465.706 490.654H474.591V500.581C474.591 501.002 474.759 501.405 475.056 501.703C475.354 502.001 475.758 502.168 476.178 502.168C476.599 502.168 477.003 502.001 477.301 501.703C477.598 501.405 477.765 501.002 477.765 500.581V490.684H486.666C486.916 490.681 487.162 490.62 487.384 490.504C487.606 490.388 487.798 490.222 487.943 490.019C488.089 489.816 488.185 489.581 488.223 489.334C488.262 489.086 488.241 488.834 488.163 488.596L477.683 456.691ZM467.892 487.473L476.186 462.305L484.465 487.503L467.892 487.473Z" fill="#70695F"/>
<path d="M502.537 456.691C502.428 456.38 502.225 456.112 501.957 455.922C501.689 455.732 501.368 455.63 501.039 455.63C500.711 455.63 500.39 455.732 500.122 455.922C499.854 456.112 499.651 456.38 499.542 456.691L489.062 488.566C488.984 488.804 488.964 489.056 489.002 489.304C489.04 489.551 489.136 489.786 489.282 489.989C489.428 490.192 489.619 490.358 489.841 490.474C490.063 490.59 490.309 490.651 490.559 490.654H499.445V500.581C499.473 500.984 499.652 501.361 499.947 501.637C500.243 501.913 500.632 502.066 501.036 502.066C501.44 502.066 501.829 501.913 502.124 501.637C502.419 501.361 502.599 500.984 502.626 500.581V490.684H511.512C511.762 490.681 512.008 490.62 512.23 490.504C512.452 490.388 512.644 490.222 512.789 490.019C512.935 489.816 513.031 489.581 513.069 489.334C513.108 489.086 513.087 488.834 513.01 488.596L502.537 456.691ZM492.752 487.473L501.032 462.275L509.304 487.473H492.752Z" fill="#70695F"/>
<path d="M537.855 488.596L527.375 456.72C527.263 456.414 527.059 456.149 526.791 455.962C526.523 455.775 526.204 455.674 525.878 455.674C525.551 455.674 525.232 455.775 524.965 455.962C524.697 456.149 524.493 456.414 524.381 456.72L513.9 488.596C513.823 488.833 513.802 489.086 513.841 489.334C513.879 489.581 513.975 489.815 514.12 490.019C514.266 490.222 514.458 490.388 514.68 490.504C514.901 490.62 515.147 490.681 515.397 490.684H524.283V500.611C524.283 501.032 524.451 501.435 524.748 501.733C525.046 502.03 525.449 502.198 525.87 502.198C526.291 502.198 526.695 502.03 526.993 501.733C527.29 501.435 527.457 501.032 527.457 500.611V490.684H536.343C536.593 490.681 536.839 490.62 537.061 490.504C537.283 490.388 537.475 490.222 537.62 490.019C537.766 489.815 537.862 489.581 537.9 489.334C537.938 489.086 537.918 488.833 537.84 488.596H537.855ZM517.591 487.503L525.87 462.305L534.15 487.503H517.591Z" fill="#70695F"/>
<path d="M1533.55 456.691C1533.44 456.384 1533.24 456.119 1532.97 455.932C1532.7 455.745 1532.38 455.645 1532.06 455.645C1531.73 455.645 1531.41 455.745 1531.14 455.932C1530.88 456.119 1530.67 456.384 1530.56 456.691L1520.08 488.566C1520 488.804 1519.98 489.056 1520.02 489.304C1520.06 489.551 1520.15 489.786 1520.3 489.989C1520.44 490.192 1520.64 490.358 1520.86 490.474C1521.08 490.59 1521.33 490.651 1521.58 490.654H1530.46V500.581C1530.46 501.002 1530.63 501.405 1530.93 501.703C1531.22 502.001 1531.63 502.168 1532.05 502.168C1532.47 502.168 1532.87 502.001 1533.17 501.703C1533.47 501.405 1533.64 501.002 1533.64 500.581V490.684H1542.54C1542.79 490.681 1543.03 490.62 1543.25 490.504C1543.48 490.388 1543.67 490.222 1543.81 490.019C1543.96 489.816 1544.06 489.581 1544.09 489.334C1544.13 489.086 1544.11 488.834 1544.03 488.596L1533.55 456.691ZM1523.76 487.473L1532.06 462.305L1540.34 487.503L1523.76 487.473Z" fill="#70695F"/>
<path d="M1558.41 456.691C1558.3 456.38 1558.1 456.112 1557.83 455.922C1557.56 455.732 1557.24 455.63 1556.91 455.63C1556.58 455.63 1556.26 455.732 1555.99 455.922C1555.72 456.112 1555.52 456.38 1555.41 456.691L1544.93 488.566C1544.85 488.804 1544.83 489.056 1544.87 489.304C1544.91 489.551 1545.01 489.786 1545.15 489.989C1545.3 490.192 1545.49 490.358 1545.71 490.474C1545.93 490.59 1546.18 490.651 1546.43 490.654H1555.32V500.581C1555.34 500.984 1555.52 501.361 1555.82 501.637C1556.11 501.913 1556.5 502.066 1556.91 502.066C1557.31 502.066 1557.7 501.913 1557.99 501.637C1558.29 501.361 1558.47 500.984 1558.5 500.581V490.684H1567.38C1567.63 490.681 1567.88 490.62 1568.1 490.504C1568.32 490.388 1568.51 490.222 1568.66 490.019C1568.81 489.816 1568.9 489.581 1568.94 489.334C1568.98 489.086 1568.96 488.834 1568.88 488.596L1558.41 456.691ZM1548.62 487.473L1556.9 462.275L1565.17 487.473H1548.62Z" fill="#70695F"/>
<path d="M1593.73 488.596L1583.25 456.72C1583.13 456.414 1582.93 456.149 1582.66 455.962C1582.39 455.775 1582.07 455.674 1581.75 455.674C1581.42 455.674 1581.1 455.775 1580.83 455.962C1580.57 456.149 1580.36 456.414 1580.25 456.72L1569.77 488.596C1569.69 488.833 1569.67 489.086 1569.71 489.334C1569.75 489.581 1569.84 489.815 1569.99 490.019C1570.14 490.222 1570.33 490.388 1570.55 490.504C1570.77 490.62 1571.02 490.681 1571.27 490.684H1580.15V500.611C1580.15 501.032 1580.32 501.435 1580.62 501.733C1580.92 502.03 1581.32 502.198 1581.74 502.198C1582.16 502.198 1582.57 502.03 1582.86 501.733C1583.16 501.435 1583.33 501.032 1583.33 500.611V490.684H1592.21C1592.46 490.681 1592.71 490.62 1592.93 490.504C1593.15 490.388 1593.34 490.222 1593.49 490.019C1593.64 489.815 1593.73 489.581 1593.77 489.334C1593.81 489.086 1593.79 488.833 1593.71 488.596H1593.73ZM1573.46 487.503L1581.74 462.305L1590.02 487.503H1573.46Z" fill="#70695F"/>
<path d="M1212.05 299.508H1053.63V513.08H1212.05V299.508Z" stroke="#70695F" stroke-width="4" stroke-linecap="round" stroke-linejoin="round"/>
<path d="M1214.9 288.067H1050.77V299.508H1214.9V288.067Z" stroke="#70695F" stroke-width="4" stroke-linecap="round" stroke-linejoin="round"/>
<path d="M1207.43 288.067H1058.22L1073.13 252H1192.52L1207.43 288.067Z" stroke="#70695F" stroke-width="4" stroke-linecap="round" stroke-linejoin="round"/>
<path d="M1086.25 321.76H1074.53V350.048H1086.25V321.76Z" stroke="#70695F" stroke-width="4" stroke-linecap="round" stroke-linejoin="round"/>
<path d="M1097.97 321.76H1086.25V350.048H1097.97V321.76Z" stroke="#70695F" stroke-width="4" stroke-linecap="round" stroke-linejoin="round"/>
<path d="M1132.84 321.76H1121.12V350.048H1132.84V321.76Z" stroke="#70695F" stroke-width="4" stroke-linecap="round" stroke-linejoin="round"/>
<path d="M1144.56 321.76H1132.84V350.048H1144.56V321.76Z" stroke="#70695F" stroke-width="4" stroke-linecap="round" stroke-linejoin="round"/>
<path d="M1179.4 321.76H1167.68V350.048H1179.4V321.76Z" stroke="#70695F" stroke-width="4" stroke-linecap="round" stroke-linejoin="round"/>
<path d="M1191.12 321.76H1179.4V350.048H1191.12V321.76Z" stroke="#70695F" stroke-width="4" stroke-linecap="round" stroke-linejoin="round"/>
<path d="M1086.25 372.3H1074.53V400.588H1086.25V372.3Z" stroke="#70695F" stroke-width="4" stroke-linecap="round" stroke-linejoin="round"/>
<path d="M1097.97 372.3H1086.25V400.588H1097.97V372.3Z" stroke="#70695F" stroke-width="4" stroke-linecap="round" stroke-linejoin="round"/>
<path d="M1132.84 372.3H1121.12V400.588H1132.84V372.3Z" stroke="#70695F" stroke-width="4" stroke-linecap="round" stroke-linejoin="round"/>
<path d="M1144.56 372.3H1132.84V400.588H1144.56V372.3Z" stroke="#70695F" stroke-width="4" stroke-linecap="round" stroke-linejoin="round"/>
<path d="M1179.4 372.3H1167.68V400.588H1179.4V372.3Z" stroke="#70695F" stroke-width="4" stroke-linecap="round" stroke-linejoin="round"/>
<path d="M1191.12 372.3H1179.4V400.588H1191.12V372.3Z" stroke="#70695F" stroke-width="4" stroke-linecap="round" stroke-linejoin="round"/>
<path d="M1053.28 431.385H986.813L979 459.296H1053.28V431.385Z" stroke="#70695F" stroke-width="4" stroke-linecap="round" stroke-linejoin="round"/>
<path d="M998.395 459.296C998.389 461.867 997.364 464.331 995.544 466.147C993.724 467.963 991.258 468.982 988.687 468.982C986.118 468.982 983.654 467.962 981.837 466.145C980.021 464.329 979 461.865 979 459.296H998.395Z" stroke="#70695F" stroke-width="4" stroke-linecap="round" stroke-linejoin="round"/>
<path d="M1017.79 459.296C1017.78 461.867 1016.76 464.331 1014.94 466.147C1013.12 467.963 1010.65 468.982 1008.08 468.982C1005.51 468.982 1003.05 467.962 1001.23 466.145C999.415 464.329 998.395 461.865 998.395 459.296H1017.79Z" stroke="#70695F" stroke-width="4" stroke-linecap="round" stroke-linejoin="round"/>
<path d="M1037.19 459.296C1037.18 461.867 1036.15 464.331 1034.33 466.147C1032.51 467.963 1030.05 468.982 1027.48 468.982C1024.91 468.982 1022.44 467.962 1020.63 466.145C1018.81 464.329 1017.79 461.865 1017.79 459.296H1037.19Z" stroke="#70695F" stroke-width="4" stroke-linecap="round" stroke-linejoin="round"/>
<path d="M1053.24 459.296H1037.18C1037.18 461.865 1038.21 464.329 1040.02 466.145C1041.84 467.962 1044.3 468.982 1046.87 468.982C1048.06 468.988 1049.23 468.758 1050.33 468.304C1051.43 467.851 1052.42 467.184 1053.26 466.342L1053.24 459.296Z" stroke="#70695F" stroke-width="4" stroke-linecap="round" stroke-linejoin="round"/>
<path d="M983.748 467.641V514.265H1053.28" stroke="#70695F" stroke-width="4" stroke-linecap="round" stroke-linejoin="round"/>
<path d="M1036.4 420.421H1003.65V431.385H1036.4V420.421Z" stroke="#70695F" stroke-width="4" stroke-linecap="round" stroke-linejoin="round"/>
<path d="M1036.4 420.421C1036.4 420.421 1049.17 399.919 1047.49 392.191C1045.81 384.463 1037.4 381.546 1030.29 384.782C1029.36 382.834 1027.91 381.182 1026.1 380.012C1024.28 378.843 1022.18 378.202 1020.03 378.161C1017.87 378.203 1015.76 378.844 1013.94 380.013C1012.13 381.182 1010.67 382.834 1009.74 384.782C1002.65 381.461 994.286 384.463 992.561 392.191C990.837 399.919 1003.65 420.421 1003.65 420.421" stroke="#70695F" stroke-width="4" stroke-linecap="round" stroke-linejoin="round"/>
<path d="M1014.64 420.421L1009.91 399.302" stroke="#70695F" stroke-width="4" stroke-linecap="round" stroke-linejoin="round"/>
<path d="M1023.47 420.421L1028.2 399.302" stroke="#70695F" stroke-width="4" stroke-linecap="round" stroke-linejoin="round"/>
<path d="M1042.51 431.385H1021.58V459.296H1042.51V431.385Z" stroke="#70695F" stroke-width="4" stroke-linecap="round" stroke-linejoin="round"/>
<path d="M1310.4 212.796C1310.4 208.844 1308.83 205.054 1306.04 202.26C1303.24 199.466 1299.45 197.896 1295.5 197.896C1299.45 197.896 1303.24 196.327 1306.03 193.535C1308.83 190.743 1310.4 186.956 1310.4 183.006C1310.4 186.956 1311.97 190.743 1314.77 193.535C1317.56 196.327 1321.35 197.896 1325.3 197.896C1323.34 197.896 1321.41 198.281 1319.6 199.03C1317.79 199.779 1316.15 200.876 1314.76 202.26C1313.38 203.644 1312.28 205.286 1311.53 207.094C1310.79 208.902 1310.4 210.839 1310.4 212.796Z" stroke="#70695F" stroke-width="3" stroke-linecap="round" stroke-linejoin="round"/>
<path d="M966.649 423.112H944.55V405.199H947.814C948.236 405.197 948.64 405.028 948.937 404.729C949.234 404.43 949.401 404.026 949.401 403.604C949.391 393.715 945.563 384.212 938.716 377.077C931.87 369.941 922.533 365.724 912.653 365.306V348.784C912.668 348.566 912.638 348.347 912.564 348.141C912.491 347.935 912.377 347.747 912.227 347.587C912.078 347.427 911.898 347.3 911.697 347.213C911.497 347.126 911.281 347.081 911.062 347.081C910.843 347.081 910.627 347.126 910.427 347.213C910.226 347.3 910.046 347.427 909.896 347.587C909.747 347.747 909.633 347.935 909.559 348.141C909.486 348.347 909.456 348.566 909.471 348.784V365.306C899.59 365.724 890.253 369.941 883.405 377.076C876.557 384.211 872.727 393.714 872.715 403.604C872.715 404.027 872.883 404.432 873.182 404.732C873.481 405.031 873.887 405.199 874.31 405.199H877.566V423.112H855.467C855.047 423.112 854.643 423.28 854.345 423.577C854.048 423.875 853.88 424.279 853.88 424.699V499.829C853.879 500.038 853.92 500.245 853.999 500.438C854.078 500.632 854.195 500.807 854.343 500.956C854.49 501.104 854.665 501.221 854.858 501.302C855.051 501.382 855.258 501.423 855.467 501.423H966.619C966.828 501.423 967.035 501.382 967.228 501.302C967.421 501.221 967.596 501.104 967.744 500.956C967.891 500.807 968.008 500.632 968.087 500.438C968.167 500.245 968.207 500.038 968.206 499.829V424.699C968.206 424.284 968.043 423.884 967.752 423.588C967.461 423.291 967.065 423.12 966.649 423.112ZM941.391 423.112H927.512V405.199H941.391V423.112ZM897.823 423.112V405.992H924.338V423.112H897.823ZM911.073 368.465C920.123 368.469 928.824 371.96 935.366 378.213C941.909 384.465 945.791 392.999 946.205 402.039H875.949C876.357 392.996 880.236 384.458 886.777 378.201C893.319 371.944 902.021 368.449 911.073 368.442V368.465ZM880.762 405.221H894.641V423.135H880.762V405.221ZM965.062 498.264H857.092V426.294H895.682C895.857 426.359 896.042 426.394 896.229 426.399H925.918C926.105 426.395 926.289 426.36 926.464 426.294H965.062V498.264Z" fill="#70695F"/>
<path d="M915.048 433.421H872.461C872.04 433.421 871.636 433.588 871.338 433.885C871.041 434.183 870.874 434.587 870.874 435.008V449.703C870.874 450.124 871.041 450.527 871.338 450.825C871.636 451.122 872.04 451.29 872.461 451.29H915.048C915.257 451.291 915.464 451.25 915.658 451.171C915.851 451.092 916.027 450.975 916.175 450.828C916.323 450.68 916.441 450.505 916.521 450.312C916.601 450.119 916.643 449.912 916.643 449.703V435.008C916.643 434.799 916.601 434.592 916.521 434.399C916.441 434.206 916.323 434.03 916.175 433.883C916.027 433.735 915.851 433.619 915.658 433.539C915.464 433.46 915.257 433.42 915.048 433.421ZM913.461 448.108H874.055V436.595H913.461V448.108Z" fill="#70695F"/>
<path d="M927.654 435.157V449.852C927.654 450.275 927.822 450.681 928.121 450.98C928.42 451.279 928.826 451.447 929.249 451.447H949.648C950.071 451.447 950.477 451.279 950.776 450.98C951.075 450.681 951.243 450.275 951.243 449.852V435.157C951.243 434.948 951.201 434.741 951.121 434.548C951.041 434.355 950.923 434.18 950.775 434.032C950.627 433.885 950.451 433.768 950.258 433.689C950.064 433.61 949.857 433.569 949.648 433.57H929.249C929.04 433.569 928.833 433.61 928.639 433.689C928.446 433.768 928.27 433.885 928.122 434.032C927.974 434.18 927.856 434.355 927.776 434.548C927.696 434.741 927.654 434.948 927.654 435.157ZM930.836 436.752H948.054V448.265H930.836V436.752Z" fill="#70695F"/>
</svg>
