<svg width="39" height="39" viewBox="0 0 39 39" fill="none" xmlns="http://www.w3.org/2000/svg">
<g clip-path="url(#clip0_253_1842)">
<path d="M19.8975 15.9546V23.5065H30.6062C30.136 25.9351 28.7248 27.9916 26.6085 29.3743L33.0662 34.2848C36.8288 30.8813 38.9995 25.8821 38.9995 19.9434C38.9995 18.5607 38.8729 17.2311 38.6377 15.9548L19.8975 15.9546Z" fill="#4285F4"/>
<path d="M8.74576 23.2117L7.28928 24.3043L2.13379 28.2397C5.40792 34.6038 12.1185 39.0002 19.8968 39.0002C25.2691 39.0002 29.7733 37.2629 33.0656 34.2848L26.6078 29.3743C24.835 30.5443 22.5739 31.2535 19.8968 31.2535C14.7233 31.2535 10.3278 27.8321 8.7539 23.2229L8.74576 23.2117Z" fill="#34A853"/>
<path d="M2.13437 10.7605C0.777753 13.384 0 16.3446 0 19.5C0 22.6554 0.777753 25.6159 2.13437 28.2395C2.13437 28.2571 8.75511 23.2049 8.75511 23.2049C8.35715 22.0349 8.12193 20.794 8.12193 19.4998C8.12193 18.2055 8.35715 16.9647 8.75511 15.7947L2.13437 10.7605Z" fill="#FBBC05"/>
<path d="M19.8972 7.76458C22.8277 7.76458 25.4325 8.75729 27.5127 10.6719L33.2107 5.08782C29.7557 1.9324 25.2697 0 19.8972 0C12.1189 0 5.40792 4.37865 2.13379 10.7605L8.75433 15.7951C10.328 11.1859 14.7237 7.76458 19.8972 7.76458Z" fill="#EA4335"/>
</g>
<defs>
<clipPath id="clip0_253_1842">
<rect width="39" height="39" fill="white"/>
</clipPath>
</defs>
</svg>
