<svg width="40" height="37" viewBox="0 0 40 37" fill="none" xmlns="http://www.w3.org/2000/svg">
<path fill-rule="evenodd" clip-rule="evenodd" d="M28.0099 2.7907C25.5695 2.7907 23.225 3.79365 21.4971 5.58569L21.0038 6.09701C20.7409 6.36959 20.3784 6.52356 19.9997 6.52357C19.6209 6.52359 19.2585 6.36965 18.9955 6.0971L18.5021 5.58575C14.9082 1.86033 9.0703 1.86023 5.47632 5.58566C1.89549 9.29746 1.89548 15.3061 5.47632 19.018C5.47631 19.018 5.47632 19.018 5.47632 19.018L19.0485 33.0865C19.5485 33.6048 20.3822 33.6245 20.9068 33.1297C24.0289 30.1228 26.9965 26.9715 29.9864 23.7965C31.4855 22.2046 32.9902 20.6067 34.5229 19.018L34.523 19.0178C36.2406 17.2381 37.2093 14.8237 37.2093 12.3018C37.2093 9.77998 36.2408 7.36574 34.523 5.58585L34.5227 5.58549C32.7946 3.79355 30.4502 2.7907 28.0099 2.7907ZM19.9998 3.14847C22.1873 1.1325 25.0361 0 28.0099 0C31.2211 0 34.2864 1.32051 36.5311 3.6479C38.7594 5.95686 40 9.0694 40 12.3018C40 15.5342 38.7593 18.6468 36.5313 20.9556C35.0492 22.4918 33.5696 24.0628 32.0822 25.6422C29.0618 28.8492 26.0092 32.0904 22.8382 35.1441L22.8308 35.1511C21.1956 36.7029 18.6057 36.6469 17.0401 35.0241L3.46789 20.9556C-1.15595 16.1625 -1.15597 8.44107 3.46788 3.64809C7.99265 -1.04216 15.2789 -1.20871 19.9998 3.14847Z" fill="#CECECE"/>
</svg>
