<svg width="17" height="16" viewBox="0 0 17 16" fill="none" xmlns="http://www.w3.org/2000/svg">
<path fill-rule="evenodd" clip-rule="evenodd" d="M10.3771 0.733916C9.317 -0.244638 7.683 -0.244639 6.6229 0.733916L0.254387 6.61254C-0.0664944 6.90874 -0.086504 7.40898 0.209694 7.72986C0.505892 8.05075 1.00613 8.07076 1.32702 7.77456L1.58203 7.53916V13.5193C1.58203 14.5018 2.37855 15.2984 3.3611 15.2984H13.6402C14.6227 15.2984 15.4192 14.5018 15.4192 13.5193V7.54033L15.673 7.77456C15.9939 8.07076 16.4941 8.05075 16.7903 7.72986C17.0865 7.40898 17.0665 6.90874 16.7456 6.61254L10.3771 0.733916ZM13.8378 6.08058L9.30447 1.89593C8.85014 1.47655 8.14986 1.47655 7.69553 1.89593L3.16343 6.07941V13.5193C3.16343 13.6285 3.25193 13.717 3.3611 13.717H13.6402C13.7493 13.717 13.8378 13.6285 13.8378 13.5193V6.08058Z" fill="#A7A7A7"/>
</svg>
