<svg width="21" height="20" viewBox="0 0 21 20" fill="none" xmlns="http://www.w3.org/2000/svg">
<path fill-rule="evenodd" clip-rule="evenodd" d="M9.14516 0C4.09443 0 0 3.89945 0 8.70968C0 13.5199 4.09442 17.4194 9.14516 17.4194C11.3039 17.4194 13.2893 16.706 14.8533 15.5148L19.2651 19.7165C19.662 20.0944 20.3053 20.0944 20.7022 19.7165C21.099 19.3386 21.099 18.7258 20.7022 18.3479L16.2904 14.1462C17.5413 12.6566 18.2903 10.7658 18.2903 8.70968C18.2903 3.89945 14.1959 0 9.14516 0ZM2.03226 8.70968C2.03226 4.96839 5.21681 1.93548 9.14516 1.93548C13.0735 1.93548 16.2581 4.96839 16.2581 8.70968C16.2581 10.5774 15.4658 12.267 14.1815 13.4934L14.1814 13.4934C12.8927 14.7241 11.113 15.4839 9.14516 15.4839C5.21681 15.4839 2.03226 12.4509 2.03226 8.70968Z" fill="#AAAAAA"/>
</svg>
