<svg width="40" height="40" viewBox="0 0 40 40" fill="none" xmlns="http://www.w3.org/2000/svg">
<path fill-rule="evenodd" clip-rule="evenodd" d="M0 20C0 8.9543 8.9543 0 20 0C31.0456 0 40 8.9543 40 20C40 24.8155 38.2981 29.2335 35.463 32.6853L35.4536 32.6968C31.7854 37.1561 26.2248 40 20 40C13.7867 40 8.23518 37.1667 4.56688 32.7216C4.54925 32.7014 4.53229 32.6808 4.51599 32.6597C1.69348 29.2116 0 24.8036 0 20ZM37.2093 20C37.2093 23.5949 36.107 26.9324 34.2219 29.6929C33.6199 29.1786 32.7922 28.5606 31.719 27.9473C29.2017 26.5085 25.3693 25.1162 19.9996 25.1162C14.6299 25.1162 10.7975 26.5085 8.2802 27.9473C7.20735 28.5605 6.37979 29.1783 5.77779 29.6925C3.8929 26.9321 2.7907 23.5948 2.7907 20C2.7907 10.4956 10.4956 2.7907 20 2.7907C29.5044 2.7907 37.2093 10.4956 37.2093 20ZM20 37.2093C15.0944 37.2093 10.6682 35.1567 7.53334 31.8635C8.01658 31.445 8.72031 30.9101 9.66498 30.3702C11.7793 29.1617 15.1367 27.9069 19.9996 27.9069C24.8624 27.9069 28.2199 29.1617 30.3342 30.3702C31.2792 30.9102 31.983 31.4452 32.4663 31.8638C29.3315 35.1568 24.9054 37.2093 20 37.2093ZM20.0002 7.44189C16.1469 7.44189 13.0234 10.5655 13.0234 14.4186C13.0234 18.2719 16.1469 21.3954 20.0002 21.3954C23.8534 21.3954 26.9769 18.2719 26.9769 14.4186C26.9769 10.5655 23.8534 7.44189 20.0002 7.44189ZM15.8141 14.4186C15.8141 12.1067 17.6882 10.2326 20.0002 10.2326C22.3121 10.2326 24.1862 12.1067 24.1862 14.4186C24.1862 16.7306 22.3122 18.6047 20.0002 18.6047C17.6882 18.6047 15.8141 16.7306 15.8141 14.4186Z" fill="#007CFE"/>
</svg>
