<svg width="60" height="60" viewBox="0 0 60 60" fill="none" xmlns="http://www.w3.org/2000/svg">
<circle cx="30" cy="30" r="30" fill="white"/>
<path d="M39.0347 49H19.9659C14.4705 49 10 44.5295 10 39.0341V19.9653C10 14.4705 14.4705 10 19.9659 10H39.0347C44.5295 10 49 14.4705 49 19.9653V39.0341C49 44.5295 44.5295 49 39.0347 49ZM19.9659 13.3248C18.2053 13.327 16.5175 14.0273 15.2725 15.2722C14.0276 16.517 13.3271 18.2048 13.3248 19.9653V39.0341C13.327 40.7948 14.0274 42.4827 15.2724 43.7276C16.5173 44.9726 18.2052 45.673 19.9659 45.6752H39.0347C40.7952 45.6729 42.483 44.9724 43.7278 43.7275C44.9727 42.4825 45.673 40.7947 45.6752 39.0341V19.9653C45.6729 18.2049 44.9725 16.5172 43.7276 15.2724C42.4828 14.0275 40.7951 13.3271 39.0347 13.3248H19.9659Z" fill="#70695F"/>
<path d="M29.4998 39.2543C24.1216 39.2543 19.7456 34.8783 19.7456 29.5001C19.7456 24.1219 24.1216 19.7454 29.4998 19.7454C34.878 19.7454 39.2546 24.1214 39.2546 29.5001C39.2546 34.8788 34.8786 39.2543 29.4998 39.2543ZM29.4998 23.0701C27.7953 23.0725 26.1612 23.7507 24.9559 24.9561C23.7507 26.1614 23.0726 27.7956 23.0704 29.5001C23.0727 31.2046 23.7509 32.8386 24.9561 34.0438C26.1614 35.249 27.7954 35.9272 29.4998 35.9296C31.2044 35.9273 32.8385 35.2492 34.0439 34.044C35.2492 32.8387 35.9274 31.2047 35.9298 29.5001C35.9276 27.7955 35.2494 26.1613 34.044 24.9559C32.8387 23.7505 31.2045 23.0724 29.4998 23.0701Z" fill="#70695F"/>
<path d="M40.0191 21.4435C41.3794 21.4435 42.4821 20.3408 42.4821 18.9805C42.4821 17.6203 41.3794 16.5176 40.0191 16.5176C38.6589 16.5176 37.5562 17.6203 37.5562 18.9805C37.5562 20.3408 38.6589 21.4435 40.0191 21.4435Z" fill="#70695F"/>
</svg>
