<svg width="48" height="48" viewBox="0 0 48 48" fill="none" xmlns="http://www.w3.org/2000/svg">
<path d="M23.9999 6.75C13.2302 6.75 4.5 13.6338 4.5 22.125C4.5 27.6148 8.14992 32.4319 13.6402 35.152C13.3414 36.1821 11.7207 41.7791 11.6562 42.2187C11.6562 42.2187 11.6174 42.5492 11.8313 42.6751C12.0452 42.8011 12.2969 42.7032 12.2969 42.7032C12.9104 42.6175 19.4113 38.0512 20.5364 37.2582C21.6604 37.4174 22.818 37.5001 23.9999 37.5001C34.7696 37.5001 43.4998 30.6166 43.4998 22.1252C43.4998 13.6338 34.7694 6.75019 23.9999 6.75019V6.75Z" fill="black"/>
<path d="M13.2188 27.4922C12.5984 27.4922 12.0938 27.0103 12.0938 26.4178V19.7343H10.3384C9.72954 19.7343 9.23438 19.24 9.23438 18.6328C9.23438 18.0255 9.72974 17.5312 10.3384 17.5312H16.0991C16.708 17.5312 17.2031 18.0255 17.2031 18.6328C17.2031 19.24 16.7078 19.7343 16.0991 19.7343H14.3437V26.4178C14.3437 27.0103 13.8391 27.4922 13.2188 27.4922ZM23.0835 27.4776C22.6145 27.4776 22.2554 27.2872 22.1473 26.9807L21.5903 25.5223H18.1599L17.6025 26.9815C17.4946 27.2873 17.1359 27.4776 16.6669 27.4776C16.4202 27.4778 16.1761 27.425 15.9517 27.3223C15.6416 27.1792 15.3434 26.7858 15.685 25.7248L18.3761 18.6418C18.5656 18.103 19.1414 17.5481 19.8742 17.5314C20.609 17.548 21.1848 18.1032 21.3747 18.6429L24.0646 25.7227C24.407 26.7862 24.1088 27.1798 23.7987 27.3225C23.5743 27.4248 23.3302 27.4778 23.0835 27.4776ZM20.9988 23.5297L19.875 20.3375L18.7512 23.5297H20.9986H20.9988ZM25.875 27.3282C25.2804 27.3282 24.7969 26.8655 24.7969 26.297V18.6564C24.7969 18.036 25.3123 17.5314 25.9453 17.5314C26.5783 17.5314 27.0936 18.036 27.0936 18.6564V25.2658H29.4842C30.0789 25.2658 30.5623 25.7285 30.5623 26.297C30.5623 26.8655 30.0787 27.3282 29.4842 27.3282H25.8748H25.875ZM32.1252 27.4776C31.5048 27.4776 31.0003 26.973 31.0003 26.3527V18.6564C31.0003 18.036 31.5048 17.5314 32.1252 17.5314C32.7455 17.5314 33.2501 18.036 33.2501 18.6564V21.0744L36.3889 17.9356C36.5504 17.7741 36.7722 17.6852 37.0129 17.6852C37.2938 17.6852 37.5759 17.8064 37.7871 18.0174C37.9841 18.2142 38.1018 18.4676 38.1179 18.7307C38.1342 18.996 38.0459 19.2391 37.8696 19.4155L35.3059 21.9789L38.0751 25.6475C38.2558 25.8852 38.3335 26.1855 38.2911 26.4809C38.2506 26.7766 38.0933 27.0439 37.8547 27.2228C37.6602 27.3707 37.4223 27.4505 37.1781 27.45C36.8246 27.4517 36.4913 27.2858 36.2793 27.0028L33.641 23.5071L33.2507 23.8974V26.3519C33.2499 26.9732 32.7465 27.4767 32.1254 27.4774L32.1252 27.4776Z" fill="#FFE812"/>
</svg>
