<svg width="60" height="60" viewBox="0 0 60 60" fill="none" xmlns="http://www.w3.org/2000/svg">
<path d="M60 30C60 46.5685 46.5685 60 30 60C13.4315 60 0 46.5685 0 30C0 13.4315 13.4315 0 30 0C46.5685 0 60 13.4315 60 30Z" fill="white"/>
<path d="M39.07 10.0001H20.28C19.9811 9.99877 19.6848 10.0565 19.4082 10.17C19.1317 10.2835 18.8802 10.4505 18.6684 10.6614C18.4565 10.8723 18.2884 11.123 18.1737 11.3991C18.059 11.6752 18 11.9711 18 12.2701V30.9101C18.0026 31.5131 18.244 32.0904 18.6713 32.5158C19.0986 32.9413 19.677 33.1801 20.28 33.1801H28.95C28.7701 35.5999 27.9674 37.9321 26.62 39.9501C25.2598 41.8481 23.6598 43.5623 21.86 45.0501C21.7278 45.1632 21.6205 45.3024 21.5447 45.459C21.469 45.6157 21.4266 45.7863 21.42 45.9601C21.4407 46.2446 21.5529 46.5148 21.74 46.7301L27.79 53.5001C27.9373 53.661 28.1182 53.7873 28.32 53.8701C28.4523 53.9114 28.5917 53.9247 28.7295 53.9092C28.8672 53.8937 29.0002 53.8497 29.12 53.7801C32.8151 51.031 35.8371 47.478 37.9576 43.3895C40.078 39.3011 41.2414 34.7842 41.36 30.1801V12.2701C41.36 11.9703 41.3006 11.6735 41.1853 11.3968C41.07 11.12 40.901 10.8689 40.6881 10.6578C40.4752 10.4468 40.2225 10.28 39.9448 10.1671C39.6671 10.0542 39.3698 9.99745 39.07 10.0001Z" fill="#70695F"/>
</svg>
