<svg width="39" height="36" viewBox="0 0 39 36" fill="none" xmlns="http://www.w3.org/2000/svg">
<path d="M19.4999 0C8.73024 0 0 6.88378 0 15.375C0 20.8648 3.64992 25.6819 9.14016 28.402C8.84141 29.4321 7.22074 35.0291 7.15622 35.4687C7.15622 35.4687 7.11744 35.7992 7.33133 35.9251C7.54522 36.0511 7.79693 35.9532 7.79693 35.9532C8.41037 35.8675 14.9113 31.3012 16.0364 30.5082C17.1604 30.6674 18.318 30.7501 19.4999 30.7501C30.2696 30.7501 38.9998 23.8666 38.9998 15.3752C38.9998 6.88378 30.2694 0.000192188 19.4999 0.000192188V0Z" fill="black"/>
<path d="M8.71876 20.7422C8.09841 20.7422 7.59383 20.2603 7.59383 19.6678V12.9843H5.83838C5.22954 12.9843 4.73438 12.49 4.73438 11.8828C4.73438 11.2755 5.22974 10.7812 5.83838 10.7812H11.5991C12.208 10.7812 12.7031 11.2755 12.7031 11.8828C12.7031 12.49 12.2078 12.9843 11.5991 12.9843H9.84369V19.6678C9.84369 20.2603 9.33911 20.7422 8.71876 20.7422ZM18.5835 20.7276C18.1145 20.7276 17.7554 20.5372 17.6473 20.2307L17.0903 18.7723H13.6599L13.1025 20.2315C12.9946 20.5373 12.6359 20.7276 12.1669 20.7276C11.9202 20.7278 11.6761 20.675 11.4517 20.5723C11.1416 20.4292 10.8434 20.0358 11.185 18.9748L13.8761 11.8918C14.0656 11.353 14.6414 10.7981 15.3742 10.7814C16.109 10.798 16.6848 11.3532 16.8747 11.8929L19.5646 18.9727C19.907 20.0362 19.6088 20.4298 19.2987 20.5725C19.0743 20.6748 18.8302 20.7278 18.5835 20.7276ZM16.4988 16.7797L15.375 13.5875L14.2512 16.7797H16.4986H16.4988ZM21.375 20.5782C20.7804 20.5782 20.2969 20.1155 20.2969 19.547V11.9064C20.2969 11.286 20.8123 10.7814 21.4453 10.7814C22.0783 10.7814 22.5936 11.286 22.5936 11.9064V18.5158H24.9842C25.5789 18.5158 26.0623 18.9785 26.0623 19.547C26.0623 20.1155 25.5787 20.5782 24.9842 20.5782H21.3748H21.375ZM27.6252 20.7276C27.0048 20.7276 26.5003 20.223 26.5003 19.6027V11.9064C26.5003 11.286 27.0048 10.7814 27.6252 10.7814C28.2455 10.7814 28.7501 11.286 28.7501 11.9064V14.3244L31.8889 11.1856C32.0504 11.0241 32.2722 10.9352 32.5129 10.9352C32.7938 10.9352 33.0759 11.0564 33.2871 11.2674C33.4841 11.4642 33.6018 11.7176 33.6179 11.9807C33.6342 12.246 33.5459 12.4891 33.3696 12.6655L30.8059 15.2289L33.5751 18.8975C33.7558 19.1352 33.8335 19.4355 33.7911 19.7309C33.7506 20.0266 33.5933 20.2939 33.3547 20.4728C33.1602 20.6207 32.9223 20.7005 32.6781 20.7C32.3246 20.7017 31.9913 20.5358 31.7793 20.2528L29.141 16.7571L28.7507 17.1474V19.6019C28.7499 20.2232 28.2465 20.7267 27.6254 20.7274L27.6252 20.7276Z" fill="#FFE812"/>
</svg>
