<svg width="564" height="279" viewBox="0 0 564 279" fill="none" xmlns="http://www.w3.org/2000/svg">
<path d="M0 124.865C34.7901 116.145 89.7558 110.867 128.36 148.134C188.979 206.606 250.93 200.502 301.3 177.37C351.67 154.239 341.145 106.369 331.265 82.9616C316.282 47.4378 333.976 7.7375 366.009 2.13814C398.042 -3.46121 446.987 14.8056 432.694 105.589C421.066 179.665 457.695 209.59 489.59 228.086" stroke="white" stroke-width="2" stroke-linecap="round" stroke-linejoin="round" stroke-dasharray="5.09 5.09"/>
<path d="M499.793 233.777L509.858 239.239" stroke="white" stroke-width="2" stroke-linecap="round" stroke-linejoin="round"/>
<path d="M529.39 277.47C541.7 277.47 551.679 267.504 551.679 255.211C551.679 242.917 541.7 232.951 529.39 232.951C517.08 232.951 507.1 242.917 507.1 255.211C507.1 267.504 517.08 277.47 529.39 277.47Z" stroke="white" stroke-width="2" stroke-linecap="round" stroke-linejoin="round"/>
<path d="M559.595 120.53C562.036 115.218 563.193 109.404 562.974 103.559C562.754 97.7149 561.163 92.0048 558.331 86.8922C555.499 81.7796 551.504 77.4086 546.672 74.1339C541.839 70.8592 536.305 68.773 530.518 68.0446C529.337 67.9851 528.153 67.9851 526.971 68.0446H523.482C517.695 68.773 512.161 70.8592 507.328 74.1339C502.496 77.4086 498.501 81.7796 495.669 86.8922C492.837 92.0048 491.246 97.7149 491.026 103.559C490.807 109.404 491.964 115.218 494.404 120.53L527.145 195L559.595 120.53Z" stroke="white" stroke-width="2" stroke-linecap="round" stroke-linejoin="round"/>
<path d="M527 122C535.837 122 543 114.837 543 106C543 97.1634 535.837 90 527 90C518.163 90 511 97.1634 511 106C511 114.837 518.163 122 527 122Z" stroke="white" stroke-width="2" stroke-linecap="round" stroke-linejoin="round"/>
</svg>
