<svg width="37" height="37" viewBox="0 0 37 37" fill="none" xmlns="http://www.w3.org/2000/svg">
<path fill-rule="evenodd" clip-rule="evenodd" d="M33.7257 1.9646H3.27434C2.55099 1.9646 1.9646 2.55099 1.9646 3.27434V28.8217L9.02233 23.4951C9.27552 23.2616 9.67653 23.0091 10.1767 22.9277C10.7776 22.8299 11.4371 22.9967 11.9909 23.5506C12.629 24.1887 14.7206 26.1734 15.7163 27.1139C16.4777 26.3818 22.5775 21.0296 25.5477 18.4306C25.8647 18.1532 26.4058 17.8161 27.0553 17.7127C27.7681 17.5993 28.5895 17.7805 29.2324 18.5306C29.8292 19.2269 32.7126 22.4733 35.0354 25.0833V3.27434C35.0354 2.55099 34.449 1.9646 33.7257 1.9646ZM35.0354 28.0375C32.6851 25.3995 28.4886 20.6816 27.7408 19.8092C27.6513 19.7048 27.5836 19.6733 27.5466 19.6609C27.5046 19.6469 27.4469 19.6398 27.3639 19.6529C27.173 19.6833 26.961 19.8046 26.8414 19.9092C23.7592 22.6061 17.5594 28.0483 17.0661 28.5415C16.5778 29.0298 15.9865 29.183 15.4443 29.0948C14.9715 29.0178 14.6011 28.7709 14.3793 28.5534C13.3984 27.627 11.2672 25.6052 10.6017 24.9397C10.5683 24.9063 10.5432 24.8881 10.5281 24.8786C10.5132 24.8694 10.5052 24.8667 10.5038 24.8662C10.5027 24.8659 10.5024 24.8659 10.5025 24.8659C10.5023 24.8659 10.4991 24.8657 10.4923 24.8668C10.4767 24.8693 10.4494 24.8776 10.415 24.8966C10.3989 24.9056 10.3843 24.9153 10.3724 24.9243L10.3642 24.9306L10.3585 24.9354C10.3552 24.9383 10.3537 24.9398 10.3537 24.9397L10.3054 24.988L1.9646 31.283V33.7257C1.9646 34.449 2.55099 35.0354 3.27434 35.0354H33.7257C34.449 35.0354 35.0354 34.449 35.0354 33.7257V28.0375ZM3.27434 0C1.46597 0 0 1.46597 0 3.27434V33.7257C0 35.534 1.46597 37 3.27434 37H33.7257C35.534 37 37 35.534 37 33.7257V3.27434C37 1.46597 35.534 0 33.7257 0H3.27434ZM27.5044 12.4425C29.3128 12.4425 30.7788 10.9765 30.7788 9.16814C30.7788 7.35978 29.3128 5.89381 27.5044 5.89381C25.6961 5.89381 24.2301 7.35978 24.2301 9.16814C24.2301 10.9765 25.6961 12.4425 27.5044 12.4425ZM27.5044 14.4071C30.3978 14.4071 32.7434 12.0615 32.7434 9.16814C32.7434 6.27476 30.3978 3.9292 27.5044 3.9292C24.611 3.9292 22.2655 6.27476 22.2655 9.16814C22.2655 12.0615 24.611 14.4071 27.5044 14.4071Z" fill="white"/>
</svg>
