<svg width="41" height="41" viewBox="0 0 41 41" fill="none" xmlns="http://www.w3.org/2000/svg">
<circle cx="20.5" cy="20.5" r="19.5" stroke="#989898" stroke-width="2"/>
<path fill-rule="evenodd" clip-rule="evenodd" d="M9 16.95C9 14.8606 10.6656 13.1667 12.7202 13.1667H29.0893C31.1439 13.1667 32.8095 14.8606 32.8095 16.95V27.2406C32.8095 29.3301 31.1439 31.0239 29.0893 31.0239H12.7202C10.6656 31.0239 9 29.3301 9 27.2406V16.95ZM12.7202 14.6801C11.4875 14.6801 10.4881 15.6964 10.4881 16.95V27.2406C10.4881 28.4943 11.4875 29.5106 12.7202 29.5106H29.0893C30.3221 29.5106 31.3214 28.4943 31.3214 27.2406V16.95C31.3214 15.6964 30.3221 14.6801 29.0893 14.6801H12.7202Z" fill="#989898"/>
<path fill-rule="evenodd" clip-rule="evenodd" d="M13.7617 11.2321C13.7617 9.99936 14.7398 9 15.9464 9H25.2675C26.4741 9 27.4522 9.99936 27.4522 11.2321V14.3571H13.7617V11.2321ZM15.9464 10.4881C15.5442 10.4881 15.2182 10.8212 15.2182 11.2321V12.869H25.9958V11.2321C25.9958 10.8212 25.6697 10.4881 25.2675 10.4881H15.9464Z" fill="#989898"/>
<path fill-rule="evenodd" clip-rule="evenodd" d="M27.4522 18.2261C26.9591 18.2261 26.5594 18.6259 26.5594 19.119C26.5594 19.6121 26.9591 20.0118 27.4522 20.0118C27.9454 20.0118 28.3451 19.6121 28.3451 19.119C28.3451 18.6259 27.9454 18.2261 27.4522 18.2261ZM25.0713 19.119C25.0713 17.804 26.1373 16.738 27.4522 16.738C28.7672 16.738 29.8332 17.804 29.8332 19.119C29.8332 20.434 28.7672 21.4999 27.4522 21.4999C26.1373 21.4999 25.0713 20.434 25.0713 19.119Z" fill="#989898"/>
<path d="M14.3564 21.2024C14.3564 21.038 14.4897 20.9048 14.6541 20.9048H26.5588C26.7232 20.9048 26.8564 21.038 26.8564 21.2024V33.1072C26.8564 33.2715 26.7232 33.4048 26.5588 33.4048H14.6541C14.4897 33.4048 14.3564 33.2715 14.3564 33.1072V21.2024Z" fill="white"/>
<path fill-rule="evenodd" clip-rule="evenodd" d="M13.7617 21.3291C13.7617 20.766 14.2182 20.3096 14.7812 20.3096H26.4327C26.9957 20.3096 27.4522 20.766 27.4522 21.3291V32.9805C27.4522 33.5436 26.9957 34 26.4327 34H14.7812C14.2182 34 13.7617 33.5436 13.7617 32.9805V21.3291ZM15.2182 21.766V32.5436H25.9958V21.766H15.2182Z" fill="#989898"/>
</svg>
