<svg width="346" height="647" viewBox="0 0 346 647" fill="none" xmlns="http://www.w3.org/2000/svg">
<path fill-rule="evenodd" clip-rule="evenodd" d="M268.106 240.615C266.702 240.615 265.354 241.196 264.361 242.233L264.077 242.529C263.926 242.687 263.718 242.776 263.5 242.776C263.282 242.776 263.074 242.687 262.922 242.529L262.639 242.233C260.572 240.077 257.215 240.077 255.149 242.233C253.09 244.382 253.09 247.86 255.149 250.009C255.149 250.009 255.149 250.009 255.149 250.009L262.953 258.152C263.24 258.452 263.72 258.463 264.021 258.177C265.817 256.436 267.523 254.612 269.242 252.775C270.104 251.853 270.969 250.928 271.851 250.008L271.851 250.008C272.838 248.978 273.395 247.581 273.395 246.121C273.395 244.661 272.838 243.264 271.851 242.233L271.851 242.233C270.857 241.196 269.509 240.615 268.106 240.615ZM263.5 240.822C264.758 239.656 266.396 239 268.106 239C269.952 239 271.715 239.764 273.005 241.112C274.287 242.448 275 244.25 275 246.121C275 247.992 274.287 249.794 273.005 251.13C272.153 252.019 271.303 252.929 270.447 253.843C268.711 255.699 266.955 257.575 265.132 259.343L265.128 259.347C264.187 260.245 262.698 260.213 261.798 259.274L253.994 251.13C251.335 248.356 251.335 243.886 253.994 241.112C256.596 238.397 260.785 238.3 263.5 240.822Z" fill="white"/>
<path fill-rule="evenodd" clip-rule="evenodd" d="M291.305 279.385C290.146 279.385 289.032 279.882 288.211 280.771L287.977 281.025C287.852 281.16 287.68 281.237 287.5 281.237C287.32 281.237 287.148 281.16 287.023 281.025L286.788 280.771C285.081 278.923 282.308 278.923 280.601 280.771C278.9 282.613 278.9 285.594 280.601 287.436C280.601 287.436 280.601 287.436 280.601 287.436L287.048 294.416C287.286 294.673 287.682 294.683 287.931 294.437C289.414 292.946 290.823 291.382 292.244 289.807C292.956 289.017 293.67 288.224 294.398 287.436L294.398 287.436C295.214 286.553 295.674 285.355 295.674 284.104C295.674 282.852 295.214 281.655 294.398 280.771L294.398 280.771C293.577 279.882 292.464 279.385 291.305 279.385ZM287.5 279.562C288.539 278.562 289.892 278 291.305 278C292.83 278 294.286 278.655 295.352 279.81C296.411 280.956 297 282.5 297 284.104C297 285.707 296.411 287.252 295.352 288.397C294.648 289.159 293.946 289.939 293.239 290.722C291.804 292.314 290.354 293.922 288.848 295.437L288.845 295.44C288.068 296.21 286.838 296.182 286.094 295.377L279.647 288.397C277.451 286.019 277.451 282.188 279.647 279.81C281.797 277.483 285.257 277.4 287.5 279.562Z" fill="white"/>
<path d="M166.734 491.647H87.5784C82.2884 491.647 78 495.923 78 501.198V636.15C78 641.425 82.2884 645.701 87.5784 645.701H166.734C172.024 645.701 176.312 641.425 176.312 636.15V501.198C176.312 495.923 172.024 491.647 166.734 491.647Z" stroke="white" stroke-width="2" stroke-linecap="round" stroke-linejoin="round"/>
<path d="M153.475 449.688H100.864C100.514 449.688 100.178 449.827 99.9306 450.074C99.6831 450.32 99.5439 450.655 99.5439 451.004V465.486C99.5439 465.835 99.6831 466.17 99.9306 466.416C100.178 466.663 100.514 466.802 100.864 466.802H109.993C110.276 466.802 110.548 466.69 110.748 466.49C110.948 466.291 111.061 466.02 111.061 465.738V460.836C111.061 460.554 111.173 460.283 111.373 460.083C111.573 459.884 111.845 459.772 112.128 459.772H142.211C142.494 459.772 142.766 459.884 142.966 460.083C143.166 460.283 143.279 460.554 143.279 460.836V465.626C143.279 465.908 143.391 466.179 143.591 466.378C143.792 466.578 144.063 466.69 144.346 466.69H153.475C153.825 466.69 154.161 466.551 154.409 466.304C154.656 466.058 154.795 465.723 154.795 465.374V450.892C154.767 450.563 154.616 450.256 154.371 450.033C154.126 449.81 153.807 449.687 153.475 449.688Z" stroke="white" stroke-width="2" stroke-linecap="round" stroke-linejoin="round"/>
<path d="M149.375 466.746V491.647" stroke="white" stroke-width="2" stroke-linecap="round" stroke-linejoin="round"/>
<path d="M105.049 466.746V491.647" stroke="white" stroke-width="2" stroke-linecap="round" stroke-linejoin="round"/>
<path d="M99.516 504.307C99.516 502.497 98.0509 501.03 96.2436 501.03C94.4363 501.03 92.9712 502.497 92.9712 504.307V633.041C92.9712 634.851 94.4363 636.318 96.2436 636.318C98.0509 636.318 99.516 634.851 99.516 633.041V504.307Z" stroke="white" stroke-width="2" stroke-linecap="round" stroke-linejoin="round"/>
<path d="M115.443 504.307C115.443 502.497 113.978 501.03 112.17 501.03C110.363 501.03 108.898 502.497 108.898 504.307V633.041C108.898 634.851 110.363 636.318 112.17 636.318C113.978 636.318 115.443 634.851 115.443 633.041V504.307Z" stroke="white" stroke-width="2" stroke-linecap="round" stroke-linejoin="round"/>
<path d="M131.369 504.307C131.369 502.497 129.904 501.03 128.097 501.03C126.29 501.03 124.825 502.497 124.825 504.307V633.041C124.825 634.851 126.29 636.318 128.097 636.318C129.904 636.318 131.369 634.851 131.369 633.041V504.307Z" stroke="white" stroke-width="2" stroke-linecap="round" stroke-linejoin="round"/>
<path d="M147.268 504.307C147.268 502.497 145.803 501.03 143.996 501.03C142.189 501.03 140.724 502.497 140.724 504.307V633.041C140.724 634.851 142.189 636.318 143.996 636.318C145.803 636.318 147.268 634.851 147.268 633.041V504.307Z" stroke="white" stroke-width="2" stroke-linecap="round" stroke-linejoin="round"/>
<path d="M163.195 504.307C163.195 502.497 161.73 501.03 159.922 501.03C158.115 501.03 156.65 502.497 156.65 504.307V633.041C156.65 634.851 158.115 636.318 159.922 636.318C161.73 636.318 163.195 634.851 163.195 633.041V504.307Z" stroke="white" stroke-width="2" stroke-linecap="round" stroke-linejoin="round"/>
<path d="M166.976 374.926C166.758 374.926 166.549 374.839 166.395 374.684C166.241 374.529 166.154 374.319 166.154 374.101V371.778C166.154 371.56 166.241 371.35 166.395 371.195C166.549 371.04 166.758 370.954 166.976 370.954C167.194 370.954 167.404 371.04 167.558 371.195C167.712 371.35 167.799 371.56 167.799 371.778V374.11C167.796 374.327 167.709 374.534 167.555 374.687C167.401 374.84 167.193 374.926 166.976 374.926Z" fill="white"/>
<path d="M220.289 429.978C219.449 429.976 218.616 429.837 217.822 429.565C214.873 428.579 212.782 423.988 212.702 423.791C212.621 423.594 206.161 408.011 199.128 395.01C191.979 381.713 194.714 370.801 194.83 370.317C194.863 370.187 194.931 370.069 195.026 369.976C203.605 361.153 218.26 358.759 220.744 358.401L229.77 344.709C226.267 341.248 226.195 332.874 226.195 332.506C226.196 332.386 226.225 332.268 226.281 332.161C226.336 332.054 226.416 331.962 226.513 331.892C226.611 331.822 226.724 331.776 226.842 331.758C226.961 331.74 227.082 331.751 227.196 331.789C229.877 332.749 232.951 333.197 235.766 329.377C236.776 327.722 237.487 325.901 237.866 323.998C238.759 320.572 239.858 316.69 243.808 315.031C252.851 311.077 259.705 317.578 259.777 317.641C259.855 317.717 259.915 317.81 259.953 317.912C259.992 318.014 260.008 318.123 260 318.232C259.384 329.494 267.605 331.682 267.962 331.762C268.065 331.79 268.161 331.838 268.244 331.904C268.327 331.971 268.395 332.054 268.445 332.148C268.491 332.246 268.515 332.353 268.515 332.462C268.515 332.57 268.491 332.677 268.445 332.775C268.275 333.188 264.388 342.925 262.19 346.942C262.011 347.274 261.823 347.614 261.644 347.964C259.616 351.837 256.783 357.128 248.08 355.639C238.974 354.034 235.918 349.919 235.793 349.748C235.674 349.587 235.624 349.384 235.655 349.186C235.685 348.988 235.792 348.809 235.953 348.69C236.115 348.571 236.316 348.522 236.514 348.552C236.712 348.582 236.889 348.69 237.008 348.852C237.008 348.852 239.894 352.662 248.339 354.142C255.979 355.487 258.311 351.129 260.358 347.283C260.545 346.933 260.733 346.583 260.921 346.252C262.752 342.943 265.853 335.376 266.818 332.991C264.513 332.094 258.115 328.633 258.517 318.546C256.606 316.902 254.27 315.833 251.78 315.464C249.29 315.094 246.746 315.438 244.443 316.457C241.154 317.847 240.278 321.057 239.358 324.455C238.927 326.525 238.131 328.502 237.008 330.292C233.961 334.434 230.449 334.336 227.768 333.573C227.902 335.994 228.501 341.912 231.226 344.001C231.379 344.116 231.482 344.285 231.513 344.474C231.545 344.662 231.503 344.856 231.396 345.014L221.808 359.521C221.749 359.614 221.67 359.692 221.577 359.749C221.485 359.806 221.38 359.842 221.271 359.853C221.111 359.853 205.115 361.924 196.251 370.882C195.929 372.361 194.07 382.466 200.459 394.292C207.528 407.365 214.024 423.038 214.087 423.199C214.596 424.338 216.375 427.485 218.314 428.131C220.994 429.027 223.774 428.068 226.213 425.441C226.669 424.948 227.339 424.203 228.152 423.289C236.141 414.385 241.556 408.791 243.799 408.441C244.371 408.351 244.979 408.324 245.586 408.288C246.963 408.226 248.267 408.154 248.777 407.392C249.188 406.818 249.188 405.742 248.777 404.2C248.724 404.006 248.751 403.799 248.851 403.625C248.951 403.451 249.115 403.324 249.308 403.272C249.501 403.22 249.707 403.246 249.881 403.346C250.054 403.446 250.181 403.612 250.233 403.805C250.778 405.841 250.698 407.302 249.992 408.288C249.045 409.598 247.248 409.687 245.667 409.768C245.086 409.768 244.541 409.822 244.049 409.893C241.878 410.234 232.727 420.429 229.287 424.239C228.465 425.136 227.795 425.907 227.33 426.4C225.159 428.776 222.737 429.978 220.289 429.978Z" fill="white"/>
<path d="M220.512 407.473C220.403 407.474 220.295 407.451 220.195 407.404C220.096 407.358 220.009 407.289 219.94 407.204C219.815 407.056 219.752 406.865 219.763 406.671C219.775 406.477 219.861 406.296 220.003 406.164C220.247 405.933 220.444 405.655 220.58 405.347C220.717 405.039 220.791 404.707 220.798 404.37C220.888 401.905 218.546 398.211 216.178 395.655C213.203 392.445 207.349 375.759 207.108 375.033C207.068 374.938 207.047 374.836 207.047 374.733C207.047 374.63 207.068 374.528 207.11 374.434C207.151 374.339 207.211 374.254 207.286 374.184C207.361 374.114 207.45 374.06 207.547 374.025C207.644 373.991 207.746 373.977 207.849 373.984C207.952 373.991 208.052 374.019 208.143 374.066C208.234 374.114 208.315 374.179 208.379 374.259C208.444 374.339 208.492 374.432 208.52 374.531C210.584 380.431 215.07 392.221 217.277 394.606C218.171 395.503 222.451 400.416 222.299 404.415L241.003 390.141C241.089 390.075 241.19 390.029 241.296 390.006C241.402 389.983 241.513 389.983 241.619 390.007C241.725 390.031 241.825 390.078 241.911 390.144C241.998 390.211 242.069 390.295 242.12 390.392L248.133 401.681C248.186 401.768 248.221 401.866 248.234 401.967C248.248 402.068 248.242 402.171 248.215 402.27C248.188 402.368 248.141 402.46 248.077 402.54C248.013 402.62 247.934 402.686 247.844 402.734C247.754 402.782 247.656 402.812 247.554 402.82C247.453 402.829 247.35 402.817 247.254 402.784C247.157 402.752 247.068 402.7 246.992 402.632C246.916 402.564 246.854 402.482 246.811 402.389L241.208 391.881L220.968 407.329C220.837 407.428 220.676 407.479 220.512 407.473Z" fill="white"/>
<path d="M259.277 379.982C259.106 379.981 258.941 379.921 258.808 379.814C258.675 379.707 258.582 379.557 258.544 379.391C258.544 379.391 257.695 375.661 255.729 369.734C253.88 364.184 242.987 361.664 242.879 361.664C242.711 361.629 242.561 361.537 242.453 361.403C242.346 361.269 242.288 361.101 242.29 360.929V353.487C242.29 353.288 242.369 353.096 242.509 352.955C242.65 352.813 242.841 352.734 243.04 352.734C243.239 352.734 243.43 352.813 243.571 352.955C243.712 353.096 243.791 353.288 243.791 353.487V360.355C246.23 360.974 255.283 363.646 257.15 369.259C259.143 375.266 260.001 379.023 260.01 379.059C260.032 379.155 260.035 379.254 260.019 379.352C260.003 379.449 259.968 379.542 259.915 379.625C259.863 379.709 259.794 379.781 259.714 379.837C259.634 379.894 259.543 379.934 259.447 379.955C259.392 379.973 259.335 379.982 259.277 379.982Z" fill="white"/>
<path d="M224.426 338.604C222.788 338.65 221.186 338.125 219.892 337.118C218.598 336.11 217.692 334.683 217.331 333.08C216.741 330.391 217.554 327.961 219.457 326.804C220.345 326.298 221.37 326.085 222.385 326.196C223.401 326.307 224.355 326.736 225.114 327.423C225.199 327.494 225.268 327.583 225.316 327.684C225.364 327.784 225.389 327.894 225.391 328.006V337.868C225.389 338.063 225.313 338.249 225.178 338.389C225.044 338.529 224.861 338.612 224.667 338.621L224.426 338.604ZM221.745 327.656C221.199 327.655 220.664 327.808 220.199 328.095C218.85 328.92 218.305 330.669 218.76 332.767C219.012 333.948 219.648 335.011 220.569 335.789C221.489 336.566 222.642 337.014 223.845 337.061V328.4C223.245 327.957 222.525 327.707 221.781 327.683L221.745 327.656Z" fill="white"/>
<path d="M239.805 453.173C234.229 453.173 222.889 449.775 220.244 448.753C217.107 447.542 204.668 445.964 204.543 445.946C204.389 445.926 204.246 445.858 204.132 445.752C204.019 445.646 203.941 445.507 203.909 445.355C202.935 440.952 205.472 439.195 206.589 438.648L207.054 432.372C207.062 432.244 207.104 432.12 207.174 432.013C207.245 431.906 207.342 431.82 207.456 431.762C209.86 430.489 209.949 426.678 209.949 426.203L207.769 412.924C204.588 413.157 191.684 413.319 178.584 402.416C163.697 390.016 166.511 376.898 166.637 376.342C166.681 376.149 166.8 375.981 166.968 375.875C167.135 375.77 167.337 375.734 167.53 375.777C167.722 375.824 167.887 375.944 167.992 376.111C168.097 376.279 168.134 376.48 168.093 376.674C168.093 376.799 165.412 389.469 179.54 401.241C193.668 413.014 208.135 411.373 208.296 411.346C208.49 411.32 208.686 411.371 208.843 411.489C209 411.606 209.105 411.78 209.136 411.974L211.442 426.042C211.446 426.077 211.446 426.113 211.442 426.149C211.442 426.355 211.522 430.964 208.52 432.91L208.046 439.186C208.034 439.339 207.975 439.485 207.877 439.603C207.78 439.722 207.648 439.808 207.501 439.849C207.206 439.939 204.695 440.827 205.258 444.485C207.751 444.808 217.768 446.171 220.762 447.309C224.202 448.636 236.847 452.25 241.002 451.541L242.164 451.353C246.632 450.618 253.343 449.506 257.096 446.189C260.572 443.104 262.788 440.961 263.449 440.307C263.449 438.182 263.181 435.062 262.323 434.515C262.261 434.515 262.109 434.38 261.698 434.595C261.576 434.659 261.438 434.688 261.301 434.679C261.164 434.669 261.031 434.622 260.919 434.543C260.806 434.463 260.718 434.354 260.663 434.227C260.608 434.101 260.589 433.961 260.608 433.824C260.608 433.77 261.314 428.158 257.864 426.571C257.76 426.523 257.668 426.452 257.595 426.364C257.523 426.275 257.471 426.171 257.444 426.06C257.337 425.611 254.719 414.924 255.505 408.271C255.694 406.189 256.401 404.188 257.561 402.452C258.508 400.9 259.258 399.681 258.847 395.808C258.826 395.608 258.885 395.408 259.01 395.251C259.136 395.095 259.318 394.995 259.518 394.974C259.717 394.952 259.916 395.011 260.072 395.137C260.228 395.263 260.327 395.447 260.349 395.646C260.813 400.031 259.857 401.591 258.838 403.241C257.797 404.794 257.164 406.586 256.998 408.45C256.318 414.188 258.383 423.486 258.785 425.36C261.895 427.046 262.189 431.027 262.136 432.954C262.475 432.959 262.806 433.059 263.092 433.241C265.049 434.479 264.951 439.643 264.879 440.665C264.87 440.855 264.79 441.034 264.656 441.168C264.656 441.168 262.252 443.579 258.025 447.318C253.95 450.905 246.971 452.079 242.343 452.841L241.199 453.03C240.738 453.113 240.272 453.161 239.805 453.173Z" fill="white"/>
<path d="M167.128 370.084H167.057C166.859 370.066 166.676 369.969 166.549 369.817C166.422 369.664 166.36 369.466 166.377 369.268C167.468 356.41 182.829 341.105 187.475 339.133C191.398 337.465 199.744 331.144 205.204 323.621C205.687 322.958 206.205 322.213 206.759 321.415C212.559 313.149 222.254 299.314 239.045 299H239.688C255.773 299 261.323 310.414 262.323 312.826C263.994 313.14 269.392 314.798 271.045 323.253C272.832 332.48 271.045 343.876 266.756 350.313C262.824 356.231 257.087 368.039 257.033 368.165C256.943 368.343 256.787 368.479 256.599 368.545C256.41 368.61 256.204 368.599 256.024 368.515C255.844 368.426 255.707 368.27 255.642 368.08C255.577 367.89 255.589 367.682 255.675 367.502C255.738 367.385 261.51 355.487 265.505 349.471C269.597 343.32 271.304 332.435 269.571 323.549C267.873 314.879 261.975 314.287 261.725 314.26C261.578 314.248 261.439 314.193 261.323 314.102C261.207 314.011 261.12 313.889 261.072 313.749C260.885 313.193 256.31 300.184 239.072 300.515C223.05 300.811 213.622 314.26 207.992 322.294C207.429 323.101 206.902 323.845 206.42 324.518C201.103 331.852 192.748 338.541 188.056 340.531C183.588 342.414 168.924 357.074 167.87 369.402C167.854 369.589 167.769 369.762 167.632 369.888C167.494 370.015 167.314 370.084 167.128 370.084Z" fill="white"/>
<path d="M247.472 401.994C247.309 401.995 247.151 401.942 247.021 401.844C246.89 401.746 246.796 401.608 246.75 401.451C246.705 401.294 246.711 401.127 246.769 400.974C246.827 400.822 246.932 400.692 247.07 400.605L252.19 397.359C252.297 397.294 252.418 397.257 252.542 397.249C252.667 397.241 252.791 397.263 252.905 397.314C255.479 398.462 259.241 395.458 260.206 393.979C261.519 391.97 264.951 392.087 265.344 392.105C265.417 392.111 265.489 392.126 265.559 392.15C265.63 392.15 273.118 394.839 277.175 395.736C279.025 396.139 279.749 395.835 280.017 395.619C280.095 395.556 280.157 395.475 280.198 395.383C280.238 395.291 280.256 395.191 280.249 395.09C280.249 394.983 280.273 394.877 280.317 394.78C280.362 394.682 280.427 394.595 280.509 394.526C280.586 394.453 280.677 394.398 280.778 394.364C280.878 394.33 280.984 394.318 281.089 394.328C283.842 394.651 284.36 394.095 284.44 393.979C284.521 393.862 284.44 393.414 284.36 393.324C284.29 393.204 284.253 393.068 284.253 392.93C284.253 392.791 284.29 392.655 284.36 392.535C284.434 392.42 284.538 392.327 284.661 392.267C284.784 392.207 284.921 392.182 285.057 392.194C285.155 392.194 285.665 391.827 286.04 390.5C286.317 389.603 282.68 386.573 278.266 384.107C278.171 384.051 278.09 383.976 278.027 383.886C277.964 383.796 277.92 383.695 277.899 383.587C277.175 379.696 275.889 375.159 275.084 374.621C274.477 374.19 273.19 374.621 271.421 375.203C269.709 375.802 267.956 376.273 266.175 376.611C263.209 377.213 260.489 378.69 258.365 380.852L244.327 395.619C244.189 395.764 244 395.849 243.8 395.854C243.601 395.859 243.408 395.784 243.263 395.646C243.119 395.508 243.035 395.319 243.03 395.118C243.025 394.918 243.099 394.724 243.236 394.579L257.284 379.848C259.629 377.439 262.649 375.804 265.943 375.159C267.651 374.829 269.332 374.373 270.974 373.796C273.163 373.07 274.745 372.549 275.969 373.41C277.569 374.522 278.882 380.646 279.338 383.013C282.269 384.681 288.274 388.393 287.514 390.975C287.322 391.968 286.768 392.854 285.959 393.459C286.052 393.938 285.959 394.435 285.7 394.848C285.111 395.745 283.761 396.122 281.581 395.942C281.447 396.25 281.245 396.522 280.991 396.74C280.142 397.457 278.748 397.637 276.836 397.197C272.931 396.355 266.113 393.979 265.165 393.611C264.272 393.611 262.154 393.754 261.466 394.812C260.152 396.821 255.952 399.923 252.682 398.838L247.874 401.878C247.754 401.954 247.614 401.995 247.472 401.994Z" fill="white"/>
<path d="M265.853 402.783C265.47 402.817 265.084 402.758 264.728 402.611C264.372 402.465 264.056 402.235 263.807 401.941C263.628 401.683 263.507 401.388 263.453 401.079C263.399 400.769 263.413 400.451 263.494 400.147L265.121 392.885C265.18 392.706 265.304 392.556 265.468 392.463C265.631 392.371 265.823 392.342 266.007 392.384C266.19 392.425 266.352 392.533 266.46 392.687C266.569 392.841 266.617 393.029 266.595 393.217L264.951 400.515C264.903 400.689 264.922 400.875 265.004 401.035C265.123 401.129 265.26 401.198 265.405 401.238C265.551 401.278 265.703 401.288 265.853 401.268C268.248 401.268 279.516 399.143 280.526 398.202C281 397.282 281.216 396.25 281.152 395.216C281.143 395.016 281.215 394.821 281.349 394.674C281.484 394.527 281.672 394.44 281.871 394.431C282.07 394.423 282.264 394.495 282.411 394.63C282.558 394.765 282.645 394.954 282.653 395.153C282.738 396.533 282.428 397.908 281.759 399.116C280.499 400.802 267.292 402.783 265.853 402.783Z" fill="white"/>
<path d="M290.517 389.11C288.149 389.11 285.048 388.706 283.824 386.788C282.93 385.398 282.68 384.322 283.028 383.488C283.092 383.339 283.176 383.2 283.279 383.076C282.841 382.388 282.612 381.587 282.617 380.771C282.649 379.874 282.99 379.015 283.582 378.341C283.256 377.9 283.022 377.397 282.895 376.862C282.767 376.327 282.749 375.772 282.841 375.23C283.025 374.523 283.473 373.913 284.092 373.527C283.763 373.238 283.505 372.876 283.339 372.47C283.173 372.063 283.103 371.624 283.136 371.186C283.323 370.012 284.467 369.169 286.638 368.604C290.777 367.671 295.045 367.455 299.256 367.968C299.423 367.998 299.578 368.076 299.703 368.192C299.766 368.264 301.338 369.922 300.954 371.778C300.838 372.261 300.618 372.713 300.309 373.102C300 373.491 299.61 373.807 299.167 374.029C299.403 374.428 299.548 374.875 299.591 375.338C299.633 375.8 299.573 376.266 299.414 376.702C299.255 377.138 299.001 377.533 298.671 377.859C298.34 378.184 297.942 378.432 297.505 378.584C297.773 378.971 297.96 379.41 298.055 379.872C298.15 380.334 298.152 380.811 298.059 381.273C297.857 381.897 297.507 382.462 297.04 382.921C296.574 383.38 296.003 383.719 295.378 383.909C295.855 384.791 296.001 385.816 295.789 386.797C295.628 387.292 295.352 387.742 294.984 388.11C294.615 388.478 294.166 388.753 293.671 388.913L293.501 388.957C292.511 389.076 291.514 389.127 290.517 389.11ZM294.538 369.214C292.005 369.197 289.481 369.499 287.023 370.111C284.905 370.657 284.646 371.285 284.619 371.464C284.539 371.967 285.316 372.738 285.87 373.105C285.986 373.182 286.078 373.29 286.137 373.417C286.195 373.544 286.217 373.684 286.201 373.823C286.187 373.961 286.134 374.092 286.049 374.202C285.963 374.311 285.849 374.394 285.718 374.441C284.905 374.746 284.422 375.141 284.297 375.643C284.275 376.063 284.337 376.484 284.48 376.879C284.623 377.275 284.843 377.638 285.128 377.947C285.264 378.088 285.34 378.276 285.34 378.472C285.34 378.667 285.264 378.855 285.128 378.996C284.851 379.222 284.622 379.502 284.456 379.82C284.29 380.137 284.19 380.486 284.163 380.843C284.183 381.557 284.455 382.24 284.932 382.771C285.024 382.87 285.089 382.992 285.119 383.124C285.149 383.257 285.143 383.395 285.102 383.524C285.062 383.652 284.989 383.767 284.89 383.857C284.791 383.947 284.67 384.009 284.539 384.035C284.499 384.058 284.468 384.092 284.449 384.134C284.449 384.223 284.306 384.725 285.128 386.017C286.361 387.935 291.294 387.729 293.171 387.478C293.432 387.396 293.671 387.254 293.87 387.065C294.068 386.875 294.22 386.642 294.315 386.384C294.412 385.522 294.175 384.655 293.653 383.963C293.582 383.867 293.535 383.754 293.516 383.636C293.498 383.517 293.508 383.396 293.546 383.282C293.582 383.17 293.643 383.067 293.725 382.983C293.808 382.899 293.908 382.836 294.02 382.798C295.047 382.466 296.325 381.901 296.549 380.933C296.578 380.537 296.519 380.139 296.377 379.769C296.235 379.398 296.013 379.064 295.726 378.79C295.639 378.697 295.576 378.583 295.544 378.459C295.512 378.335 295.511 378.205 295.542 378.081C295.573 377.956 295.635 377.842 295.722 377.748C295.809 377.654 295.918 377.584 296.039 377.544C296.808 377.31 297.764 376.871 297.987 376.127C298.033 375.788 298.01 375.443 297.919 375.113C297.828 374.784 297.672 374.476 297.46 374.208C297.385 374.117 297.334 374.009 297.309 373.894C297.284 373.778 297.287 373.659 297.317 373.545C297.346 373.43 297.402 373.324 297.48 373.236C297.557 373.147 297.655 373.078 297.764 373.034C298.774 372.621 299.354 372.137 299.48 371.491C299.507 371.125 299.459 370.757 299.339 370.41C299.219 370.063 299.03 369.745 298.783 369.474C297.376 369.316 295.962 369.229 294.547 369.214H294.538Z" fill="white"/>
<path d="M270.652 375.419H270.438C270.255 375.362 270.101 375.238 270.006 375.072C269.912 374.905 269.884 374.708 269.929 374.522L273.575 361.718C273.7 360.849 274.128 360.052 274.782 359.468C275.436 358.885 276.274 358.551 277.149 358.526C279.919 358.195 291.295 357.226 291.777 357.19H291.867C292.408 357.245 292.906 357.512 293.252 357.934C293.443 358.187 293.578 358.478 293.648 358.787C293.717 359.097 293.719 359.417 293.654 359.728C293.43 361.306 291.822 368.389 291.75 368.694C291.707 368.889 291.587 369.058 291.419 369.165C291.25 369.272 291.047 369.307 290.852 369.263C290.658 369.219 290.489 369.1 290.383 368.931C290.276 368.762 290.241 368.557 290.285 368.362C290.285 368.281 291.956 361.037 292.17 359.513C292.218 359.299 292.186 359.076 292.081 358.885C291.999 358.797 291.894 358.734 291.777 358.706C290.642 358.804 279.901 359.728 277.292 360.042C275.237 360.284 275.076 361.736 275.058 361.907C275.066 361.96 275.066 362.014 275.058 362.068L271.385 374.943C271.329 375.09 271.227 375.215 271.096 375.3C270.964 375.386 270.809 375.427 270.652 375.419Z" fill="white"/>
<path d="M265.059 397.278C264.952 397.278 264.846 397.255 264.749 397.21C264.652 397.165 264.565 397.1 264.496 397.018L261.717 393.808C261.586 393.657 261.521 393.46 261.534 393.26C261.548 393.06 261.639 392.874 261.788 392.741C261.862 392.676 261.949 392.625 262.043 392.593C262.137 392.561 262.236 392.548 262.335 392.555C262.433 392.562 262.53 392.588 262.619 392.632C262.707 392.676 262.786 392.738 262.851 392.813L265.63 396.023C265.724 396.133 265.784 396.268 265.804 396.412C265.824 396.555 265.802 396.701 265.742 396.833C265.682 396.965 265.586 397.077 265.465 397.155C265.344 397.234 265.203 397.277 265.059 397.278Z" fill="white"/>
<path d="M270.419 405.715C270.171 405.689 269.934 405.598 269.732 405.452C269.53 405.306 269.369 405.109 269.266 404.881L267.238 402.514C267.109 402.362 267.045 402.165 267.061 401.965C267.077 401.766 267.171 401.581 267.323 401.452C267.474 401.322 267.671 401.258 267.87 401.274C268.068 401.29 268.253 401.385 268.382 401.537L270.267 403.743C270.445 402.706 270.793 401.707 271.295 400.784C271.346 400.696 271.414 400.619 271.496 400.558C271.577 400.497 271.67 400.454 271.769 400.43C271.867 400.406 271.97 400.403 272.07 400.42C272.17 400.437 272.266 400.474 272.351 400.529C272.436 400.585 272.51 400.657 272.566 400.741C272.623 400.826 272.662 400.921 272.681 401.021C272.7 401.121 272.699 401.224 272.677 401.323C272.655 401.423 272.614 401.517 272.555 401.6C272.155 402.39 271.878 403.236 271.733 404.11C271.643 404.514 271.42 405.599 270.553 405.706L270.419 405.715Z" fill="white"/>
<path d="M274.656 428.427C271.367 428.427 262.923 426.902 255.497 412.763C255.45 412.676 255.422 412.58 255.412 412.482C255.403 412.384 255.413 412.285 255.442 412.19C255.471 412.096 255.519 412.009 255.582 411.933C255.645 411.857 255.722 411.795 255.81 411.75C255.897 411.703 255.993 411.674 256.091 411.664C256.19 411.654 256.29 411.664 256.384 411.694C256.479 411.723 256.567 411.77 256.643 411.834C256.719 411.897 256.782 411.975 256.828 412.063C263.87 425.513 271.635 426.92 274.656 426.92C279.49 426.92 281.662 421.415 282.627 416.789C284.128 409.669 283.69 395.081 283.681 394.938C283.676 394.739 283.749 394.546 283.885 394.4C284.02 394.254 284.207 394.167 284.405 394.158C284.505 394.153 284.604 394.168 284.698 394.203C284.791 394.238 284.877 394.291 284.95 394.36C285.022 394.428 285.08 394.511 285.12 394.603C285.16 394.694 285.181 394.793 285.182 394.893C285.182 395.494 285.629 409.804 284.101 417.102C282.573 424.401 279.213 428.427 274.656 428.427Z" fill="white"/>
<path d="M213.944 390.993C213.867 391.002 213.789 391.002 213.712 390.993C213.523 390.929 213.367 390.794 213.277 390.617C213.187 390.439 213.17 390.233 213.229 390.043L216.124 381.076C216.186 380.886 216.32 380.728 216.498 380.637C216.676 380.547 216.882 380.53 217.072 380.592C217.261 380.654 217.419 380.789 217.509 380.967C217.6 381.145 217.616 381.352 217.554 381.543L214.659 390.509C214.604 390.653 214.506 390.778 214.378 390.864C214.25 390.951 214.098 390.996 213.944 390.993Z" fill="white"/>
<path d="M242.084 444.53C237.475 444.497 232.907 443.662 228.582 442.064C225.007 440.594 218.546 441.329 218.484 441.338C218.386 441.349 218.287 441.341 218.192 441.314C218.097 441.286 218.008 441.24 217.931 441.179C217.854 441.117 217.79 441.041 217.742 440.954C217.694 440.868 217.664 440.773 217.653 440.674C217.64 440.576 217.648 440.476 217.674 440.38C217.701 440.285 217.747 440.195 217.808 440.118C217.87 440.04 217.946 439.975 218.033 439.928C218.12 439.88 218.216 439.85 218.314 439.84C218.591 439.84 225.231 439.051 229.154 440.674C233.814 442.393 238.767 443.17 243.728 442.961C248.017 442.647 253.406 438.262 253.459 438.218C253.613 438.091 253.809 438.03 254.007 438.049C254.205 438.067 254.387 438.163 254.514 438.316C254.64 438.472 254.699 438.672 254.679 438.872C254.659 439.072 254.561 439.255 254.407 439.383C254.174 439.571 248.598 444.117 243.835 444.467C243.281 444.512 242.718 444.53 242.084 444.53Z" fill="white"/>
<path d="M249.697 435.304C249.516 435.303 249.34 435.236 249.204 435.116C249.068 434.996 248.979 434.83 248.955 434.65C248.931 434.469 248.973 434.286 249.074 434.134C249.174 433.983 249.326 433.872 249.501 433.824C251.778 433.148 253.869 431.954 255.613 430.336C255.755 430.197 255.946 430.118 256.144 430.118C256.343 430.118 256.534 430.197 256.676 430.336C256.746 430.406 256.802 430.489 256.84 430.581C256.877 430.672 256.897 430.771 256.897 430.87C256.897 430.969 256.877 431.067 256.84 431.159C256.802 431.25 256.746 431.333 256.676 431.403C254.746 433.219 252.416 434.552 249.876 435.295C249.817 435.304 249.757 435.307 249.697 435.304Z" fill="white"/>
<path d="M281 395.853C280.858 395.854 280.718 395.814 280.598 395.736C280.509 395.682 271.617 389.98 264.04 388.563C263.938 388.551 263.84 388.518 263.752 388.466C263.663 388.414 263.586 388.345 263.526 388.262C263.465 388.18 263.422 388.085 263.399 387.985C263.376 387.885 263.373 387.782 263.392 387.681C263.41 387.58 263.448 387.483 263.505 387.398C263.562 387.313 263.635 387.24 263.721 387.184C263.807 387.128 263.903 387.09 264.004 387.073C264.105 387.056 264.208 387.059 264.308 387.084C272.18 388.518 281.036 394.194 281.411 394.436C281.545 394.525 281.647 394.655 281.702 394.807C281.757 394.959 281.762 395.124 281.716 395.279C281.67 395.434 281.575 395.57 281.446 395.666C281.318 395.763 281.161 395.816 281 395.817V395.853Z" fill="white"/>
<path d="M285.379 393.647C285.205 393.65 285.037 393.589 284.905 393.477C284.816 393.405 275.969 386.196 267.668 384.663C267.569 384.643 267.476 384.605 267.393 384.549C267.31 384.494 267.238 384.422 267.183 384.339C267.127 384.256 267.088 384.162 267.069 384.064C267.049 383.966 267.049 383.865 267.069 383.766C267.086 383.666 267.123 383.571 267.177 383.486C267.232 383.401 267.303 383.328 267.387 383.271C267.47 383.214 267.564 383.174 267.663 383.155C267.762 383.135 267.864 383.136 267.962 383.156C276.666 384.77 285.504 391.979 285.834 392.293C285.912 392.355 285.976 392.431 286.023 392.518C286.07 392.605 286.1 392.701 286.11 392.799C286.12 392.898 286.11 392.997 286.081 393.092C286.052 393.187 286.005 393.275 285.942 393.351C285.875 393.439 285.79 393.511 285.693 393.562C285.596 393.613 285.488 393.642 285.379 393.647Z" fill="white"/>
<path d="M278.659 384.223C278.534 384.223 278.411 384.193 278.301 384.134C278.23 384.134 270.911 380.135 267.766 379.973C267.575 379.964 267.396 379.882 267.264 379.743C267.133 379.605 267.059 379.421 267.06 379.229C267.057 379.036 267.129 378.848 267.26 378.706C267.392 378.564 267.573 378.479 267.766 378.467L273.19 378.135C273.363 378.127 273.533 378.179 273.673 378.282C273.813 378.385 273.914 378.532 273.958 378.7L274.378 380.287C274.391 380.37 274.391 380.455 274.378 380.538C276.8 381.614 278.846 382.717 278.998 382.807C279.146 382.886 279.262 383.013 279.33 383.167C279.397 383.32 279.412 383.492 279.371 383.655C279.33 383.818 279.235 383.962 279.103 384.065C278.971 384.168 278.808 384.224 278.641 384.223H278.659ZM272.403 379.74L272.725 379.866V379.722L272.403 379.74Z" fill="white"/>
<path d="M294.038 384.223L284.342 383.999C284.244 383.997 284.147 383.975 284.056 383.935C283.966 383.895 283.885 383.838 283.817 383.766C283.749 383.694 283.695 383.61 283.66 383.518C283.624 383.425 283.607 383.327 283.61 383.228C283.617 383.029 283.701 382.841 283.845 382.703C283.988 382.566 284.18 382.49 284.378 382.493L294.074 382.717C294.273 382.717 294.464 382.796 294.604 382.938C294.745 383.079 294.824 383.27 294.824 383.47C294.824 383.67 294.745 383.861 294.604 384.003C294.464 384.144 294.273 384.223 294.074 384.223H294.038Z" fill="white"/>
<path d="M295.959 379.149H284.566C284.366 379.149 284.176 379.069 284.035 378.928C283.894 378.787 283.815 378.595 283.815 378.395C283.815 378.196 283.894 378.004 284.035 377.863C284.176 377.722 284.366 377.642 284.566 377.642H295.959C296.158 377.642 296.349 377.722 296.49 377.863C296.631 378.004 296.71 378.196 296.71 378.395C296.71 378.595 296.631 378.787 296.49 378.928C296.349 379.069 296.158 379.149 295.959 379.149Z" fill="white"/>
<path d="M298.041 374.468H285.459C285.26 374.468 285.069 374.389 284.928 374.248C284.787 374.106 284.708 373.915 284.708 373.715C284.708 373.515 284.787 373.324 284.928 373.183C285.069 373.041 285.26 372.962 285.459 372.962H298.041C298.24 372.962 298.431 373.041 298.571 373.183C298.712 373.324 298.791 373.515 298.791 373.715C298.791 373.915 298.712 374.106 298.571 374.248C298.431 374.389 298.24 374.468 298.041 374.468Z" fill="white"/>
<path d="M232.165 373.168H231.379C214.892 372.828 210.361 362.337 210.174 361.889C210.099 361.704 210.099 361.498 210.174 361.313C210.249 361.129 210.393 360.982 210.576 360.903C210.666 360.863 210.764 360.842 210.863 360.841C210.962 360.84 211.06 360.859 211.152 360.896C211.243 360.934 211.327 360.99 211.397 361.06C211.466 361.13 211.521 361.214 211.559 361.306C211.737 361.718 215.946 371.339 231.405 371.662C246.659 371.994 247.49 362.992 247.49 362.606C247.497 362.507 247.524 362.411 247.568 362.322C247.612 362.233 247.673 362.154 247.748 362.089C247.823 362.024 247.909 361.975 248.003 361.943C248.097 361.912 248.196 361.9 248.295 361.907C248.393 361.914 248.489 361.94 248.578 361.985C248.666 362.029 248.745 362.09 248.81 362.165C248.874 362.24 248.924 362.327 248.955 362.421C248.986 362.515 248.999 362.615 248.992 362.714C248.974 362.812 248.08 373.168 232.165 373.168Z" fill="white"/>
<path d="M216.384 604.648C212.95 604.591 209.525 604.291 206.134 603.751C205.984 603.729 205.845 603.661 205.735 603.557C205.624 603.452 205.549 603.317 205.517 603.168C204.794 599.689 200.156 553.854 200.611 549.936C200.953 548.146 201.455 546.39 202.113 544.691C204.841 536.845 206.948 528.795 208.413 520.617C210.79 507.956 206.706 496.507 203.105 486.411C201.434 481.73 199.861 477.31 199.271 473.482C197.484 461.825 203.677 445.633 203.936 444.951C203.971 444.859 204.025 444.774 204.093 444.703C204.162 444.631 204.243 444.574 204.334 444.534C204.424 444.494 204.522 444.472 204.621 444.47C204.719 444.468 204.818 444.485 204.91 444.521C205.002 444.557 205.086 444.61 205.157 444.679C205.229 444.748 205.286 444.83 205.326 444.92C205.366 445.011 205.387 445.109 205.39 445.208C205.392 445.307 205.374 445.406 205.339 445.498C205.276 445.659 199.03 461.96 200.763 473.248C201.326 476.933 202.881 481.318 204.517 485.9C208.002 495.673 212.336 507.831 209.878 520.868C208.402 529.119 206.281 537.24 203.534 545.157C202.906 546.76 202.425 548.416 202.095 550.106C201.684 553.406 205.776 595.69 206.885 602.325C210.459 602.863 218.501 603.724 221.325 602.523C221.459 598.282 222.621 565.376 228.027 545.785C230.869 535.465 233.174 523.136 235.176 512.251C237.285 501.008 239.099 491.288 240.94 486.904C244.38 478.7 245.068 458.589 242.897 452.142C242.864 452.049 242.851 451.951 242.857 451.852C242.863 451.754 242.888 451.658 242.931 451.569C242.974 451.481 243.035 451.402 243.109 451.337C243.182 451.272 243.268 451.223 243.361 451.192C243.551 451.129 243.758 451.143 243.937 451.232C244.116 451.321 244.252 451.477 244.318 451.667C246.614 458.463 245.944 478.87 242.325 487.532C240.538 491.772 238.75 501.411 236.65 512.574C234.613 523.486 232.299 535.886 229.439 546.233C223.738 566.918 222.791 602.72 222.782 603.052C222.778 603.179 222.743 603.303 222.679 603.413C222.615 603.522 222.524 603.614 222.415 603.679C221.2 604.397 218.886 604.648 216.384 604.648Z" fill="white"/>
<path d="M270.142 600.909C266.968 600.864 263.805 600.537 260.688 599.931C260.551 599.901 260.425 599.834 260.323 599.738C260.22 599.642 260.146 599.52 260.107 599.384C259.768 598.057 251.636 566.837 255.434 554.042C257.626 546.531 257.626 538.547 255.434 531.035L241.413 486.204C241.353 486.013 241.371 485.805 241.463 485.627C241.555 485.449 241.714 485.315 241.905 485.254C242.095 485.193 242.302 485.211 242.48 485.304C242.658 485.396 242.791 485.556 242.852 485.747L256.855 530.578C259.183 538.378 259.183 546.691 256.855 554.491C253.414 566.066 260.429 594.596 261.421 598.56C265.201 599.268 274.039 600.308 277.211 597.959V534.138C277.211 533.779 277.631 499.358 275.004 486.088C272.376 472.818 263.548 441.194 263.458 440.872C263.412 440.684 263.44 440.485 263.536 440.318C263.633 440.15 263.791 440.027 263.977 439.975C264.164 439.93 264.36 439.959 264.527 440.056C264.693 440.153 264.816 440.31 264.87 440.495C264.96 440.809 273.806 472.45 276.442 485.819C279.078 499.187 278.703 532.757 278.685 534.173V598.326C278.683 598.433 278.659 598.539 278.614 598.636C278.57 598.733 278.506 598.82 278.426 598.891C276.719 600.415 273.422 600.909 270.142 600.909Z" fill="white"/>
<path d="M238.92 646C235.283 646 230.449 644.843 226.526 643.901C223.542 643.184 220.718 642.503 219.601 642.637C217.563 642.87 209.673 643.112 207.367 641.239C207.161 641.086 206.988 640.893 206.859 640.671C206.73 640.449 206.647 640.203 206.617 639.947C206.623 638.144 206.779 636.345 207.081 634.568C207.466 631.555 207.975 627.798 207.564 626.22C206.876 623.387 207.072 622.365 208.708 621.101L207.546 603.356C207.539 603.257 207.551 603.158 207.582 603.064C207.613 602.97 207.663 602.883 207.727 602.808C207.792 602.733 207.871 602.671 207.96 602.627C208.048 602.583 208.144 602.556 208.243 602.55C208.443 602.54 208.638 602.608 208.788 602.74C208.938 602.872 209.031 603.058 209.047 603.258L210.236 621.405C210.246 621.535 210.222 621.665 210.168 621.783C210.113 621.901 210.029 622.002 209.923 622.078C208.672 622.974 208.377 623.181 209.029 625.862C209.476 627.709 209.029 631.456 208.583 634.765C208.306 636.44 208.154 638.133 208.127 639.831C208.127 639.929 208.252 640.037 208.323 640.091C209.869 641.355 216.491 641.508 219.431 641.167C220.825 641.005 223.497 641.642 226.884 642.458C230.923 643.426 235.945 644.628 239.394 644.511C244.881 644.323 245.122 641.651 245.131 641.543C245.471 638.97 245.783 634.487 245.193 633.169C244.72 632.093 242.021 631.627 239.832 631.259C238.795 631.08 237.821 630.909 236.972 630.685C235.015 630.156 231.977 627.466 227.956 622.696L227.795 622.508C227.205 621.818 227.178 620.858 227.134 619.397C227.134 618.626 227.071 617.658 226.955 616.51C226.941 616.332 226.888 616.16 226.8 616.005C226.712 615.85 226.591 615.716 226.446 615.613C225.257 614.717 222.514 615.075 221.558 615.273C221.46 615.293 221.36 615.295 221.262 615.276C221.164 615.258 221.07 615.22 220.987 615.165C220.904 615.109 220.833 615.038 220.777 614.955C220.722 614.872 220.683 614.779 220.664 614.681C220.642 614.583 220.639 614.483 220.657 614.385C220.674 614.286 220.711 614.193 220.765 614.109C220.819 614.025 220.89 613.953 220.972 613.898C221.055 613.842 221.147 613.803 221.245 613.784C221.665 613.694 225.391 612.977 227.321 614.385C227.637 614.61 227.901 614.902 228.094 615.239C228.287 615.577 228.404 615.952 228.438 616.339C228.572 617.541 228.599 618.536 228.626 619.343C228.563 620.083 228.667 620.828 228.93 621.522L229.091 621.71C234.104 627.655 236.418 628.964 237.357 629.215C238.134 629.43 239.081 629.591 240.037 629.762C242.825 630.237 245.694 630.73 246.498 632.541C247.454 634.693 246.65 640.961 246.561 641.669C246.561 641.768 246.355 645.766 239.412 646.009L238.92 646Z" fill="white"/>
<path d="M214.364 625.368C213.07 625.218 211.855 624.667 210.888 623.79C210.738 623.659 210.645 623.473 210.63 623.273C210.615 623.074 210.679 622.876 210.808 622.723C210.873 622.648 210.952 622.587 211.041 622.542C211.129 622.498 211.226 622.472 211.325 622.465C211.424 622.459 211.523 622.472 211.617 622.504C211.71 622.536 211.797 622.586 211.871 622.652C212.461 623.163 213.927 624.113 214.704 623.799C215.24 623.584 215.446 622.679 215.517 622.06C215.246 621.158 215.156 620.21 215.252 619.273C215.349 618.336 215.63 617.427 216.08 616.599C216.609 615.834 217.296 615.193 218.095 614.719C218.894 614.246 219.786 613.951 220.709 613.856V603.276C220.709 603.076 220.788 602.884 220.929 602.743C221.07 602.602 221.261 602.523 221.46 602.523C221.659 602.523 221.85 602.602 221.99 602.743C222.131 602.884 222.21 603.076 222.21 603.276V614.501C222.212 614.687 222.145 614.866 222.023 615.005C221.901 615.144 221.732 615.232 221.549 615.255C219.512 615.497 218.1 616.223 217.358 617.397C216.672 618.743 216.54 620.304 216.992 621.746C217.013 621.85 217.013 621.956 216.992 622.06C216.831 623.746 216.232 624.803 215.204 625.207C214.937 625.312 214.652 625.366 214.364 625.368Z" fill="white"/>
<path d="M233.031 634.487C231.161 634.472 229.305 634.169 227.527 633.59C224.622 632.694 219.02 626.418 218.394 625.655C218.328 625.581 218.277 625.495 218.245 625.401C218.212 625.307 218.198 625.208 218.204 625.109C218.21 625.01 218.235 624.913 218.278 624.823C218.322 624.734 218.382 624.654 218.457 624.588C218.601 624.464 218.787 624.399 218.977 624.405C219.168 624.412 219.349 624.49 219.484 624.624C221.119 626.471 225.829 631.43 227.947 632.111C231.637 633.304 234.595 633.321 236.722 632.165C236.809 632.118 236.905 632.09 237.003 632.08C237.102 632.071 237.201 632.081 237.296 632.11C237.39 632.139 237.478 632.187 237.555 632.25C237.631 632.313 237.694 632.391 237.74 632.479C237.787 632.566 237.815 632.662 237.825 632.761C237.834 632.86 237.824 632.96 237.795 633.055C237.766 633.15 237.719 633.238 237.656 633.314C237.593 633.391 237.515 633.454 237.428 633.501C236.066 634.189 234.555 634.528 233.031 634.487Z" fill="white"/>
<path d="M226.83 622.41H220.181C219.982 622.41 219.791 622.33 219.651 622.189C219.51 622.048 219.431 621.856 219.431 621.656C219.431 621.457 219.51 621.265 219.651 621.124C219.791 620.983 219.982 620.903 220.181 620.903H226.83C227.029 620.903 227.22 620.983 227.36 621.124C227.501 621.265 227.58 621.457 227.58 621.656C227.58 621.856 227.501 622.048 227.36 622.189C227.22 622.33 227.029 622.41 226.83 622.41Z" fill="white"/>
<path d="M292.17 642.413C289.205 642.301 286.271 641.764 283.458 640.817C280.152 639.813 276.747 639.822 273.155 639.84H271.814C267.766 639.84 264.406 639.015 262.333 637.518C260.046 635.859 261.18 630.515 262.056 627.476C262.396 626.283 262.253 626.041 261.922 625.449C261.272 624.308 260.91 623.024 260.868 621.71C260.725 619.917 261.073 618.59 261.913 617.792C262.259 617.462 262.683 617.227 263.146 617.111L261.574 599.519C261.565 599.42 261.575 599.32 261.605 599.226C261.635 599.131 261.683 599.043 261.746 598.967C261.81 598.891 261.887 598.828 261.975 598.782C262.063 598.736 262.159 598.707 262.257 598.699C262.356 598.69 262.455 598.701 262.55 598.73C262.644 598.76 262.732 598.808 262.808 598.872C262.883 598.935 262.946 599.013 262.992 599.101C263.038 599.189 263.066 599.286 263.075 599.385L264.71 617.729C264.721 617.842 264.705 617.956 264.665 618.061C264.625 618.167 264.561 618.262 264.478 618.339C264.399 618.42 264.301 618.481 264.194 618.516C264.087 618.552 263.973 618.562 263.861 618.545C263.529 618.547 263.21 618.675 262.968 618.904C262.695 619.289 262.504 619.727 262.407 620.19C262.31 620.653 262.309 621.131 262.405 621.594C262.432 622.696 262.74 623.773 263.298 624.723C263.597 625.19 263.777 625.724 263.822 626.277C263.868 626.831 263.777 627.387 263.557 627.897C262.333 632.156 262.217 635.536 263.28 636.298C265.068 637.598 268.195 638.343 271.877 638.343H273.208C276.783 638.343 280.429 638.343 283.931 639.383C286.612 640.207 294.762 642.691 298.184 638.773C301.392 635.088 300.329 631.887 299.248 629.807C298.283 627.942 295.459 627.78 292.403 627.78C288.954 627.78 282.502 619.549 281.778 618.608C281.709 618.517 281.661 618.412 281.638 618.3C281.615 618.189 281.617 618.073 281.644 617.962C281.644 617.962 282.537 614.376 280.831 612.583C279.892 611.57 278.266 611.256 275.987 611.686C275.881 611.707 275.77 611.704 275.665 611.676C275.56 611.648 275.462 611.596 275.38 611.525C275.295 611.453 275.228 611.364 275.182 611.263C275.135 611.162 275.111 611.053 275.112 610.942V599.456C275.112 599.257 275.191 599.065 275.331 598.924C275.472 598.782 275.663 598.703 275.862 598.703C276.061 598.703 276.252 598.782 276.393 598.924C276.534 599.065 276.613 599.257 276.613 599.456V610.054C278.981 609.803 280.768 610.314 281.93 611.579C283.797 613.596 283.386 616.851 283.181 617.944C285.79 621.28 290.41 626.265 292.403 626.265C295.799 626.265 299.23 626.489 300.588 629.098C301.33 630.524 303.573 634.873 299.319 639.759C297.523 641.777 294.86 642.413 292.17 642.413Z" fill="white"/>
<path d="M269.249 621.755C267.957 621.652 266.719 621.189 265.675 620.419C265.513 620.3 265.406 620.122 265.376 619.924C265.346 619.725 265.395 619.523 265.514 619.361C265.632 619.199 265.81 619.092 266.008 619.061C266.205 619.031 266.407 619.081 266.568 619.2C267.078 619.567 268.606 620.464 269.633 620.204C269.819 620.155 269.992 620.064 270.137 619.939C270.283 619.813 270.398 619.655 270.473 619.478C270.737 618.677 270.789 617.821 270.625 616.994C270.411 614.779 270.116 611.74 275.62 610.198C275.808 610.156 276.005 610.187 276.171 610.285C276.337 610.383 276.46 610.541 276.514 610.727C276.558 610.914 276.529 611.112 276.433 611.279C276.337 611.446 276.18 611.569 275.996 611.623C271.697 612.834 271.876 614.681 272.082 616.815C272.3 617.924 272.194 619.073 271.778 620.123C271.609 620.493 271.362 620.821 271.053 621.085C270.744 621.348 270.382 621.54 269.991 621.647C269.749 621.715 269.5 621.751 269.249 621.755Z" fill="white"/>
<path d="M281.322 618.348H274.655C274.456 618.348 274.265 618.269 274.125 618.127C273.984 617.986 273.905 617.795 273.905 617.595C273.905 617.395 273.984 617.203 274.125 617.062C274.265 616.921 274.456 616.842 274.655 616.842H281.322C281.521 616.842 281.712 616.921 281.852 617.062C281.993 617.203 282.072 617.395 282.072 617.595C282.072 617.795 281.993 617.986 281.852 618.127C281.712 618.269 281.521 618.348 281.322 618.348Z" fill="white"/>
<path d="M284.592 630.219C278.73 630.219 273.271 622.428 273.029 622.087C272.971 622.005 272.929 621.912 272.906 621.814C272.883 621.716 272.879 621.614 272.895 621.515C272.911 621.415 272.947 621.32 273 621.234C273.053 621.149 273.122 621.074 273.204 621.015C273.285 620.957 273.377 620.914 273.475 620.891C273.573 620.868 273.674 620.865 273.774 620.881C273.873 620.897 273.968 620.933 274.053 620.986C274.139 621.039 274.213 621.108 274.271 621.19C274.325 621.271 279.749 629.054 284.995 628.659C286.359 628.608 287.716 628.44 289.052 628.157C289.142 627.979 289.298 627.843 289.487 627.779C289.676 627.715 289.882 627.729 290.061 627.816C290.22 627.902 290.349 628.033 290.432 628.193C290.514 628.353 290.547 628.534 290.526 628.713C290.401 629.358 289.972 629.771 285.102 630.13L284.592 630.219Z" fill="white"/>
<path d="M247.991 348.897C246.808 348.868 245.646 348.58 244.586 348.054C239.376 345.588 239.787 342.674 240.056 340.764C240.102 340.467 240.132 340.168 240.145 339.868C240.145 339.743 240.177 339.62 240.236 339.511C240.295 339.401 240.381 339.308 240.484 339.24C240.588 339.173 240.707 339.132 240.83 339.121C240.953 339.11 241.077 339.129 241.19 339.177L253.218 344.207C253.312 344.243 253.397 344.299 253.468 344.37C253.538 344.441 253.593 344.526 253.629 344.62C253.669 344.713 253.69 344.814 253.69 344.916C253.69 345.017 253.669 345.118 253.629 345.211C252.89 346.737 251.618 347.936 250.055 348.583C249.391 348.809 248.692 348.915 247.991 348.897ZM241.548 340.917V340.97C241.307 342.764 241.03 344.7 245.238 346.691C245.88 347.046 246.587 347.268 247.316 347.343C248.045 347.419 248.782 347.346 249.483 347.13C250.445 346.745 251.269 346.08 251.851 345.22L241.548 340.917Z" fill="white"/>
<path d="M284.521 366.946C284.153 366.946 283.788 366.873 283.449 366.73C283.076 366.562 282.744 366.314 282.475 366.005C282.207 365.695 282.009 365.331 281.894 364.937C281.662 364.127 281.722 363.26 282.064 362.489C282.391 361.715 282.979 361.08 283.726 360.696C284.091 360.503 284.494 360.395 284.907 360.379C285.319 360.364 285.73 360.442 286.108 360.607C286.487 360.772 286.823 361.021 287.093 361.334C287.363 361.648 287.559 362.018 287.666 362.418C287.892 363.229 287.832 364.094 287.496 364.866C287.161 365.639 286.571 366.272 285.826 366.659C285.418 366.853 284.972 366.951 284.521 366.946ZM285.039 362.203C284.865 362.202 284.693 362.245 284.539 362.328C284.172 362.52 283.887 362.839 283.735 363.225C283.569 363.597 283.534 364.014 283.636 364.408C283.673 364.551 283.739 364.684 283.832 364.799C283.925 364.913 284.041 365.006 284.172 365.072C284.31 365.122 284.456 365.144 284.603 365.135C284.749 365.125 284.891 365.086 285.021 365.018C285.385 364.821 285.669 364.504 285.826 364.121C285.996 363.75 286.028 363.33 285.915 362.938C285.877 362.795 285.81 362.663 285.718 362.548C285.625 362.434 285.51 362.34 285.379 362.274C285.271 362.23 285.156 362.205 285.039 362.203Z" fill="white"/>
<path d="M289.356 367.699C289.249 367.699 289.147 367.656 289.071 367.581C288.996 367.505 288.953 367.402 288.953 367.295C288.951 364.704 287.924 362.22 286.098 360.387C284.272 358.555 281.796 357.525 279.213 357.522C279.106 357.522 279.004 357.48 278.929 357.404C278.853 357.328 278.811 357.226 278.811 357.119C278.811 357.012 278.853 356.909 278.929 356.833C279.004 356.758 279.106 356.715 279.213 356.715C281.795 356.715 284.271 355.687 286.097 353.856C287.924 352.025 288.951 349.541 288.953 346.951C288.953 346.844 288.996 346.741 289.071 346.666C289.147 346.59 289.249 346.548 289.356 346.548C289.462 346.548 289.564 346.59 289.64 346.666C289.715 346.741 289.758 346.844 289.758 346.951C289.76 349.54 290.786 352.022 292.61 353.853C294.435 355.683 296.909 356.713 299.489 356.715C299.596 356.715 299.698 356.758 299.773 356.833C299.849 356.909 299.891 357.012 299.891 357.119C299.891 357.226 299.849 357.328 299.773 357.404C299.698 357.48 299.596 357.522 299.489 357.522C296.907 357.525 294.432 358.555 292.607 360.388C290.783 362.22 289.758 364.705 289.758 367.295C289.758 367.402 289.715 367.505 289.64 367.581C289.564 367.656 289.462 367.699 289.356 367.699ZM282.108 357.119C283.831 357.616 285.4 358.544 286.667 359.816C287.935 361.088 288.86 362.662 289.356 364.39C289.85 362.661 290.774 361.086 292.042 359.814C293.31 358.542 294.879 357.615 296.603 357.119C294.879 356.623 293.309 355.696 292.041 354.424C290.773 353.152 289.849 351.577 289.356 349.847C288.861 351.576 287.937 353.151 286.669 354.423C285.401 355.695 283.832 356.623 282.108 357.119Z" fill="white"/>
<path d="M157 30H125.134C125.134 24.3407 122.93 18.9132 119.006 14.9115C115.081 10.9098 109.759 8.66164 104.209 8.66164C101.546 8.65646 98.9066 9.16972 96.4322 10.1738C94.505 7.34147 91.9335 5.02745 88.9378 3.4298C85.9421 1.83215 82.6114 0.998426 79.2307 1C75.5965 1.00084 72.0253 1.96838 68.8699 3.80706C65.7146 5.64574 63.084 8.29195 61.2383 11.4844C58.0852 9.62059 54.5025 8.64632 50.8581 8.66164C45.3084 8.66164 39.9859 10.9098 36.0617 14.9115C32.1375 18.9132 29.9328 24.3407 29.9328 30H1" stroke="white" stroke-width="2" stroke-linecap="round" stroke-linejoin="round"/>
<path d="M345 116H320.692C320.692 111.707 319.011 107.589 316.017 104.554C313.024 101.518 308.964 99.8123 304.73 99.8123C302.699 99.8084 300.685 100.198 298.798 100.959C297.328 98.8108 295.366 97.0553 293.081 95.8433C290.796 94.6313 288.255 93.9988 285.676 94C282.904 94.0006 280.18 94.7346 277.773 96.1295C275.366 97.5244 273.359 99.5318 271.951 101.954C269.546 100.54 266.813 99.8007 264.033 99.8123C259.799 99.8123 255.739 101.518 252.746 104.554C249.752 107.589 248.071 111.707 248.071 116H226" stroke="white" stroke-width="2" stroke-linecap="round" stroke-linejoin="round"/>
</svg>
