<svg width="341" height="675" viewBox="0 0 341 675" fill="none" xmlns="http://www.w3.org/2000/svg">
<path d="M128.885 439.186C130.486 435.195 131.311 430.936 131.318 426.637C131.318 417.418 127.655 408.575 121.133 402.049C114.611 395.522 105.762 391.845 96.527 391.824C87.2783 391.824 78.4084 395.492 71.8685 402.02C65.3287 408.549 61.6547 417.404 61.6547 426.637C61.6622 430.91 62.4879 435.142 64.0876 439.105C55.767 440.238 48.138 444.338 42.6081 450.647C37.0782 456.956 34.0208 465.049 34 473.432C34.0214 482.659 37.7024 491.501 44.2376 498.025C50.7728 504.549 59.6302 508.224 68.8723 508.245C74.1109 508.222 79.2765 507.016 83.9816 504.716C88.6867 502.417 92.8092 499.084 96.0405 494.968C99.2511 499.087 103.358 502.423 108.051 504.723C112.744 507.023 117.899 508.228 123.127 508.245C132.376 508.245 141.246 504.577 147.786 498.049C154.326 491.52 158 482.665 158 473.432C157.995 465.207 155.066 457.25 149.734 450.978C144.403 444.707 137.015 440.528 128.885 439.186Z" stroke="white" stroke-width="2" stroke-linecap="round" stroke-linejoin="round"/>
<path d="M96.3359 451.332L96.3359 673.056" stroke="white" stroke-width="2" stroke-linecap="round" stroke-linejoin="round"/>
<path d="M75.6592 462.583L95.6906 482.581" stroke="white" stroke-width="2" stroke-linecap="round" stroke-linejoin="round"/>
<path d="M124.422 471.246L95.9565 494.968" stroke="white" stroke-width="2" stroke-linecap="round" stroke-linejoin="round"/>
<path d="M300.085 352.428C302.279 346.956 303.411 341.117 303.42 335.224C303.42 322.585 298.399 310.462 289.457 301.514C280.515 292.567 268.383 287.525 255.723 287.496C243.043 287.496 230.882 292.524 221.916 301.475C212.951 310.426 207.914 322.565 207.914 335.224C207.924 341.081 209.056 346.883 211.249 352.317C199.842 353.87 189.383 359.491 181.801 368.14C174.22 376.79 170.028 387.885 170 399.378C170.029 412.027 175.076 424.15 184.035 433.095C192.995 442.039 205.138 447.077 217.809 447.106C224.991 447.074 232.073 445.42 238.523 442.268C244.974 439.115 250.626 434.546 255.055 428.903C259.457 434.55 265.088 439.123 271.522 442.277C277.955 445.431 285.023 447.082 292.191 447.106C304.871 447.106 317.031 442.078 325.997 433.127C334.963 424.176 340 412.036 340 399.378C339.993 388.101 335.978 377.193 328.668 368.595C321.359 359.997 311.23 354.268 300.085 352.428Z" stroke="white" stroke-width="2" stroke-linecap="round" stroke-linejoin="round"/>
<path d="M254.831 369.08L254.831 673.056" stroke="white" stroke-width="2" stroke-linecap="round" stroke-linejoin="round"/>
<path d="M226.484 384.505L253.947 411.921" stroke="white" stroke-width="2" stroke-linecap="round" stroke-linejoin="round"/>
<path d="M293.966 396.382L254.941 428.903" stroke="white" stroke-width="2" stroke-linecap="round" stroke-linejoin="round"/>
<path d="M140.054 53.8624L139.131 51.2744C138.33 49.029 136.669 47.1938 134.515 46.1725C132.361 45.1511 129.889 45.0274 127.644 45.8284L83.1211 61.7117C83.5182 59.4134 83.9432 56.9172 84.2526 55.0126C85.0216 50.2952 85.2991 39.9231 80.6799 31.4275C76.0608 22.932 67.0914 19.1741 62.8602 20.6835C58.629 22.193 58.7289 26.7123 58.7289 26.7123L64.5189 42.9424L50.5154 74.8157C50.2201 75.4111 50.0481 76.0599 50.0095 76.7233C49.971 77.3867 50.0667 78.0511 50.2909 78.6767L69.6009 132.805C70.224 134.551 71.5152 135.979 73.1907 136.773C74.8662 137.568 76.7886 137.664 78.535 137.041L144.13 113.64C145.385 113.192 146.411 112.264 146.982 111.061C147.552 109.857 147.622 108.476 147.174 107.221L145.432 102.339C145.211 101.717 144.869 101.145 144.427 100.655C143.984 100.165 143.45 99.7673 142.853 99.4843C142.257 99.2013 141.611 99.0386 140.952 99.0055C140.293 98.9723 139.633 99.0694 139.012 99.2912L142.834 97.9276C144.51 97.3297 145.88 96.0906 146.642 94.4828C147.404 92.875 147.497 91.0302 146.899 89.3543L145.787 86.2384C145.491 85.4071 145.033 84.6424 144.44 83.9881C143.848 83.3338 143.132 82.8028 142.334 82.4254C141.537 82.048 140.672 81.8317 139.79 81.7888C138.909 81.7459 138.027 81.8773 137.197 82.1754L140.046 81.1587C141.836 80.5203 143.299 79.1971 144.113 77.4802C144.927 75.7633 145.025 73.7934 144.387 72.0038L143.59 69.7692C142.951 67.9796 141.628 66.5169 139.911 65.7029C138.194 64.8889 136.224 64.7902 134.435 65.4287L134.613 65.365C135.727 64.9678 136.751 64.3551 137.627 63.5618C138.503 62.7686 139.214 61.8103 139.719 60.7419C140.224 59.6735 140.514 58.516 140.571 57.3355C140.629 56.155 140.453 54.9748 140.054 53.8624Z" stroke="white" stroke-width="2" stroke-linecap="round" stroke-linejoin="round"/>
<path d="M40.7323 79.8004L21.3268 86.7232C18.5011 87.7313 17.0276 90.8391 18.0357 93.6648L36.768 146.174C37.776 148.999 40.8838 150.473 43.7095 149.465L63.1151 142.542C65.9407 141.534 67.4142 138.426 66.4062 135.6L47.6739 83.0915C46.6658 80.2658 43.558 78.7923 40.7323 79.8004Z" stroke="white" stroke-width="2" stroke-linecap="round" stroke-linejoin="round"/>
<path d="M212.277 215.896L212.628 214.142C212.933 212.62 212.62 211.039 211.759 209.748C210.898 208.456 209.559 207.56 208.037 207.255L177.857 201.218C178.848 200.068 179.921 198.816 180.732 197.856C182.741 195.479 186.368 189.78 186.633 183.489C186.898 177.199 183.148 172.097 180.279 171.523C177.411 170.95 175.954 173.507 175.954 173.507L173.753 184.509L155.262 197.619C154.898 197.853 154.584 198.157 154.341 198.515C154.097 198.872 153.928 199.275 153.844 199.7L146.504 236.391C146.268 237.575 146.511 238.805 147.18 239.809C147.85 240.814 148.891 241.511 150.075 241.748L194.54 250.642C195.391 250.812 196.274 250.638 196.996 250.157C197.717 249.675 198.219 248.927 198.389 248.077L199.051 244.767C199.135 244.346 199.136 243.912 199.053 243.49C198.97 243.069 198.804 242.668 198.566 242.31C198.328 241.952 198.022 241.645 197.665 241.406C197.308 241.167 196.907 241 196.486 240.916L199.077 241.434C200.213 241.661 201.392 241.428 202.356 240.785C203.32 240.143 203.99 239.144 204.217 238.007L204.639 235.895C204.752 235.332 204.753 234.752 204.641 234.188C204.529 233.624 204.307 233.088 203.988 232.61C203.669 232.132 203.258 231.722 202.78 231.403C202.302 231.084 201.766 230.862 201.203 230.75L203.134 231.137C204.347 231.379 205.607 231.13 206.637 230.444C207.666 229.758 208.381 228.691 208.623 227.478L208.926 225.963C209.169 224.75 208.92 223.49 208.234 222.461C207.547 221.431 206.48 220.717 205.267 220.474L205.388 220.498C206.143 220.649 206.92 220.65 207.675 220.5C208.429 220.35 209.147 220.053 209.787 219.626C210.427 219.198 210.976 218.649 211.404 218.009C211.831 217.369 212.128 216.651 212.277 215.896Z" stroke="white" stroke-width="2" stroke-linecap="round" stroke-linejoin="round"/>
<path d="M148.13 197.127L134.976 194.496C133.061 194.113 131.197 195.355 130.814 197.27L123.694 232.864C123.311 234.779 124.553 236.643 126.469 237.026L139.623 239.657C141.538 240.04 143.402 238.798 143.785 236.883L150.905 201.289C151.288 199.373 150.046 197.51 148.13 197.127Z" stroke="white" stroke-width="2" stroke-linecap="round" stroke-linejoin="round"/>
</svg>
