<svg width="41" height="41" viewBox="0 0 41 41" fill="none" xmlns="http://www.w3.org/2000/svg">
<path fill-rule="evenodd" clip-rule="evenodd" d="M26.5943 11.6835C25.4814 11.6835 24.5793 12.5857 24.5793 13.6985C24.5793 14.8114 25.4814 15.7135 26.5943 15.7135C27.7071 15.7135 28.6093 14.8114 28.6093 13.6985C28.6093 12.5857 27.7071 11.6835 26.5943 11.6835ZM22.7021 13.6985C22.7021 11.549 24.4447 9.8064 26.5943 9.8064C28.7439 9.8064 30.4864 11.549 30.4864 13.6985C30.4864 15.8481 28.7439 17.5907 26.5943 17.5907C24.4447 17.5907 22.7021 15.8481 22.7021 13.6985Z" fill="#989898"/>
<path fill-rule="evenodd" clip-rule="evenodd" d="M26.2401 26.0075C25.0261 26.0075 24.0419 26.9917 24.0419 28.2057C24.0419 29.4197 25.0261 30.4039 26.2401 30.4039C27.4541 30.4039 28.4383 29.4197 28.4383 28.2057C28.4383 26.9917 27.4541 26.0075 26.2401 26.0075ZM21.9941 28.2057C21.9941 25.8607 23.8951 23.9597 26.2401 23.9597C28.5851 23.9597 30.4861 25.8607 30.4861 28.2057C30.4861 30.5507 28.5851 32.4517 26.2401 32.4517C23.8951 32.4517 21.9941 30.5507 21.9941 28.2057Z" fill="#989898"/>
<path fill-rule="evenodd" clip-rule="evenodd" d="M12.441 18.9308C11.3281 18.9308 10.426 19.915 10.426 21.129C10.426 22.343 11.3281 23.3272 12.441 23.3272C13.5538 23.3272 14.456 22.343 14.456 21.129C14.456 19.915 13.5538 18.9308 12.441 18.9308ZM8.54883 21.129C8.54883 18.784 10.2914 16.8831 12.441 16.8831C14.5905 16.8831 16.3331 18.784 16.3331 21.129C16.3331 23.474 14.5905 25.375 12.441 25.375C10.2914 25.375 8.54883 23.474 8.54883 21.129Z" fill="#989898"/>
<path fill-rule="evenodd" clip-rule="evenodd" d="M24.7223 15.3042C24.9618 15.7903 24.7676 16.3814 24.2885 16.6244L15.6138 21.0249C15.1347 21.2679 14.5521 21.0709 14.3126 20.5848C14.073 20.0987 14.2672 19.5076 14.7463 19.2646L23.421 14.8641C23.9001 14.6211 24.4827 14.8181 24.7223 15.3042Z" fill="#989898"/>
<path fill-rule="evenodd" clip-rule="evenodd" d="M14.3057 22.3204C14.5293 21.8883 15.0731 21.7132 15.5203 21.9292L23.6166 25.8407C24.0638 26.0568 24.245 26.5822 24.0215 27.0143C23.7979 27.4463 23.2541 27.6215 22.8069 27.4054L14.7106 23.4939C14.2634 23.2779 14.0821 22.7525 14.3057 22.3204Z" fill="#989898"/>
<circle cx="20.5" cy="20.5" r="19.5" stroke="#989898" stroke-width="2"/>
</svg>
