<svg width="11" height="11" viewBox="0 0 11 11" fill="none" xmlns="http://www.w3.org/2000/svg">
<path fill-rule="evenodd" clip-rule="evenodd" d="M5.48173 1.05769C3.03646 1.05769 1.05418 3.04658 1.05418 5.5C1.05418 7.95342 3.03646 9.94231 5.48173 9.94231C7.927 9.94231 9.90928 7.95342 9.90928 5.5C9.90928 3.04658 7.927 1.05769 5.48173 1.05769ZM0 5.5C0 2.46243 2.45425 0 5.48173 0C8.5092 0 10.9635 2.46243 10.9635 5.5C10.9635 8.53757 8.5092 11 5.48173 11C2.45425 11 0 8.53757 0 5.5Z" fill="#828282"/>
<path fill-rule="evenodd" clip-rule="evenodd" d="M5.47592 1C5.20402 1 4.9836 1.25171 4.9836 1.56222V5.43778C4.9836 5.74829 5.20402 6 5.47592 6H7.48131C7.75321 6 7.97363 5.74829 7.97363 5.43778C7.97363 5.12728 7.75321 4.87556 7.48131 4.87556H5.96824V1.56222C5.96824 1.25171 5.74782 1 5.47592 1Z" fill="#828282"/>
</svg>
