<svg width="60" height="60" viewBox="0 0 60 60" fill="none" xmlns="http://www.w3.org/2000/svg">
<circle cx="30" cy="30" r="30" fill="white"/>
<path d="M14.8375 33.6576H18.119L18.2296 33.4904C14.52 32.2406 12.339 29.8514 12.1666 25.9176L15.3648 26.6119L15.4682 26.4617C12.0201 23.4079 10.9555 19.8412 12.9396 15.461C17.5371 20.8034 23.2927 23.6332 30.3082 24.1902C29.9893 21.9795 30.199 19.9729 31.2133 18.0967C33.4173 14.0269 38.7634 12.3165 43.2028 16.1256C43.8163 16.6527 44.3623 16.7817 45.062 16.5351C46.3162 16.093 47.5662 15.6381 48.8822 15.1648C48.1998 16.7236 47.1481 18.0103 45.8033 19.2162C46.4743 19.0844 47.1524 18.9838 47.8147 18.8109C48.5015 18.631 49.1681 18.3858 50 18.2852C49.1509 19.3594 48.3664 20.4944 47.4254 21.4821C46.9225 22.0107 46.7961 22.5067 46.8004 23.1699C46.8406 29.7012 44.4111 35.215 39.6168 39.6887C35.9157 43.1393 31.4806 45.1303 26.4161 45.7963C20.8947 46.5218 15.8116 45.2748 11 42.6036C13.0014 42.632 14.9783 42.5087 16.8906 41.8951C18.8029 41.2815 20.6261 40.4979 22.2323 39.0284C18.7555 38.514 16.0946 37.1068 14.8375 33.6576Z" fill="#70695F"/>
</svg>
