<svg width="19" height="8" viewBox="0 0 19 8" fill="none" xmlns="http://www.w3.org/2000/svg">
<path fill-rule="evenodd" clip-rule="evenodd" d="M1.70083 4.50283C1.66072 4.47722 1.62235 4.45243 1.58576 4.42857C1.63921 4.38173 1.69693 4.33188 1.75879 4.27941C2.18106 3.92113 2.79327 3.4425 3.54932 2.96417C5.0698 2.00223 7.12777 1.06952 9.37043 1.06952C11.6131 1.06952 13.6711 2.00223 15.1915 2.96417C15.9476 3.4425 16.5598 3.92113 16.9821 4.27941C17.0439 4.33188 17.1017 4.38173 17.1551 4.42857C17.1185 4.45243 17.0801 4.47722 17.04 4.50283C16.6182 4.77225 16.0053 5.13301 15.2473 5.49397C13.7264 6.21821 11.6483 6.93048 9.37043 6.93048C7.09257 6.93048 5.01442 6.21821 3.49358 5.49397C2.73561 5.13301 2.1227 4.77225 1.70083 4.50283ZM18.385 4.11416C18.3851 4.11431 18.3852 4.11444 18.0048 4.48891C18.3292 4.91315 18.3291 4.91326 18.3289 4.91337L18.3286 4.91366L18.3275 4.91445L18.3244 4.91683L18.314 4.92476L18.2764 4.9528C18.244 4.97672 18.1972 5.01088 18.1365 5.05381C18.0152 5.13965 17.8386 5.26066 17.6124 5.40508C17.1604 5.69372 16.5089 6.07705 15.7044 6.46018C14.1002 7.2241 11.8612 8 9.37043 8C6.87969 8 4.64068 7.2241 3.03651 6.46018C2.23197 6.07705 1.58041 5.69372 1.12844 5.40508C0.9023 5.26066 0.725667 5.13965 0.604354 5.05381C0.543685 5.01088 0.496812 4.97672 0.46446 4.9528L0.4269 4.92476L0.416448 4.91683L0.413334 4.91445L0.411928 4.91337C0.411776 4.91326 0.411638 4.91315 0.736109 4.48891C0.355616 4.11444 0.355744 4.11431 0.355886 4.11416L0.357228 4.11279L0.360259 4.10972L0.370546 4.09935C0.37927 4.0906 0.391715 4.07821 0.40779 4.06242C0.439937 4.03083 0.486621 3.98563 0.547119 3.92876C0.668079 3.81505 0.844469 3.6545 1.07049 3.46274C1.52205 3.07961 2.17431 2.5697 2.98076 2.05949C4.5853 1.04436 6.84449 0 9.37043 0C11.8964 0 14.1556 1.04436 15.7601 2.05949C16.5666 2.5697 17.2188 3.07961 17.6704 3.46274C17.8964 3.6545 18.0728 3.81505 18.1937 3.92876C18.2542 3.98563 18.3009 4.03083 18.3331 4.06242C18.3491 4.07821 18.3616 4.0906 18.3703 4.09935L18.3806 4.10972L18.3836 4.11279L18.3846 4.1138L18.385 4.11416ZM0.736109 4.48891L0.411638 4.91315C0.290586 4.81995 0.215153 4.67916 0.204441 4.52645C0.19373 4.37373 0.248768 4.22373 0.355616 4.11444L0.736109 4.48891ZM18.0048 4.48891L18.3852 4.11444C18.4921 4.22373 18.5471 4.37373 18.5364 4.52645C18.5257 4.67916 18.4503 4.81995 18.3292 4.91315L18.0048 4.48891ZM7.71732 3.99995C7.71732 2.99324 8.48344 2.22455 9.3717 2.22455C10.26 2.22455 11.0261 2.99324 11.0261 3.99995C11.0261 5.00665 10.26 5.77535 9.3717 5.77535C8.48344 5.77535 7.71732 5.00665 7.71732 3.99995ZM9.3717 1.15503C7.84387 1.15503 6.65136 2.45492 6.65136 3.99995C6.65136 5.54498 7.84387 6.84487 9.3717 6.84487C10.8995 6.84487 12.092 5.54498 12.092 3.99995C12.092 2.45492 10.8995 1.15503 9.3717 1.15503Z" fill="#828282"/>
</svg>
