<svg width="578" height="265" viewBox="0 0 578 265" fill="none" xmlns="http://www.w3.org/2000/svg">
<path d="M75.1023 186.927C75.6147 185.649 75.8791 184.286 75.8814 182.909C75.8814 179.957 74.7085 177.125 72.6199 175.035C70.5313 172.946 67.6977 171.768 64.7406 171.761C61.779 171.761 58.9386 172.936 56.8445 175.026C54.7503 177.117 53.5738 179.952 53.5738 182.909C53.5762 184.277 53.8406 185.632 54.3529 186.901C51.6885 187.264 49.2455 188.577 47.4747 190.597C45.704 192.618 44.7249 195.209 44.7183 197.894C44.7251 200.848 45.9038 203.68 47.9965 205.769C50.0892 207.858 52.9255 209.035 55.885 209.042C57.5625 209.034 59.2166 208.648 60.7233 207.912C62.2299 207.175 63.5501 206.108 64.5848 204.79C65.6129 206.109 66.9281 207.177 68.4308 207.914C69.9335 208.65 71.5844 209.036 73.2585 209.042C76.2201 209.042 79.0604 207.867 81.1546 205.776C83.2488 203.686 84.4253 200.85 84.4253 197.894C84.4238 195.26 83.4859 192.712 81.7786 190.704C80.0713 188.695 77.7054 187.357 75.1023 186.927Z" stroke="white" stroke-width="2" stroke-linecap="round" stroke-linejoin="round"/>
<path d="M65 190.817L65 261.817" stroke="white" stroke-width="2" stroke-linecap="round" stroke-linejoin="round"/>
<path d="M58.3779 194.42L64.7923 200.823" stroke="white" stroke-width="2" stroke-linecap="round" stroke-linejoin="round"/>
<path d="M73.6738 197.194L64.5586 204.79" stroke="white" stroke-width="2" stroke-linecap="round" stroke-linejoin="round"/>
<path d="M368.384 186.927C368.896 185.649 369.161 184.286 369.163 182.909C369.163 179.957 367.99 177.125 365.902 175.035C363.813 172.946 360.979 171.768 358.022 171.761C355.061 171.761 352.22 172.936 350.126 175.026C348.032 177.117 346.856 179.952 346.856 182.909C346.858 184.277 347.122 185.632 347.635 186.901C344.97 187.264 342.527 188.577 340.756 190.597C338.986 192.618 338.007 195.209 338 197.894C338.007 200.848 339.186 203.68 341.278 205.769C343.371 207.858 346.207 209.035 349.167 209.042C350.844 209.034 352.498 208.648 354.005 207.912C355.512 207.175 356.832 206.108 357.867 204.79C358.895 206.109 360.21 207.177 361.713 207.914C363.215 208.65 364.866 209.036 366.54 209.042C369.502 209.042 372.342 207.867 374.436 205.776C376.531 203.686 377.707 200.85 377.707 197.894C377.706 195.26 376.768 192.712 375.06 190.704C373.353 188.695 370.987 187.357 368.384 186.927Z" stroke="white" stroke-width="2" stroke-linecap="round" stroke-linejoin="round"/>
<path d="M358.282 190.817L358.282 261.817" stroke="white" stroke-width="2" stroke-linecap="round" stroke-linejoin="round"/>
<path d="M351.66 194.42L358.074 200.823" stroke="white" stroke-width="2" stroke-linecap="round" stroke-linejoin="round"/>
<path d="M366.956 197.194L357.84 204.79" stroke="white" stroke-width="2" stroke-linecap="round" stroke-linejoin="round"/>
<path d="M31.384 212.559C31.8964 211.281 32.1609 209.917 32.1632 208.541C32.1632 205.589 30.9902 202.757 28.9016 200.667C26.8131 198.577 23.9794 197.4 21.0223 197.393C18.0607 197.393 15.2204 198.567 13.1262 200.658C11.032 202.749 9.85554 205.584 9.85554 208.541C9.85795 209.909 10.1224 211.264 10.6346 212.533C7.9702 212.896 5.52723 214.209 3.75646 216.229C1.98569 218.249 1.00665 220.841 1 223.525C1.00688 226.478 2.18641 229.306 4.27984 231.391C6.37328 233.476 9.20964 234.647 12.1668 234.647C13.8425 234.645 15.4958 234.263 17.0026 233.532C18.5094 232.8 19.8305 231.736 20.8665 230.422C21.8959 231.737 23.212 232.802 24.7149 233.534C26.2178 234.266 27.8679 234.647 29.5402 234.647C31.0055 234.651 32.4569 234.366 33.8116 233.808C35.1663 233.251 36.3975 232.432 37.4348 231.399C38.472 230.366 39.295 229.139 39.8565 227.788C40.4181 226.437 40.707 224.988 40.707 223.525C40.7055 220.891 39.7676 218.344 38.0603 216.335C36.353 214.327 33.9871 212.989 31.384 212.559Z" stroke="white" stroke-width="2" stroke-linecap="round" stroke-linejoin="round"/>
<path d="M20.8403 216.007V261.817" stroke="white" stroke-width="2" stroke-linecap="round" stroke-linejoin="round"/>
<path d="M14.6597 220.052L21.0741 226.455" stroke="white" stroke-width="2" stroke-linecap="round" stroke-linejoin="round"/>
<path d="M29.9556 222.825L20.8403 230.421" stroke="white" stroke-width="2" stroke-linecap="round" stroke-linejoin="round"/>
<path d="M413.665 212.559C414.178 211.281 414.442 209.917 414.444 208.541C414.444 205.589 413.271 202.757 411.183 200.667C409.094 198.577 406.261 197.4 403.304 197.393C400.342 197.393 397.502 198.567 395.407 200.658C393.313 202.749 392.137 205.584 392.137 208.541C392.139 209.909 392.404 211.264 392.916 212.533C390.251 212.896 387.808 214.209 386.038 216.229C384.267 218.249 383.288 220.841 383.281 223.525C383.288 226.478 384.468 229.306 386.561 231.391C388.655 233.476 391.491 234.647 394.448 234.647C396.124 234.645 397.777 234.263 399.284 233.532C400.791 232.8 402.112 231.736 403.148 230.422C404.177 231.737 405.493 232.802 406.996 233.534C408.499 234.266 410.149 234.647 411.821 234.647C413.287 234.651 414.738 234.366 416.093 233.808C417.448 233.251 418.679 232.432 419.716 231.399C420.753 230.366 421.576 229.139 422.138 227.788C422.699 226.437 422.988 224.988 422.988 223.525C422.987 220.891 422.049 218.344 420.342 216.335C418.634 214.327 416.268 212.989 413.665 212.559Z" stroke="white" stroke-width="2" stroke-linecap="round" stroke-linejoin="round"/>
<path d="M403.122 216.007V261.817" stroke="white" stroke-width="2" stroke-linecap="round" stroke-linejoin="round"/>
<path d="M396.941 220.052L403.355 226.455" stroke="white" stroke-width="2" stroke-linecap="round" stroke-linejoin="round"/>
<path d="M412.237 222.825L403.122 230.421" stroke="white" stroke-width="2" stroke-linecap="round" stroke-linejoin="round"/>
<path d="M551.579 243.055H571.173V225.252C571.173 220.027 565.055 219.198 565.055 219.198H546.068C544.221 194.124 529.836 190.835 529.836 190.835H485.136C485.136 190.835 470.751 194.124 468.904 219.198H449.917C449.917 219.198 443.799 220.027 443.799 225.252V243.055H463.393" stroke="white" stroke-width="2" stroke-linecap="round" stroke-linejoin="round"/>
<path d="M528.32 243.055H507.486H486.68" stroke="white" stroke-width="2" stroke-linecap="round" stroke-linejoin="round"/>
<path d="M475.656 261.55C482.46 261.55 487.975 256.017 487.975 249.193C487.975 242.368 482.46 236.835 475.656 236.835C468.853 236.835 463.338 242.368 463.338 249.193C463.338 256.017 468.853 261.55 475.656 261.55Z" stroke="white" stroke-width="2" stroke-linecap="round" stroke-linejoin="round"/>
<path d="M538.986 261.55C545.789 261.55 551.304 256.017 551.304 249.193C551.304 242.368 545.789 236.835 538.986 236.835C532.182 236.835 526.667 242.368 526.667 249.193C526.667 256.017 532.182 261.55 538.986 261.55Z" stroke="white" stroke-width="2" stroke-linecap="round" stroke-linejoin="round"/>
<path d="M475.436 254.334C478.267 254.334 480.562 252.032 480.562 249.192C480.562 246.353 478.267 244.051 475.436 244.051C472.605 244.051 470.311 246.353 470.311 249.192C470.311 252.032 472.605 254.334 475.436 254.334Z" stroke="white" stroke-width="2" stroke-linecap="round" stroke-linejoin="round"/>
<path d="M539.398 254.334C542.229 254.334 544.524 252.032 544.524 249.192C544.524 246.353 542.229 244.051 539.398 244.051C536.567 244.051 534.272 246.353 534.272 249.192C534.272 252.032 536.567 254.334 539.398 254.334Z" stroke="white" stroke-width="2" stroke-linecap="round" stroke-linejoin="round"/>
<path d="M500.156 196.364H507.514V219.17H480.534V216.019C480.534 213.435 481.042 210.877 482.028 208.491C483.015 206.104 484.46 203.936 486.283 202.111C488.105 200.285 490.269 198.838 492.649 197.852C495.029 196.866 497.58 196.36 500.156 196.364Z" stroke="white" stroke-width="2" stroke-linecap="round" stroke-linejoin="round"/>
<path d="M534.438 219.198H507.486V196.364H514.845C520.041 196.364 525.025 198.434 528.7 202.12C532.374 205.807 534.438 210.806 534.438 216.019V219.198Z" stroke="white" stroke-width="2" stroke-linecap="round" stroke-linejoin="round"/>
<path d="M495.25 227.989H502.911" stroke="white" stroke-width="2" stroke-linecap="round" stroke-linejoin="round"/>
<path d="M522.836 227.989H530.497" stroke="white" stroke-width="2" stroke-linecap="round" stroke-linejoin="round"/>
<path d="M443.027 243.055H463.393V252.786H443.027C441.741 252.786 440.507 252.274 439.597 251.361C438.688 250.449 438.177 249.211 438.177 247.921C438.177 246.63 438.688 245.393 439.597 244.48C440.507 243.568 441.741 243.055 443.027 243.055Z" stroke="white" stroke-width="2" stroke-linecap="round" stroke-linejoin="round"/>
<path d="M571.945 252.786H551.689V243.055H572.055C573.341 243.055 574.575 243.568 575.485 244.48C576.394 245.393 576.905 246.63 576.905 247.921C576.905 248.569 576.776 249.211 576.526 249.809C576.275 250.406 575.908 250.948 575.446 251.401C574.984 251.854 574.436 252.21 573.835 252.448C573.234 252.686 572.591 252.801 571.945 252.786Z" stroke="white" stroke-width="2" stroke-linecap="round" stroke-linejoin="round"/>
<path d="M323.053 48.5079H164.625V262.08H323.053V48.5079Z" stroke="white" stroke-width="2" stroke-linecap="round" stroke-linejoin="round"/>
<path d="M325.905 37.0674H161.774V48.5082H325.905V37.0674Z" stroke="white" stroke-width="2" stroke-linecap="round" stroke-linejoin="round"/>
<path d="M318.434 37.0672H169.216L184.13 1H303.521L318.434 37.0672Z" stroke="white" stroke-width="2" stroke-linecap="round" stroke-linejoin="round"/>
<path d="M197.246 70.7605H185.527V99.048H197.246V70.7605Z" stroke="white" stroke-width="2" stroke-linecap="round" stroke-linejoin="round"/>
<path d="M208.966 70.7605H197.247V99.048H208.966V70.7605Z" stroke="white" stroke-width="2" stroke-linecap="round" stroke-linejoin="round"/>
<path d="M243.839 70.7605H232.119V99.048H243.839V70.7605Z" stroke="white" stroke-width="2" stroke-linecap="round" stroke-linejoin="round"/>
<path d="M255.559 70.7605H243.839V99.048H255.559V70.7605Z" stroke="white" stroke-width="2" stroke-linecap="round" stroke-linejoin="round"/>
<path d="M290.404 70.7605H278.685V99.048H290.404V70.7605Z" stroke="white" stroke-width="2" stroke-linecap="round" stroke-linejoin="round"/>
<path d="M302.123 70.7605H290.403V99.048H302.123V70.7605Z" stroke="white" stroke-width="2" stroke-linecap="round" stroke-linejoin="round"/>
<path d="M197.246 121.3H185.527V149.588H197.246V121.3Z" stroke="white" stroke-width="2" stroke-linecap="round" stroke-linejoin="round"/>
<path d="M208.966 121.3H197.247V149.588H208.966V121.3Z" stroke="white" stroke-width="2" stroke-linecap="round" stroke-linejoin="round"/>
<path d="M243.839 121.3H232.119V149.588H243.839V121.3Z" stroke="white" stroke-width="2" stroke-linecap="round" stroke-linejoin="round"/>
<path d="M255.559 121.3H243.839V149.588H255.559V121.3Z" stroke="white" stroke-width="2" stroke-linecap="round" stroke-linejoin="round"/>
<path d="M290.404 121.3H278.685V149.588H290.404V121.3Z" stroke="white" stroke-width="2" stroke-linecap="round" stroke-linejoin="round"/>
<path d="M302.123 121.3H290.403V149.588H302.123V121.3Z" stroke="white" stroke-width="2" stroke-linecap="round" stroke-linejoin="round"/>
<path d="M197.246 171.812H185.527V200.099H197.246V171.812Z" stroke="white" stroke-width="2" stroke-linecap="round" stroke-linejoin="round"/>
<path d="M208.966 171.812H197.247V200.099H208.966V171.812Z" stroke="white" stroke-width="2" stroke-linecap="round" stroke-linejoin="round"/>
<path d="M243.839 171.812H232.119V200.099H243.839V171.812Z" stroke="white" stroke-width="2" stroke-linecap="round" stroke-linejoin="round"/>
<path d="M255.559 171.812H243.839V200.099H255.559V171.812Z" stroke="white" stroke-width="2" stroke-linecap="round" stroke-linejoin="round"/>
<path d="M290.404 171.812H278.685V200.099H290.404V171.812Z" stroke="white" stroke-width="2" stroke-linecap="round" stroke-linejoin="round"/>
<path d="M302.123 171.812H290.403V200.099H302.123V171.812Z" stroke="white" stroke-width="2" stroke-linecap="round" stroke-linejoin="round"/>
<path d="M269.36 213.456H223.252V224.411H269.36V213.456Z" stroke="white" stroke-width="2" stroke-linecap="round" stroke-linejoin="round"/>
<path d="M233.945 224.411H226.759V262.08H233.945V224.411Z" stroke="white" stroke-width="2" stroke-linecap="round" stroke-linejoin="round"/>
<path d="M265.824 224.411H258.638V262.08H265.824V224.411Z" stroke="white" stroke-width="2" stroke-linecap="round" stroke-linejoin="round"/>
<path d="M164.279 180.385H97.8133L90 208.295H164.279V180.385Z" stroke="white" stroke-width="2" stroke-linecap="round" stroke-linejoin="round"/>
<path d="M109.395 208.295C109.389 210.866 108.364 213.33 106.544 215.146C104.724 216.962 102.258 217.982 99.6867 217.982C97.1176 217.982 94.6538 216.962 92.8372 215.145C91.0206 213.328 90 210.864 90 208.295H109.395Z" stroke="white" stroke-width="2" stroke-linecap="round" stroke-linejoin="round"/>
<path d="M128.789 208.295C128.784 210.866 127.758 213.33 125.938 215.146C124.118 216.962 121.652 217.982 119.081 217.982C116.512 217.982 114.048 216.962 112.232 215.145C110.415 213.328 109.395 210.864 109.395 208.295H128.789Z" stroke="white" stroke-width="2" stroke-linecap="round" stroke-linejoin="round"/>
<path d="M148.185 208.295C148.18 210.866 147.154 213.33 145.334 215.146C143.514 216.962 141.048 217.982 138.477 217.982C135.908 217.982 133.444 216.962 131.628 215.145C129.811 213.328 128.791 210.864 128.791 208.295H148.185Z" stroke="white" stroke-width="2" stroke-linecap="round" stroke-linejoin="round"/>
<path d="M164.237 208.295H148.185C148.185 210.864 149.205 213.328 151.022 215.145C152.838 216.962 155.302 217.982 157.871 217.982C159.058 217.988 160.234 217.757 161.33 217.304C162.427 216.851 163.422 216.184 164.258 215.342L164.237 208.295Z" stroke="white" stroke-width="2" stroke-linecap="round" stroke-linejoin="round"/>
<path d="M114.654 263.244V242.188C114.654 237.846 116.379 233.682 119.449 230.612C122.519 227.542 126.683 225.817 131.025 225.817C135.367 225.817 139.532 227.542 142.602 230.612C145.672 233.682 147.397 237.846 147.397 242.188V263.244" stroke="white" stroke-width="2" stroke-linecap="round" stroke-linejoin="round"/>
<path d="M119.549 261.988V245.467C119.549 238.357 124.68 232.693 131.024 232.693C137.369 232.693 142.478 238.442 142.478 245.467V261.988" stroke="white" stroke-width="2" stroke-linecap="round" stroke-linejoin="round"/>
<path d="M94.7476 216.641V263.265H164.279" stroke="white" stroke-width="2" stroke-linecap="round" stroke-linejoin="round"/>
<path d="M131.024 232.502V263.265" stroke="white" stroke-width="2" stroke-linecap="round" stroke-linejoin="round"/>
<path d="M147.397 169.421H114.654V180.385H147.397V169.421Z" stroke="white" stroke-width="2" stroke-linecap="round" stroke-linejoin="round"/>
<path d="M147.397 169.421C147.397 169.421 160.17 148.919 158.489 141.191C156.807 133.463 148.397 130.546 141.287 133.782C140.361 131.833 138.91 130.182 137.097 129.012C135.285 127.843 133.182 127.201 131.025 127.161C128.866 127.202 126.76 127.844 124.944 129.013C123.129 130.182 121.674 131.833 120.742 133.782C113.653 130.461 105.286 133.463 103.561 141.191C101.837 148.919 114.653 169.421 114.653 169.421" stroke="white" stroke-width="2" stroke-linecap="round" stroke-linejoin="round"/>
<path d="M125.639 169.421L120.913 148.302" stroke="white" stroke-width="2" stroke-linecap="round" stroke-linejoin="round"/>
<path d="M134.474 169.421L139.2 148.302" stroke="white" stroke-width="2" stroke-linecap="round" stroke-linejoin="round"/>
<path d="M153.507 180.385H132.579V208.295H153.507V180.385Z" stroke="white" stroke-width="2" stroke-linecap="round" stroke-linejoin="round"/>
</svg>
